<svg xmlns="http://www.w3.org/2000/svg" viewBox="0 0 34.04 36.76"><defs><style>.cls-1{fill:#f4eadf;}</style></defs><title>facebook_1</title><g id="Layer_2" data-name="Layer 2"><g id="img"><path class="cls-1" d="M33.82,1.55A1,1,0,0,0,33,.05c-9.59-.24-22,.5-31.6.13A.9.9,0,0,0,.66.44a.9.9,0,0,0-.59.89c0,11.41-.48,23.09,1.11,34.42a.79.79,0,0,0,.49.67,1,1,0,0,0,.76.34c1.83,0,4.48-.12,6.31-.13a1,1,0,0,0,.83-.45.92.92,0,0,0,.45-.83V23.92c0-.05,0-.1,0-.14s0-.09,0-.13a1,1,0,0,0-1-1,26.07,26.07,0,0,0-2.64-.13c0-.24-.09-.88-.13-1.12a13.76,13.76,0,0,1,2.5-.23,1.06,1.06,0,0,0,.31-.05.83.83,0,0,0,1-1,47.89,47.89,0,0,1-.14-9.35c1.35-3.25,4.9-4.41,8.19-4V8.39c-5.89.22-7,6-5.73,11.09a.94.94,0,0,0,.14.32.93.93,0,0,0,1,.82h2.5v1.62a7.55,7.55,0,0,1-2.62.44h0a.86.86,0,0,0-1,1c.25,2.86.4,8.56.54,11.43a1,1,0,0,0,.71.92.94.94,0,0,0,.43.09c6.5,0,12.19.12,18.69-.14a.93.93,0,0,0,.8-.44,1,1,0,0,0,.48-.83c.25-11-.13-22.06-.14-33.08ZM32,33.76c-6,.21-11,0-17,0-.11-2.79-.42-7-.61-9.27a9,9,0,0,0,3.06-.81,1,1,0,0,0,.48-.77,1.79,1.79,0,0,0,0-.24V19.58a1,1,0,0,0-1-1,1.17,1.17,0,0,0-.27,0H14.24c-.91-3.91-.4-8.4,4.61-8.2a.87.87,0,0,0,.92-.66A.9.9,0,0,0,20.12,9V5.86a1,1,0,0,0-1-1A9.84,9.84,0,0,0,8.66,9.49,5.07,5.07,0,0,0,8,11.74v.19c0,.76,0,1.51-.07,2.27a23.29,23.29,0,0,0,0,4.94,11.63,11.63,0,0,0-3,.54,1,1,0,0,0-.72,1.12,1.14,1.14,0,0,0,0,.26c.15.76.27,1.93.4,2.69a1,1,0,0,0,1.05.73h0c.65,0,1.7,0,2.35,0V34.59c-1.38,0-3.63.15-5,.17C1.6,24.07,2,12.53,2,1.76c9.11.29,21-.16,30,0C32.06,12.4,32.26,23.12,32,33.76Z"/></g></g></svg>