<svg xmlns="http://www.w3.org/2000/svg" viewBox="0 0 38.67 38.81"><defs><style>.cls-1{fill:#f4eadf;}</style></defs><title>insta</title><g id="Layer_2" data-name="Layer 2"><g id="img"><path class="cls-1" d="M38.63,1.57a1,1,0,0,0-1.09-1C25.59.65,13.67,0,1.73,0H1.5A1.15,1.15,0,0,0,.36,1.14V2.73a.88.88,0,0,0,0,.17,2.46,2.46,0,0,0,0,.28C1,13.76-.17,26.6,0,37.17a1,1,0,0,0,.05.32,1.13,1.13,0,0,0,1.09,1c11.93.55,23.87.12,35.81-.11A1.09,1.09,0,0,0,38,37.62a1.16,1.16,0,0,0,.2-.67c-.07-7.41,0-16.82.18-24.62a1.27,1.27,0,0,0,0-1.42c.07-3.06.15-6.07.24-9A1,1,0,0,0,38.63,1.57Zm-25.81.88,2.4,0a69.79,69.79,0,0,0,.19,7.65l-2.8-.1C12.71,7.51,12.73,5,12.82,2.45Zm-5-.1,2.72,0c-.09,2.51-.11,5-.21,7.55L7.61,9.8C7.81,7.32,7.83,4.84,7.83,2.35Zm-5.19.38V2.28l2.95,0c0,2.45,0,4.9-.21,7.35L2.82,9.51c0-.25,0-.51,0-.76a2.72,2.72,0,0,0,0-.28c0-1.78-.07-3.55-.17-5.29,0-.07,0-.13,0-.19A1.09,1.09,0,0,0,2.64,2.73ZM35.91,36.17c-11.22.23-22.44.59-33.66.14-.08-7.48.46-16.79.53-24.53,11.09.79,22.19.94,33.3,1C35.93,20.14,35.85,29.16,35.91,36.17Zm.22-25.71c-6.15,0-12.3-.06-18.45-.24a75.47,75.47,0,0,1-.19-7.67c6.28.15,12.56.3,18.85.29C36.26,5.31,36.19,7.86,36.13,10.46Z"/><path class="cls-1" d="M25.64,8.61a1,1,0,0,0,1.06.86h3.41a1.1,1.1,0,0,0,.68-.21,1.08,1.08,0,0,0,.69-1,28.55,28.55,0,0,1-.12-3.07,1,1,0,0,0,0-.31,1.07,1.07,0,0,0-1.09-1h-3.3a1,1,0,0,0-.89.45,1,1,0,0,0-.7,1c0,.92.1,1.82.11,2.73A1.17,1.17,0,0,0,25.64,8.61ZM29.1,6.06q0,.57,0,1.14H27.7l-.06-1.14Z"/><path class="cls-1" d="M34.91,8.07V4.89a1.14,1.14,0,0,0-2.28,0V8.07A1.14,1.14,0,0,0,34.91,8.07Z"/><path class="cls-1" d="M19.43,13.53a1,1,0,0,0-.57.1c-7-.27-12.53,6.5-11.22,13.5,1,5.45,6.5,8.38,11.66,8.13,4.83-.22,9.63-3.18,10.9-8a11.57,11.57,0,0,0-1.52-8.44C26.76,15.41,23.13,13.9,19.43,13.53ZM27.91,27c-.94,3.59-4.8,5.59-8.23,6a9,9,0,0,1-9.23-4.64c-3-6,2.88-13.53,9.36-12.33a1.15,1.15,0,0,0,.59,0C25.46,17,29.31,21.64,27.91,27Z"/><path class="cls-1" d="M19.29,17.71a1.17,1.17,0,0,0-.5.05,6.64,6.64,0,0,0-5.25,2.47A7.08,7.08,0,0,0,12,26.08c.46,2.44,2.79,5.08,6.82,5.08h.36a7.09,7.09,0,0,0,6.68-5A7.16,7.16,0,0,0,25,21,7,7,0,0,0,19.29,17.71Zm4,8c-.44,1.69-2.32,2.63-4,2.81l-.57,0a4.21,4.21,0,0,1-3.88-2.24,3.83,3.83,0,0,1,.26-3.79,4.29,4.29,0,0,1,3.56-2.14,3.57,3.57,0,0,1,.65.06,1.19,1.19,0,0,0,.46,0,4.84,4.84,0,0,1,3,2.1A3.92,3.92,0,0,1,23.27,25.67Z"/><path class="cls-1" d="M20.12,21.3a1.17,1.17,0,0,0-1.56.41A1.14,1.14,0,0,0,19,23.26a2.46,2.46,0,0,1,.88.65,1.36,1.36,0,0,1,.26.76c0,1.46,2.32,1.47,2.27,0A3.86,3.86,0,0,0,20.12,21.3Z"/></g></g></svg>