<svg xmlns="http://www.w3.org/2000/svg" viewBox="0 0 37.07 37"><defs><style>.cls-1{fill:#f4eadf;}</style></defs><title>twitter</title><g id="Layer_2" data-name="Layer 2"><g id="img"><path class="cls-1" d="M17.74,29.91a24.44,24.44,0,0,1-5.69-.71c-.76-.18-1.36-.37-1.74-.49-.17-.06-.34-.11-.48-.17a.78.78,0,0,1-.64-.66.73.73,0,0,1,.59-.79,17.08,17.08,0,0,0,5.68-1.82.22.22,0,0,0-.09-.4,5.11,5.11,0,0,1-3.62-1.64.86.86,0,0,1-.17-.73,1.25,1.25,0,0,1,.47-.72,5.23,5.23,0,0,1-3.22-3.16,1.06,1.06,0,0,1,.38-1.28,2.11,2.11,0,0,1,.4-.2.22.22,0,0,0,.1-.33,6.23,6.23,0,0,1-1.14-4.08c.1-1.43.58-1.64.73-1.71a.78.78,0,0,1,.8.1,10.82,10.82,0,0,0,5.81,2.2,9.25,9.25,0,0,0,2.78-.16.21.21,0,0,0,.16-.21,6.14,6.14,0,0,1,1.87-4.54,5.17,5.17,0,0,1,4.86-1.19,5,5,0,0,1,3.27,2.59.21.21,0,0,0,.17.12l2.12.1a.72.72,0,0,1,.66.52.73.73,0,0,1-.27.79l-1.14.81,1.06.78a.74.74,0,0,1,.26.81.73.73,0,0,1-.69.5H29.73c.53,5.28-.43,9.46-2.79,12.14C24.87,28.72,21.77,29.91,17.74,29.91Zm-4.13-2.27a.22.22,0,0,0,0,.42,22.7,22.7,0,0,0,4.1.4c3.6,0,6.33-1,8.12-3.05,2.78-3.15,2.81-8.17,2.34-11.82a.75.75,0,0,1,.18-.57.68.68,0,0,1,.44-.23l-.08-.07a.7.7,0,0,1-.3-.58.73.73,0,0,1,.3-.58l.27-.2-.61,0a.73.73,0,0,1-.62-.43,3.79,3.79,0,0,0-6.07-1.45,4.66,4.66,0,0,0-1.37,3.94.83.83,0,0,1-.45.85,8.34,8.34,0,0,1-4.08.51A12.36,12.36,0,0,1,10.34,13a.21.21,0,0,0-.33.19,4.22,4.22,0,0,0,1.81,3.61.72.72,0,0,1,.33.76.74.74,0,0,1-.6.56,9.64,9.64,0,0,0-1.24.28,4,4,0,0,0,3.63,2.26.75.75,0,0,1,.66.57.71.71,0,0,1-.37.79,7.77,7.77,0,0,0-1,.62c.77.6,2.24,1,4.43.67a.71.71,0,0,1,.66.24.72.72,0,0,1,.14.69C18.4,24.5,17.71,26.29,13.61,27.64Z"/><path class="cls-1" d="M5.45,22.56a.74.74,0,0,1-.68-.47A.72.72,0,1,1,6.16,22,.74.74,0,0,1,5.45,22.56Z"/><path class="cls-1" d="M35,0H3C.56,0,0,2,0,4.48v28C0,35-.44,37,2,37H34c2.47,0,3-2,3-4.48v-28C37,2,37.51,0,35,0Zm.55,32.52a3,3,0,0,1-3,3H6.4a.21.21,0,0,1-.22-.21V25.14a.74.74,0,0,0-.62-.74.73.73,0,0,0-.83.72V35.34a.21.21,0,0,1-.21.21h0a3,3,0,0,1-3-3v-28a3,3,0,0,1,3-3h0a.21.21,0,0,1,.21.21V18.59a.75.75,0,0,0,.62.74.73.73,0,0,0,.83-.72V1.66a.21.21,0,0,1,.22-.21H32.56a3,3,0,0,1,3,3Z"/></g></g></svg>