<svg xmlns="http://www.w3.org/2000/svg" viewBox="0 0 105.3 105.3"><defs><style>.cls-1{fill:#91a491;stroke:#536353;stroke-width:0.5px;}.cls-1,.cls-2,.cls-3{stroke-miterlimit:10;}.cls-2{fill:#fff;stroke:#616161;}.cls-3{fill:#e0865c;stroke:#db825e;opacity:0.56;}</style></defs><title>Asset 6ldpi</title><g id="Layer_2" data-name="Layer 2"><g id="logo"><circle class="cls-1" cx="52.65" cy="52.65" r="52.4"/><path class="cls-2" d="M55.92,25.21,45.55,14.07v4.71a35.36,35.36,0,0,0-24.8,50l10.23-7a23,23,0,0,1-1.55-8.33A23.24,23.24,0,0,1,45.55,31.33v4.38Z"/><path class="cls-2" d="M88,53.42A35.43,35.43,0,0,0,59.11,18.65V31.14A23.17,23.17,0,0,1,74.57,61l-4.71-3.22,2.8,14.48,15-2.26-2.86-2A35.16,35.16,0,0,0,88,53.42Z"/><path class="cls-2" d="M77,79.09,66.56,72a23.16,23.16,0,0,1-27.15.5l3.76-2.58-15-2.26-2.8,14.48,3.62-2.48a35.26,35.26,0,0,0,48-.55Z"/><path class="cls-3" d="M54.1,42.1S43.83,54.62,46,59.38c2.35,5.11,13.53,4.95,15.76.34C63.88,55.37,54.1,42.1,54.1,42.1Z"/></g></g></svg>