<svg xmlns="http://www.w3.org/2000/svg" viewBox="0 0 105.3 105.3"><defs><style>.cls-1{fill:#91a491;stroke:#536353;stroke-width:0.5px;}.cls-1,.cls-2{stroke-miterlimit:10;}.cls-2,.cls-5{fill:#fff;}.cls-2{stroke:#616161;stroke-width:0.25px;}.cls-3{fill:#e2daba;}.cls-4{fill:#e0dcb0;}.cls-4,.cls-9{opacity:0.5;}.cls-5,.cls-8{opacity:0.4;}.cls-6,.cls-7,.cls-8,.cls-9{fill:#e0865c;}.cls-6{opacity:0.2;}.cls-7{opacity:0.3;}</style></defs><title>jointldpi</title><g id="Layer_2" data-name="Layer 2"><g id="logo"><circle class="cls-1" cx="52.65" cy="52.65" r="52.4"/><path class="cls-2" d="M73.85,21.12C71.55,26.05,67,41.39,63.34,54.75c.7,5.68.86,17,.88,31.37h-25c-3.26-13.52-5.75-33.89-5.54-38,.37-7.19,2.7-16.41,4.84-27"/><path class="cls-3" d="M56.4,54.9A3.14,3.14,0,0,0,55,54.17a2.75,2.75,0,0,0-.34-.1,4.64,4.64,0,0,0-.93-.18c-.2,0-.38-.06-.57-.07a1.51,1.51,0,0,0-.3,0,.36.36,0,0,0-.15,0h-.31a2.17,2.17,0,0,0-.37,0,4.34,4.34,0,0,0-.55.07,2,2,0,0,0-.28.06,1.06,1.06,0,0,0-.25.09.6.6,0,0,0-.23.1,1,1,0,0,0-.37.25l-.1.08h0c-1.2,1.1-3.78.7-6.43.07s-3.4,2.46-3.46,4.66,1.51,9,2.75,16.06a107.24,107.24,0,0,1,1,10.88H54c.61-7.63,1.35-14.83,2.08-16.86a23.71,23.71,0,0,1,1.71-3.73v0c.15-.25.3-.48.42-.71s.35-.57.5-.84.37-.63.53-.93.25-.53.37-.8.13-.37.2-.55C60.44,59.68,58.19,57,56.4,54.9Z"/><path class="cls-4" d="M50.29,54.37l-.11.09a5.47,5.47,0,0,1,2.37,1.15c2.61,3.1,5.8,6.92,5.25,9.91a21.58,21.58,0,0,0,2-3.84c.61-2-1.63-4.66-3.42-6.79C55.59,54,51.43,53.2,50.29,54.37Z"/><path class="cls-5" d="M46,76.34c-1-6.68-2.26-13.19-2.19-15.29,0-1.64.43-3.78,1.66-4.36l-.6-.15C42.61,55.94,42,58.9,42,61s1.2,8.6,2.19,15.29C45,82.18,46.83,82.25,46,76.34Z"/><path class="cls-3" d="M58.31,46.53s0,0,0,0v0a19.07,19.07,0,0,1-.54-3.25c-.21-2.59,2-14,3.59-22.09H54c-1.75,5.58-3.82,11.71-5.17,14.66C46.4,41,43.7,46,43.28,47.72S42.77,52,45,52.09s4.31.31,5,1.4a.18.18,0,0,0,.07.09,1.84,1.84,0,0,0,1.07.75.58.58,0,0,0,.23.09,5.56,5.56,0,0,0,1.12.26,8.68,8.68,0,0,0,1,.07,2.58,2.58,0,0,0,.47,0l.28,0h0a1.66,1.66,0,0,0,.7-.21c1.86-1.28,4.17-2.89,4.1-4.59a11.32,11.32,0,0,0-.49-2.44A7,7,0,0,1,58.31,46.53Z"/><path class="cls-4" d="M50.08,53.58a.47.47,0,0,0-.06-.09,4.23,4.23,0,0,0,2.09-.4c2.7-1.86,6-4.17,6.19-6.62a17.37,17.37,0,0,1,.76,3.42c.06,1.7-2.25,3.29-4.1,4.58C54.13,55,50.73,54.74,50.08,53.58Z"/><path class="cls-5" d="M51.35,35.53c-2.18,5-4.55,9.81-4.94,11.47-.3,1.29-.46,3,.38,3.75h-.5c-1.87,0-1.69-2.43-1.3-4.08s2.76-6.46,4.94-11.46C51.85,30.77,53.28,31.1,51.35,35.53Z"/><path class="cls-6" d="M63.17,54.75A14.67,14.67,0,1,1,48.5,40.08,14.67,14.67,0,0,1,63.17,54.75Z"/><path class="cls-7" d="M59.5,54.75a11,11,0,1,1-11-11A11,11,0,0,1,59.5,54.75Z"/><path class="cls-8" d="M55.84,54.75a7.34,7.34,0,1,1-7.34-7.34A7.34,7.34,0,0,1,55.84,54.75Z"/><path class="cls-9" d="M51.74,54.75a3.24,3.24,0,1,1-3.24-3.24A3.24,3.24,0,0,1,51.74,54.75Z"/></g></g></svg>