<svg xmlns="http://www.w3.org/2000/svg" viewBox="0 0 105.3 105.3"><defs><style>.cls-1{fill:#91a491;stroke:#536353;stroke-width:0.5px;}.cls-1,.cls-2{stroke-miterlimit:10;}.cls-2{fill:#fff;stroke:#616161;stroke-width:0.25px;}.cls-3{fill:#3a3733;opacity:0.61;}.cls-4{fill:#968666;}.cls-4,.cls-6{opacity:0.3;}.cls-5,.cls-6,.cls-7,.cls-8{fill:#e0865c;}.cls-5{opacity:0.2;}.cls-7{opacity:0.4;}.cls-8{opacity:0.5;}</style></defs><title>muscleldpi</title><g id="Layer_2" data-name="Layer 2"><g id="logo"><circle class="cls-1" cx="52.65" cy="52.65" r="52.4"/><path class="cls-2" d="M69.56,19.86l-4.2.29-4.18.28h0l0-4.78A6.66,6.66,0,0,0,60.39,17c-.09.21-.18.44-.27.67A32.84,32.84,0,0,0,58.71,23c0,3.48,3.76,6.34,4.29,10.42,0,.21-.18,5.16-.18,5.16-.22,2-1,20.12-3.48,27.5-.29.2-29.38-1-38-.88L21.46,87c18.4,2.09,47.4-.7,53.07-4.75,2.15-2.56,2.78-10.8,2.84-14.49.11-6.91-.52-20.42-1.33-27.6-.07-.64-.82-7.47-.84-7.68-.13-2.37,1.22-2.65,1.59-4.26s.8-5.31,1-7.4c0-.17,0-.33,0-.48.07-.64.1-1,.1-1Z"/><path class="cls-2" d="M76.23,14.51h-.84a1.68,1.68,0,0,0-1.66,1.69l0,3.4a2.31,2.31,0,0,0,.8,1.79,1.36,1.36,0,0,0,.9.32h.84A1.83,1.83,0,0,0,77.93,20a2.56,2.56,0,0,0,0-.39l0-3.39A1.69,1.69,0,0,0,76.23,14.51Z"/><path class="cls-2" d="M72,12.87h-.85a1.68,1.68,0,0,0-1.66,1.69l0,5.53a1.68,1.68,0,0,0,1.7,1.66h.84a1.68,1.68,0,0,0,1.66-1.7l-.05-5.53A1.68,1.68,0,0,0,72,12.87Z"/><path class="cls-2" d="M67.8,11.75H67a1.68,1.68,0,0,0-1.66,1.7l.06,6.68a1.68,1.68,0,0,0,1.7,1.66h.84a1.68,1.68,0,0,0,1.66-1.7l-.06-6.68A1.69,1.69,0,0,0,67.8,11.75Z"/><rect class="cls-2" x="61.13" y="12.43" width="4.2" height="9.41" rx="1.68" transform="translate(-0.18 0.66) rotate(-0.6)"/><path class="cls-3" d="M77.93,20a1.83,1.83,0,0,1-1.63,1.75h-.84a1.36,1.36,0,0,1-.9-.32,2.31,2.31,0,0,1-.8-1.79v.32a2.32,2.32,0,0,0,.81,1.8,1.47,1.47,0,0,0,.89.32h.84a1.86,1.86,0,0,0,1.64-1.76c0-.13,0-.26,0-.39v-.32A2.56,2.56,0,0,1,77.93,20Z"/><path class="cls-3" d="M72.1,21.76h-.84a1.68,1.68,0,0,1-1.7-1.66h0a1.68,1.68,0,0,1-1.66,1.7h-.84a1.68,1.68,0,0,1-1.7-1.66,1.68,1.68,0,0,1-1.66,1.7h-.84a1.69,1.69,0,0,1-1.7-1.67v.33a1.68,1.68,0,0,0,1.7,1.66h.84a1.68,1.68,0,0,0,1.66-1.69,1.68,1.68,0,0,0,1.7,1.66h.84a1.69,1.69,0,0,0,1.67-1.7h0a1.68,1.68,0,0,0,1.69,1.67h.85a1.68,1.68,0,0,0,1.66-1.7v-.32A1.68,1.68,0,0,1,72.1,21.76Z"/><path class="cls-4" d="M65.36,20.15c-.06-.53-.08-1.06-.11-1.59s0-1.06,0-1.58,0-1.06,0-1.59l0-.8c0-.26,0-.53.06-.79,0,.26,0,.53.06.79l0,.8c0,.52,0,1.05,0,1.58s0,1.06,0,1.59S65.4,19.62,65.36,20.15Z"/><path class="cls-3" d="M66.65,18.54a15.87,15.87,0,0,1-3.65.87,19.48,19.48,0,0,1,0,2.31c-.56,0-.37.53.25.62,0-.65,0-2.19,0-2.69a16.11,16.11,0,0,0,3.65-.87c1.07-.46,1.25-3.55.48-3.87C67.84,15.73,67.59,18.14,66.65,18.54Z"/><path class="cls-4" d="M73.77,20.38a17,17,0,0,1-.15-2.25,18.82,18.82,0,0,1,.1-2.25,18.89,18.89,0,0,1,.15,2.25A21.17,21.17,0,0,1,73.77,20.38Z"/><path class="cls-4" d="M69.57,20.42c-.06-.5-.09-1-.11-1.52s0-1,0-1.53,0-1,0-1.53l0-.77c0-.25,0-.51,0-.76,0,.25,0,.51.07.76l0,.77c0,.51,0,1,0,1.53s0,1,0,1.52S69.61,19.91,69.57,20.42Z"/><path class="cls-2" d="M62.46,31.36s-3.77-4.16-3.78-5.67-.64-8-.09-9.11,7.65-2.1,8.48-1.92.68,3.41-.42,3.88a15.87,15.87,0,0,1-3.65.87,19.48,19.48,0,0,1,0,2.31c2.34,2.74,5.57,6.88,5.57,6.88"/><path class="cls-3" d="M64.64,22.33c.56.43,1.17.8,1.75,1.19A14.1,14.1,0,0,1,68.1,24.8a6.05,6.05,0,0,1,.72.8,4.09,4.09,0,0,1,.51,1,5.58,5.58,0,0,1,.34,2.1,7.34,7.34,0,0,0-.2-1,5.75,5.75,0,0,0-.33-1,5,5,0,0,0-.51-.9,6.15,6.15,0,0,0-.69-.76c-.51-.47-1.08-.89-1.65-1.32A15,15,0,0,1,64.64,22.33Z"/><path class="cls-5" d="M59,75.68A16.73,16.73,0,1,1,42.31,59,16.74,16.74,0,0,1,59,75.68Z"/><path class="cls-6" d="M54.85,75.68A12.54,12.54,0,1,1,42.31,63.14,12.54,12.54,0,0,1,54.85,75.68Z"/><path class="cls-7" d="M50.68,75.68a8.37,8.37,0,1,1-8.37-8.36A8.37,8.37,0,0,1,50.68,75.68Z"/><path class="cls-8" d="M46,75.68A3.69,3.69,0,1,1,42.31,72,3.7,3.7,0,0,1,46,75.68Z"/></g></g></svg>