<svg xmlns="http://www.w3.org/2000/svg" viewBox="0 0 105.3 105.3"><defs><style>.cls-1{fill:#91a491;stroke:#536353;stroke-width:0.5px;}.cls-1,.cls-2{stroke-miterlimit:10;}.cls-2{fill:#fff;stroke:#616161;}</style></defs><title>relaxldpi</title><g id="Layer_2" data-name="Layer 2"><g id="logo"><circle class="cls-1" cx="52.65" cy="52.65" r="52.4"/><path class="cls-2" d="M56.38,83.35s2.27-15.26,15.19-13.18,15-2.46,15-2.46S85.37,79.32,79.12,85C73.07,90.42,68.7,90,56.38,83.35Z"/><path class="cls-1" d="M56.38,83.35S64.05,74,75.44,77.5c-8.21-.19-16.82,7.15-16.82,7.15"/><path class="cls-2" d="M48.38,47.47s-11.3-7.53,0-26.79C60.1,39.94,48.38,47.47,48.38,47.47Z"/><path class="cls-2" d="M48.57,47.47s11.3,7.54,0,26.8C36.85,55,48.57,47.47,48.57,47.47Z"/><path class="cls-2" d="M48.48,47.38s7.53-11.3,26.79,0C56,59.1,48.48,47.38,48.48,47.38Z"/><path class="cls-2" d="M48.48,47.57s-7.54,11.3-26.8,0C40.94,35.85,48.48,47.57,48.48,47.57Z"/><path class="cls-2" d="M48.54,47.41s13.32-2.67,18.95,18.94C45.58,61,48.54,47.41,48.54,47.41Z"/><path class="cls-2" d="M48.41,47.54S35.09,50.2,29.47,28.6C51.37,33.92,48.41,47.54,48.41,47.54Z"/><path class="cls-2" d="M48.54,47.54S51.21,60.86,29.6,66.48C34.92,44.58,48.54,47.54,48.54,47.54Z"/><path class="cls-2" d="M48.41,47.41s-2.66-13.32,19-18.95C62,50.37,48.41,47.41,48.41,47.41Z"/><path class="cls-1" d="M50.89,47.47A2.51,2.51,0,1,1,48.38,45,2.51,2.51,0,0,1,50.89,47.47Z"/></g></g></svg>