<svg xmlns="http://www.w3.org/2000/svg" viewBox="0 0 105.3 105.3"><defs><style>.cls-1{fill:#91a491;stroke:#536353;stroke-width:0.5px;}.cls-1,.cls-2{stroke-miterlimit:10;}.cls-2{fill:#fff;stroke:#616161;}</style></defs><title>sleepldpi</title><g id="Layer_2" data-name="Layer 2"><g id="logo"><circle class="cls-1" cx="52.65" cy="52.65" r="52.4"/><path class="cls-2" d="M66.28,24.42S99.56,37.32,87.19,68.7C76,97,41.11,84.71,41.11,84.71s19.35-.28,28.6-21.41C79.46,41,66.28,24.42,66.28,24.42Z"/><polygon class="cls-2" points="29.9 29.38 35.25 27.47 35.09 33.15 38.55 37.65 33.11 39.25 29.9 43.93 26.69 39.25 21.25 37.65 24.71 33.15 24.55 27.47 29.9 29.38"/><polygon class="cls-2" points="41.11 51.74 44.62 50.5 44.51 54.22 46.78 57.16 43.21 58.22 41.11 61.28 39.01 58.22 35.44 57.16 37.71 54.22 37.61 50.5 41.11 51.74"/><polygon class="cls-2" points="52.2 28.72 55.7 27.47 55.6 31.19 57.87 34.14 54.3 35.19 52.2 38.26 50.09 35.19 46.53 34.14 48.79 31.19 48.69 27.47 52.2 28.72"/></g></g></svg>