<svg id="Layer_1" data-name="Layer 1" xmlns="http://www.w3.org/2000/svg" viewBox="0 0 33.54 41.24"><defs><style>.cls-1{fill:#a15442;}</style></defs><title>head-logo-simple-dark</title><path class="cls-1" d="M81.05,179.24c2.16-5.22,7.31-10.93,8.89-12.6v-1.79l-.47.47c-.33.33-6.38,6.49-9.21,12.59-.23.5-.44,1-.62,1.5a11.44,11.44,0,0,0-.82,3.94c0,8.55,9.7,10.14,9.8,10.16l.74.11-1.3-1.48c-2.14-.52-8-2.53-8-8.79a9.31,9.31,0,0,1,.48-2.8C80.64,180.33,81,179.41,81.05,179.24Z" transform="translate(-73.17 -155.57)"/><path class="cls-1" d="M74.5,180.41A15.72,15.72,0,0,1,77,171.66a13.29,13.29,0,0,1,1-3.61,18.68,18.68,0,0,0-4.8,12.36c0,11.31,9.82,16.4,16.79,16.4v-1.27C83.54,195.54,74.5,190.84,74.5,180.41Z" transform="translate(-73.17 -155.57)"/><path class="cls-1" d="M89.94,157.17v-1.6l-.41.33a47.59,47.59,0,0,0-5.65,5.49c-3.79,4.34-5.71,8.23-5.71,11.56a20.55,20.55,0,0,0,.1,2.08,13.21,13.21,0,0,0,.29,1.78,10.05,10.05,0,0,0,.51,1.52,6.89,6.89,0,0,0,.51,1,6.7,6.7,0,0,0,.62.81,9.6,9.6,0,0,0,1.63,1.42c.31.23.62.46.91.7a14,14,0,0,1,5.32,9.9l1.3,1.48v-.72a15,15,0,0,0-5.78-11.58c-.32-.26-.65-.51-1-.74s-.57-.42-.85-.65-.26-.22-.38-.34l-.18-.18a4.52,4.52,0,0,1-.53-.71,4.94,4.94,0,0,1-.41-.79,12.12,12.12,0,0,1-.82-5C79.44,166.46,88,158.86,89.94,157.17Z" transform="translate(-73.17 -155.57)"/><path class="cls-1" d="M98.77,179.24c-2.15-5.22-7.31-10.93-8.88-12.6v-1.79l.46.47c.34.33,6.38,6.49,9.21,12.59a16,16,0,0,1,.63,1.5,11.42,11.42,0,0,1,.81,3.94c0,8.55-9.69,10.14-9.79,10.16l-.74.11,1.3-1.48c2.13-.52,8-2.53,8-8.79a9.63,9.63,0,0,0-.48-2.8C99.18,180.33,98.83,179.41,98.77,179.24Z" transform="translate(-73.17 -155.57)"/><path class="cls-1" d="M105.37,180.41a15.63,15.63,0,0,0-2.51-8.75,12.61,12.61,0,0,0-1-3.61,18.7,18.7,0,0,1,4.81,12.36c0,11.31-9.82,16.4-16.8,16.4v-1.27C96.33,195.54,105.37,190.84,105.37,180.41Z" transform="translate(-73.17 -155.57)"/><path class="cls-1" d="M89.89,157.17v-1.6l.41.33a48,48,0,0,1,5.64,5.49c3.79,4.34,5.72,8.23,5.72,11.56a20.55,20.55,0,0,1-.1,2.08,11.81,11.81,0,0,1-.3,1.78,8.23,8.23,0,0,1-.51,1.52,5.93,5.93,0,0,1-.5,1,7.9,7.9,0,0,1-.62.81A9.3,9.3,0,0,1,98,181.53c-.3.23-.61.46-.9.7a13.92,13.92,0,0,0-5.32,9.9l-1.3,1.48v-.72a15,15,0,0,1,5.78-11.58c.32-.26.65-.51,1-.74s.57-.42.84-.65.26-.22.39-.34l.17-.18a5.31,5.31,0,0,0,.54-.71,5.85,5.85,0,0,0,.4-.79,12.12,12.12,0,0,0,.82-5C100.38,166.46,91.87,158.86,89.89,157.17Z" transform="translate(-73.17 -155.57)"/></svg>