<svg xmlns="http://www.w3.org/2000/svg" viewBox="0 0 35.42 43"><defs><style>.cls-1{fill:#44341f;fill-rule:evenodd;}</style></defs><title>deepoilldpi</title><g id="Layer_2" data-name="Layer 2"><g id="img"><path class="cls-1" d="M2.4,15.15c.05,0,0,0,0,0Zm-.48,0c.05.05,0,0,0,0Zm.93-.84c-.05.48,0-.32,0,0ZM3.23,14c0,.47,0-.32,0,0Zm-.32-.15s0,.08,0,.08c-.36.45.38-.16,0-.08Zm-.48.1,0,.56c.18,0,0-.4.06-.56s0-.16-.08,0Zm-.75,1.31c-.24-.68.42-1,.35-1.46-.44.14-.59.95-.35,1.46Zm2.13-2.88c.06,0,0,0,0,0Zm-.93.75c0,.22,0,.43,0,.64.1,0,.09-.13.08-.24a7.81,7.81,0,0,0,0-1.2c.2.07,0-.46,0-.16a6.58,6.58,0,0,0-.12,1Zm.5.54c0-.58.24-1.77,0-2.07.07.87-.25,1.36,0,2.07ZM3.52,11c.1.31.08-.32,0,0Zm-.44,1c0-.69.39-1.32-.15-1.68.11.76-.16,1.2.15,1.68Zm.73-1.79c.1.31.08-.32,0,0Zm-.39.25a1.12,1.12,0,0,0-.18-.55c0,.23-.05.55.18.55ZM2.88,9c.14-.4-.07-.62-.19-1a1.84,1.84,0,0,0,.19,1Zm.92,1A8,8,0,0,0,3,7.53,17.11,17.11,0,0,0,3.8,10ZM2.68,7.7c-.08-.13-.05-.39-.18-.47,0,.2.11.64.18.47ZM2.81,7ZM2.57,7c-.13,0,0-.22-.17-.24-.06.17.09.5.17.24ZM.78,14.65c-.15-.44-.42-.81-.13-1.19.29-.06.31.36.74.37C3.63,12.05,2,8.33,2,5.65c-.21,2.83-2.48,6.67-1.26,9ZM2.1,5.09c0-.18.25-.54,0-.56-.2.18.06,1.51,0,.56Zm.42-1.7c.4.55.13,1.18.23,1.91A28.54,28.54,0,0,0,3.91,8.7c.75,2.54,1,5.08-.85,7a5.38,5.38,0,0,1-1.67.39,1.26,1.26,0,0,0-.82-.61c-1.64-3.09.77-6.69.83-9.87a6.9,6.9,0,0,1-.11-.87c.09-.56.73-.89.74-1.39.25-.07.24.13.49.06Z"/><path class="cls-1" d="M18.36,42.3c-.51-.08-.16.25,0,0Zm11.9-.45s0,0,0,0Zm-12.77.64c.25,0,.32-.11.39-.26-.25,0-.32.12-.39.26Zm-.87.11c.12,0,.59,0,.62-.34-.21,0-.81.05-.62.34Zm13.08-.81c.05.05,0,0,0,0Zm1.35-.21c.21.3.11-.27,0,0Zm-4.78.5a2.51,2.51,0,0,1-1.53-.42,1.12,1.12,0,0,0,1.53.42Zm-3.37-.27c.06,0,0,0,0,0Zm3.67-.22c-.18.27.26-.2,0,0Zm-10.13.7c-1,.24-2.55-.28-3.6-.19,1,.08,2.63.71,3.6.19Zm1-.44c.13-.08.39,0,.47-.18-.21,0-.47,0-.47.18Zm-1.6,0c.05.05,0,0,0,0Zm5.18-.27c.06,0,0,0,0,0Zm-.32,0c.06,0,0,0,0,0ZM19,41.63c.05,0,0,0,0,0Zm-.56,0c.13.26.19-.31,0,0Zm-2.15.16c.19.13.79.11.87-.11-.39.25-.67-.21-.87.11Zm6.86-.25c.2,0,.39,0,.48.06,0-.2-.15-.27-.25-.39,0,.16-.21.16-.23.33Zm9.09-.66Zm-6,.78c.09-.11.4-.69.21-.57,0,.17-.44.41-.21.57Zm-.74-.29c0-.21.23-.25.23-.49-.17,0-.37.42-.23.49Zm-7.84-.19c-.06,0-.16,0-.15.09s.15,0,.15-.09ZM24.47,41c.22,0,.15-.17.23-.25h-.24a1.93,1.93,0,0,1,0,.24Zm-.39.33a1,1,0,0,0-.34-.55.82.82,0,0,0,.34.55Zm-5-.29c.05,0,0,0,0,0Zm-2.88.11c.06,0,0,0,0,0Zm-4,.07ZM33,40.39c-.21.25.24-.23,0,0ZM19.13,41.55c.71,0,1.75-.42,1.49-.78-.36.38-1,.48-1.49.78Zm-1.77-.5a.21.21,0,0,0,.23-.16.22.22,0,0,0-.23.16Zm15.8-.75c.05.05,0,0,0,0Zm-7.39,1.24c.45,0,.29-.66.69-.75a.34.34,0,0,0-.17-.31c0,.48-.51.56-.52,1.06Zm-7.68-.27c.44,0,.84-.35.78-.51-.26.17-.68.19-.78.51Zm15.7-1.07c.22.3.11-.27,0,0Zm-6.54.24a.08.08,0,0,0-.16,0c.09,0,.13.11.16,0ZM25,41.33a1.12,1.12,0,0,0,.69-1c-.17.35-1,.42-.69,1Zm.94-.6c0-.21.33-.21.3-.49-.16.06-.38.46-.3.49Zm-1.37-.34ZM11.76,41c-.19,0-.16-.27-.41-.22,0,.17.34.4.41.22Zm14-.76Zm-5.27.2c.06,0,0,0,0,0ZM19.35,41c.11-.24.79-.34.54-.66-.11.23-.65.48-.54.66Zm-1.6,0c.25-.16.9-.35.78-.59-.19.21-.94.31-.78.59ZM11,40.73c.05.05,0,0,0,0ZM26.83,40c-.06,0-.16,0-.16.09s.16,0,.16-.09Zm-6.06.39c.11-.18.42-.18.46-.42-.22-.23-.61.32-.46.42ZM20.51,40c.06.05,0,0,0,0Zm-8,.38c-.23,0-.63-.16-.63.18a6.43,6.43,0,0,0,1.86.57,6.41,6.41,0,0,0,1-1.08,4.73,4.73,0,0,0-2.23.33Zm20.69-.7c-.37,0-.35-.46-.74-.45.14.21.46.66.74.45ZM32,39.31c.25.21-.22-.24,0,0Zm-20.6.77Zm-.16,0Zm9.64,1c.59-.35,1.45-.86,1.38-1.57-.39.54-1.33,1-1.38,1.57Zm-2.12-1a3.71,3.71,0,0,0,.54-.42c-.3,0-.58.38-.54.42Zm-3.85-.17c.11.31.09-.32,0,0Zm-.16-.08c-.06,0-.16,0-.16.09s.16,0,.16-.09Zm-.24,0c-.06,0-.16,0-.15.09s.15,0,.15-.09Zm8-.46Zm-7.19.19c-.76.15.34,0,0,0Zm11.42-.26c-.08-.15.23-.28,0-.32,0,0-.18.31,0,.32Zm.07-.41c.05,0,0,0,0,0Zm.53,1.26a2,2,0,0,0,.64.14,14.49,14.49,0,0,0,.75-1.47c-.68-.32-1,.89-1.39,1.33Zm3.77-1.58c.26.21-.22-.23,0,0Zm1.84-.15Zm-5.71,1.42c.21-.51.68-.77.83-1.31-.56.09-1.37.92-.83,1.31Zm-2.43-1c.16.14.4-.09.47-.26-.28,0-.41.08-.47.26Zm0-.24c-.12,0-.29,0-.32.09s.31.09.32-.09Zm-2.23.16ZM27,39.1c.06-.21.44-.51.29-.65-.06.2-.44.51-.29.65Zm-6.71.17c.38.24.84-.48.54-.58-.08.28-.38.36-.54.58Zm10.44-1Zm-11,.33c0,.05,0,0,0,0Zm3-.19c.1.31.08-.32,0,0Zm-2.88-.06c.1.32.08-.32,0,0Zm4.95-.18a.22.22,0,0,0,.23-.17.21.21,0,0,0-.23.17Zm-5.24,1a1.24,1.24,0,0,0,1.08-1.08,2.8,2.8,0,0,1-1.08,1.08Zm13.63-1c0-.16.19-.23.14-.48-.15,0-.16-.1-.24-.15a.51.51,0,0,0,.1.63Zm-4.25-.48c-.11.22-.26.38-.38.58a5.93,5.93,0,0,1,1.89,1.37,5.87,5.87,0,0,1-1.55-.75c-.22.62-.67,1-.9,1.64.26.07.35.32.65.13,1.18,1.06,3.53.21,4.21-.79-1.64-.37-2.24-1.86-3.92-2.18Zm-3.74.54c.2,0,.39,0,.39-.17-.21.06.05-.38-.17-.31l-.22.48Zm2.93-.59c0,.24-.17.26-.14.49a.53.53,0,0,1,.4.06c0-.28.24-.39.3-.65-.35-.1-.36.29-.56.1Zm-1.67.07Zm1,.36c.37,0,.42-.33.54-.58h-.32c.05.31-.19.34-.22.57Zm-.33-.39h.16a.92.92,0,0,1,0-.16h-.16a.81.81,0,0,0,0,.16Zm3.19,0c.14.21.47-.21.23-.33,0,.17-.15.22-.23.33Zm-7.33.68c.18-.12.55-.79.38-.74,0,.29-.57.5-.38.74Zm10.79-.25c.18-.23.48-.85.12-1.12.07.38-.21.83-.12,1.12Zm-12.9-.63c.06,0,0,0,0,0ZM30,37.3c.23,0,.29-.19.39-.33-.24,0-.29.19-.39.33Zm-8.43,1.2c.13-.47.77-.88.75-1.23-.19.41-1,.65-.75,1.23Zm9.22-1.39c.24.22.29-.18.47-.25a.8.8,0,0,0-.47.25Zm1.42-.53c-.19,0-.17.15-.4.1-.13.59-1.17.74-1.07,1.31a.46.46,0,0,1,.25.08,7.29,7.29,0,0,1,1.22-1.49Zm.57.38a.68.68,0,0,1,.49.06c.06-.2.1-.52-.18-.55,0,.24-.3.23-.31.49Zm-3.92-.17c.07-.28-.61-.17-.64-.06.3-.07.38.08.64.06Zm-1,0c.05.06,0,0,0,0Zm6-.06a.55.55,0,0,0-.33-.47c.07.2.09.46.33.47ZM16.52,38c-.72-.25-1.5,1-1.78,1.42a3,3,0,0,0,1.88-1c.63-.58,1-.82.58-1.62A1.44,1.44,0,0,0,16.52,38Zm14.56.25c.42,0,.74.48,1.05.28-.17,0-.25,0-.25-.23a.52.52,0,0,0,.4-.09c-.1-.33.19-.69,0-.8-.23.24-.3.64-.69.74.25-.85,1-1.24,1.36-2a16.72,16.72,0,0,0-1.92,2.07ZM16.72,41c.18,0,1.07-.6.46-.5.38-.49,1.25-.53,1.39-1.25,1.12-.53,1.49-1.75,2.22-2.64-1.72,1.64-3.66,3.08-5.51,4.6.69-.13,1.09-.53,1.82-.63l-.38.42Zm4.14-4.55c.06,0,0,0,0,0Zm-.25-.24c.11.32.08-.31,0,0Zm6.54-.64c-.32.46.14.22,0,0ZM21,37.32A2.07,2.07,0,0,0,22,35.76,11.55,11.55,0,0,1,21,37.32Zm6.32-1.83c.06,0,0,0,0,0ZM24,35.61Zm-1.77-.17c.06.05,0,0,0,0Zm-1.75,2.3c.49-.86,1.55-1.6,1.67-2.54-.47.88-1.42,1.72-1.67,2.54Zm7.21-1.87c.43-.16.47-.69.76-1-.56,0-.47.7-.76,1Zm-5.38-.68c0,.05,0,0,0,0Zm-1,4.28c.58-.06.95-.76,1.31-1.25a7.84,7.84,0,0,0,1.65-2.78c.2,0,.31-.48.22-.49-.86,1.45-2.33,2.82-3.18,4.52Zm6.9-3.54a3.13,3.13,0,0,0,.6-1.14c-.17.36-.74.75-.6,1.14Zm-3.24-1Zm1.54.58c.45,0,.91-.83.69-1a2.3,2.3,0,0,0-.69,1Zm-3.71-.9c-.06,0-.15,0-.15.09s.15,0,.15-.09Zm1.2,0c0-.11.13-.14.15-.25-.16-.06-.35.22-.15.25Zm3.53.35a2.23,2.23,0,0,0,.69-.83c-.57-.09-.75.59-.69.83Zm.79-.43c.5-.16.83-.08.93-.68-.48.07-.93.16-.93.68ZM22,37.28a23.19,23.19,0,0,0,2.62-2.81c.11.19-.23.34,0,.4a5.17,5.17,0,0,0,.29-.81A10.3,10.3,0,0,0,22,37.28Zm-3.73.7a6.52,6.52,0,0,0,1.13-1.8c-.47.59-1.15,1-1.62,1.58.16,1.11-1.29.74-1.62,1.42.29.07.78-.07.81.29a6.64,6.64,0,0,0-1.2,0c-.27.18.05.3-.07.41a3,3,0,0,0-1.63,1.34c.09-.12.48.15.73.13C17.4,39.19,20.4,37,21.73,34c-1.39,1.1-2.2,2.74-3.45,4ZM29.56,33.8c.08.26-.38.42-.14.57.46-.14,1.59-.27,1.84.09a7.31,7.31,0,0,0-1.68.06c-.08.22-.08.86-.52,1,0-.43.18-.6.29-.89A2.66,2.66,0,0,0,28.6,36c2.41.74,5.07,0,5.43-2.45.08,0,.06-.1-.09-.07a29.84,29.84,0,0,1-4.38.32Zm-3,.51c.54.12.39-.65.21-.64,0,.31-.27.3-.21.64Zm.53-.74c-.18.28.26-.2,0,0Zm-4.23.16c.05.05,0,0,0,0Zm-5.27,2.44c.27-.37.51-.86.83-1.31s.87-.8.68-1.15c-.37.89-2.08,1.19-1.51,2.46Zm10.05-2.86c-.06,0-.16,0-.16.09s.16,0,.16-.09Zm-4.71.26Zm7.19-.35c0,.05,0,0,0,0Zm-.16,0c0,.05,0,0,0,0Zm-2.16,0Zm-6.93,2.9c.72-.78,1.73-1.69,1.73-2.87-.42,1.05-1.49,1.91-1.73,2.87Zm13.79-3.32c.1.31.08-.32,0,0Zm-3.83.31c.32.5,1,.16,1.76.09a.34.34,0,0,1-.07.24,8.76,8.76,0,0,0,1.68-.14c0-.23-.12-.2-.1-.4-.82.27-2.5-.45-3.27.21ZM27,33.26c.15-.07.64-.23.38-.41-.2,0-.53.57-.38.41Zm1.43-.21c.07-.08.54-.39.31-.26-.19,0-.54.15-.31.26Zm1.43-.38c.05,0,0,0,0,0ZM28,32.74Zm-1.37-.27Zm7-.18c-.86.17,1,0,.63-.26a1.9,1.9,0,0,1-.63.26Zm-6.23.32c.26,0,.22-.21.31-.34a.31.31,0,0,0-.31.34Zm-4.23,0c.17.29-.05.47-.14.73.28-.1.42-.75.37-.89a.21.21,0,0,1-.23.16Zm6.94-.42c.25.21-.23-.23,0,0Zm-1.28.13c.19,0,.34-.09.39-.25-.25,0-.32.11-.39.25ZM18,36.71c.26-.56.92-1.15,1-1.63-.44.54-1,1-1.46,1.49.21.14,0,.74.27.79a13.42,13.42,0,0,0,4.12-5.11c-1.55,1.21-2.71,3.18-3.91,4.46ZM29.25,32c.05.06,0,0,0,0Zm.55-.26c-.06,0-.16,0-.16.09s.16,0,.16-.09Zm-1,.12a.74.74,0,0,0,.46-.25.37.37,0,0,0-.46.25Zm-1.21-.27c.29.09-.18.49.1.55a.92.92,0,0,0,.29-.73c-.2,0-.39,0-.39.18ZM18.49,35.1c0,.08-.06.09-.07.16s.1.06.08-.08c.56-.38.88-1,1.47-1.34.32-.78,1.1-1.54,1.27-2.21a19.81,19.81,0,0,0-2.75,3.47Zm9.79-3.33c.12-.17.43-.17.38-.49l-.47,0c.1.26-.05.34.09.47Zm-4.53.65a4.76,4.76,0,0,0,1-1.4,3.72,3.72,0,0,0-1,1.4Zm-.46-1.66a4.53,4.53,0,0,1-1,1.95c-.05-.35.37-.68.21-.88-.48.84-1,1.63-1.51,2.45a7.52,7.52,0,0,0,2.89-4.1,1.73,1.73,0,0,1-.62.58Zm1-.92c.06.36.44-.47.08-.08,0,0-.09,0-.08.08Zm.39-.41c-.21.25.23-.23,0,0Zm-9,2a1.37,1.37,0,0,0,.57-1.78c-.56.42-.63.9-.57,1.78ZM21,32.84c1-1.09,2.41-2.28,2.73-3.78A14.34,14.34,0,0,0,21,32.84Zm5.91-4.29c-.12.31-.57.5-.36.89a17.5,17.5,0,0,0-3.12,4.27,2.65,2.65,0,0,1,1.24-.92c-.52.64-1.22,1.12-1.77,1.74.62.09-.41.85-.12,1.13,1-1.2,2-2.82,3-3.79a16.34,16.34,0,0,1-1.59,2.45c.37,0,.49-.52.87-.35.56-1.77,1.73-3.79,1.87-5.42ZM23.66,30a2.18,2.18,0,0,0,1-1.72c-.33.56-.62,1.17-1,1.72Zm1.13-1.89Zm-9.33.83c0,.37,0,.75,0,1.12a1.22,1.22,0,0,0,.58-1.78,1.33,1.33,0,0,1-.62.66Zm9.23-1.3c0,.05,0,0,0,0Zm-8.24,2c-.05.36.24.62,0,.88,1-.65,1.37-1.94,1.89-2.87-.56.74-1.38,1.24-1.92,2Zm7.32-.91A3.14,3.14,0,0,0,24.51,27c-.15.58-.7,1.2-.74,1.62Zm-.38-1.5c.06.05,0,0,0,0Zm-7,3.94s.18.36.18.47a1,1,0,0,1-.13.72c-.13-.37,0-.76-.2-1.19-.12.3-.49.37-.54.74.23.44.08,1,.13,1.28,1.86-1.35,3-3.78,4.34-5.92a4.94,4.94,0,0,0-1.76,2.3c-.22.43-.47,1.16-1,1.16.3-.64,1-1.35,1-2-.48.93-1.87,1.36-2.07,2.4ZM24.58,27c.06.05,0,0,0,0Zm.48-.1c.06,0,0,0,0,0Zm-4.29,5a15,15,0,0,0,3.33-5A5.16,5.16,0,0,0,23.34,28c-.15,0-.18-.09-.32-.07-.7,1.3-1.7,2.74-2.25,3.92Zm-5.24-3.16c.29-.35.89-.82.51-1.54a1.18,1.18,0,0,0-.51,1.54Zm9.13-1.94c.12.26.18-.32,0,0ZM20.11,27c-.05-.11.3-.21.07-.24,0,.08-.34.17-.07.24Zm4.77-.58c-.21.25.24-.23,0,0ZM19.14,31c-.28.42-.78,1.59-1.24,1.17a7.38,7.38,0,0,0,2-2.95c-.81.87-1.95,2.23-2.92,3.22-.6.62-1.4,1-.72,2,2.44-2.46,5.15-5.09,6.49-8.32A26.69,26.69,0,0,0,19.14,31Zm3.73-5c-.21.25.23-.23,0,0Zm2.17.24c-.07-.2.34-.35.06-.49,0,.13-.29.39-.06.49Zm-8.58,1.44c.2-.45.86-1.17.65-1.63-.34.37-.9,1-.65,1.63Zm1.33,1.55a13.18,13.18,0,0,0,2.67-3.62,11.41,11.41,0,0,0-2.67,3.62Zm4-4c.11.31.08-.32,0,0Zm-6.37.72c.15.5-.08.75,0,1.44.9-.29.92-1.46.72-2.11-.2.25-.49.42-.7.67Zm9.62,2.67c.8-.77,1.39-2.15,2.13-2.71-.13.31-.21.67-.53.81-.06.33.25.24.19.56a12.28,12.28,0,0,0-1.47,1.41c.26.13-.2.22-.06.48-.32.43-1.06,1.44-1,1.72.25.07.55-.35.78-.59,1.4-1.51,2.89-3.27,2.67-5.54-1.11,1.17-2.49,2.32-2.73,3.86Zm-6.57,1.77a20.05,20.05,0,0,0,4.19-5.51c-2,1.32-2.85,3.62-4.19,5.51Zm7-5.7c.05.05,0,0,0,0Zm-2.8.11c.06.05,0,0,0,0Zm1.9-.64c-.26.46-1.15.91-1.21,2a14.6,14.6,0,0,0-2.26,3.52,13.44,13.44,0,0,0,3.47-5.49Zm-8.94.34c-.39.49.14-.18,0,0Zm10,0c0-.24.28-.27.22-.57-.26,0-.29.54-.22.57Zm-9.07,1.05c.17-.43.69-.94.67-1.3-.23.38-1,.7-.67,1.3Zm9.35,0c.2-.64.91-1.21,1-1.71a4.1,4.1,0,0,0-1,1.71Zm-8.46,2.64a.42.42,0,0,1-.24-.23c.34-.53.62-1.12,1-1.64-.72.86-2.08,1.19-1.65,2.7a10.79,10.79,0,0,0,3.89-4.94,13.42,13.42,0,0,1-1.7,1.58c0,.93-1,1.56-1.27,2.53Zm9.82-4.69c-.39.13-.11.39,0,0Zm-1.83.15a10.38,10.38,0,0,0-1.33,2.93,6.42,6.42,0,0,0,1.33-2.93Zm-9.85,1.81c.42-.21,1-1.08.59-1.54-.1.55-.73,1-.59,1.54Zm4.69,1.18a7.29,7.29,0,0,0,2.12-3,13.07,13.07,0,0,0-2.12,3Zm1.68.1c.76-1,2-2,2.11-3.36a19.86,19.86,0,0,0-2.11,3.36Zm-5.45-2.51c.34-.14.39-.56.61-.83l-.56,0a2.34,2.34,0,0,0-.05.8Zm-.89-.13a4.84,4.84,0,0,0,.62-.66l-.64,0c-.08.09-.14.58,0,.64Zm10-1c.05.06,0,0,0,0Zm-8,1c0-.33-.15,0,0,.09-.15.88-1.25,1.46-1,2.19a8.22,8.22,0,0,0,2.2-3.12c-.52-.1-.86.51-1.17.84ZM17.2,24c.13-.19.64-.42.45-.66.05.23-.44,0-.39.18.28.1-.32.41-.06.48Zm1.6.1c.22-.31.49-.57.68-.9a.82.82,0,0,0-.68.9Zm5.88-1c0-.09.13-.19,0-.24,0,.1-.14.19,0,.24Zm-5.87,1.42a5.92,5.92,0,0,0-1.74,2.62c.95-1.12,2.24-1.93,2.67-3.53.49,0,.11.54,0,.71A3,3,0,0,0,21,22.93c-1.22-.05-1.52.78-2.19,1.52ZM26,23.86c.13-.25.43-1.11.19-1.2-.07.37-.6.86-.19,1.2Zm-.46,2.74c.73-.46,1.44-1.64,2.16-2.16.11,0,.14.12.24.15A8.25,8.25,0,0,0,28,22.43c-.05.49-.67.45-.68,1,.15.07.26-.25.32,0a20.18,20.18,0,0,0-2.12,3.2Zm-1.06-2.68a3.54,3.54,0,0,0,.83-1.39,3.72,3.72,0,0,0-.83,1.39Zm-2.18-.48a2.88,2.88,0,0,1,.54-.74c-2-.23-2.07,2.09-3,3.15a9.66,9.66,0,0,0,1.47-1.33c.36-.51.39-1.26.9-1.56.14.18,0,.44.09.48Zm1-.84c-.23,1-1.17,1.69-1.26,2.53a6.43,6.43,0,0,0,1.9-2.63c-.3-.05-.34.15-.64.1Zm3-.27c-.06,0-.16,0-.16.09s.16,0,.16-.09Zm-2.13.72a4.54,4.54,0,0,0,.37-.73c-.27.06-.45.6-.37.73Zm1.34-.37c.4-.13.49-.52.69-.83l-.56,0a1.69,1.69,0,0,1-.13.81ZM28.08,22c.1-.85-.66-.7-1.45-.19,0,.53-.26.81-.11,1.28.26-.43.57-1.21,1.07-1.16a14.37,14.37,0,0,0-1.43,2.3c.33-.58,1.81-1.4,1.92-2.23Zm-12.6,1.11c.25,0,.59-.08.73.05a9.88,9.88,0,0,0,.09-1.84c-.39,0-.53.16-.8,0a10.21,10.21,0,0,0,0,1.76Zm.17-2c.19-.15.31,0,.64-.1,0-.11,0-.22,0-.32a.94.94,0,0,1-.72,0c0,.12-.07.42.1.4Zm8.09.34c-.22.15-.48.66-.21.8,0-.17.39,0,.55-.1a24.92,24.92,0,0,0,1.17-3c-.3,0-.45-.17-.73-.21-.19.9-.67,1.77-.78,2.51Zm-3.19-6.12c-.26-.74.81-2,.31-2.49.32-.12.28-.11.3-.49-.26,0-.24.16-.4,0a4.48,4.48,0,0,1-.56,2.26c-.28-.38.39-1,0-1.27.47,0,.25-.69.52-.9-1.13.14-2.53.52-3.73.62.12,3.08-.27,5.86-.35,7.93.91,0,1.83,0,2.06-.64-.26-.27-.74.2-1-.05.27-.57,1.57-.39,1.53.35a4.5,4.5,0,0,1-2.7.58c.14.7-.15,1.38.07,1.91a56.76,56.76,0,0,0,6.45-.88,19.72,19.72,0,0,0,1.15-3.48c-.15,0-.18-.08-.33-.07-.33.88-.7,1.68-1,2.44-.09.21.1.7-.38.65.2-1.17.77-2,1-3.15-.95.19-.5,1.7-1.28,2,.14-.77.5-1.34.64-2.11-.84-.33-.44.83-1,.84,0-.4.24-.6.29-1a3.16,3.16,0,0,0-1.44.13c-.59-.64-2.17.26-2.81-.37a13.68,13.68,0,0,1,3.44-.05c.14-1.68,1.22-3,1.35-4.45a2.74,2.74,0,0,1,.2-1c.44.2.12.83,0,1.11-.38,1.41-1,2.82-1.35,4.37.28.05.29,0,.64.06.13-.29.11-.72.36-.9A12,12,0,0,1,23,15.34c.1-.46,0-1.19.51-1.3-.16,1.5-.85,2.9-1,4.19H23a13.73,13.73,0,0,1,1.14-3.72,28.37,28.37,0,0,1-.9,3.79c.15,0,.18.08.32.07.49-.56.16-1.86,1.05-2a12,12,0,0,0-.65,2c.76.33.54-1.22,1.16-1a3.33,3.33,0,0,0-.43,1.21c.18.14.6,0,.8.13,0-.15,0-.34.23-.32,0,.15.07.16.16.07-.22.29,0,.28,0,.64-.07.16-.41.08-.39.33-.23.79-.95,2-.86,2.51.37-.5.41-1.72,1-1.79-.09.54-.49,1.18-.42,1.61.26-.06.57-.61,1-.75.12.19.3.34.42.54.35-.36.77-.65.67-1.23.22.11.32.33.58.38a23.79,23.79,0,0,0-5.38-9.23,2.66,2.66,0,0,1-.94.6c0,.57-.6,1.34.06,1.59.21-.39.1-1.09.51-1.3a12.28,12.28,0,0,1-1.36,4.37c.14-1.06.57-1.83.78-2.83-.22.06-.39-.34-.49-.14a3.59,3.59,0,0,1-.5,1.54Zm1-3.95c0,.27-.31.27-.38.49.37,0,1.18-.42.77-.67.07.41-.16.13-.39.18Zm-5.95,1.26a3.67,3.67,0,0,1,1,0,2.11,2.11,0,0,0-.2-1.27c-.32.15-.48-.1-.89,0,0,.53.11.93.05,1.28Zm-.71-1.89c.06.05,0,0,0,0ZM15,10.6c.1.31.08-.32,0,0Zm-.4,0Zm-4.79.25c.15,0,.34,0,.31-.25-.21,0-.34.05-.31.25Zm7,.46c-.06.28.08.79.05,1.28,1.88-.33,4.16,0,4.25-1.92a12.51,12.51,0,0,0-1.62-.5c-.27,1-1.6.93-2.68,1.14ZM16.17,35.1c-.21.23-.07-.11-.24-.15a13,13,0,0,1-2,2c.47-1.18,2.49-1.57,1.79-3.35a12.87,12.87,0,0,1-2.39,2.33c.79-.86,1.64-1.66,2.38-2.57a9.91,9.91,0,0,0-.13-1.27C14.69,32.5,13.85,34,13,34.5c.66-1.36,2.85-2.06,2.33-4-.77.89-1.6,1.74-2.46,2.57-.24.38-.46,1.14-1,1,.83-.7,1.91-2.29,2.76-3.14.49-.49.94-.76.5-1.7-1.08,1.08-2.08,2.24-3.16,3.32A21.83,21.83,0,0,1,15.23,29a3.38,3.38,0,0,0-.12-.95,32.39,32.39,0,0,0-2.86,2.58,13.14,13.14,0,0,1,2.85-2.82,8.42,8.42,0,0,0,0-1.68,44.4,44.4,0,0,1-4.33,4c1.45-1.43,2.84-2.91,4.4-4.25-.06-.29.07-.79-.12-.95-1.38,1.41-3.39,2.65-4.73,3.85a10.57,10.57,0,0,1,2.4-2.16c.86-.67,2-1.34,2.32-2.09-.13.28.25-1,.12-1a17.78,17.78,0,0,1-1.92-.09c-1,1.36-3.23,2.7-4.58,3.77,1.18-1.5,3.05-2.37,4.34-3.76-.23-.14-.75,0-1-.13-1,1.47-3.21,2.21-4.35,3.29A6,6,0,0,1,9.56,25a22.49,22.49,0,0,0,2.18-1.52,1.8,1.8,0,0,0-1-.29c-.51.94-2,1.4-2.64,1.94.53-.85,1.69-1.15,2.48-1.93-1.78,0-3-.51-4.58-.55-.25-.34-1.45-.44-.92-1.09l.5.47a42.74,42.74,0,0,0,9.55,1.08c-.11-.67.12-1.28,0-1.68-.53-.2-2,.15-2.26-.56.68.07,1.68.44,2.32.08,0-.48-.72-.17-.74-.62.19-.17.51,0,.72.06.39-2.14-.14-4.71.49-6.34.07,1.94-.3,4.11,0,6.32.15.11.43-.32.63-.42a49.82,49.82,0,0,0,.29-7,24.92,24.92,0,0,0-2.79.1c-.91-.44-2.79-.17-3.16-1.08a19.57,19.57,0,0,0,4.83.7,6.9,6.9,0,0,1-.38-1.34A4.93,4.93,0,0,1,12,10.39c-1.05.2-2.15,1.07-2.91,1.15a26,26,0,0,0-3.65,5.1A13.77,13.77,0,0,0,3.74,21.1a13.1,13.1,0,0,0,.83,5.16,65.87,65.87,0,0,0,5.61,13.22c.34-.22.33.21.57.3a8.65,8.65,0,0,1,3.35-.2,28.41,28.41,0,0,0,2.23-2.41c.38-.37,1.35-.69.67-1.46a15.46,15.46,0,0,1-2.71,2.42c.94-.92,1.9-1.83,2.77-2.82-.13-.13-.2-.85.05-.88.09.25,0,.51.27.71A16.36,16.36,0,0,0,22,28.89a22.36,22.36,0,0,0-3.21,4c-.33.48-.55,1.08-1.07,1.39.37-.92,1.28-1.73,1.51-2.53-.95,1.16-2.6,2-3.08,3.39ZM18,10.17c.23,0,.29-.19.39-.33-.24,0-.29.19-.39.33Zm-6.17-.33c-.18.28.26-.2,0,0Zm6.62-.57c.1.32.08-.31,0,0Zm.14-.48c.23.12.21-.35.07-.32a.44.44,0,0,1-.07.32Zm-2-1.85c0-.24.75-.21.46-.49a1.49,1.49,0,0,1-1.44-.19c-.34.43-.65,0-1.36,0,.17,1.19-1.21,1.44-1.35,2.45a3.35,3.35,0,0,0,.3,1.59,6.48,6.48,0,0,0,4.69-.74,10.94,10.94,0,0,1-4.38.65,18.45,18.45,0,0,0,4.6-1c0-.25.16-.32.22-.49a11.65,11.65,0,0,1-3,.75c-.26,0-.67.49-.8-.05a10.94,10.94,0,0,0,3.8-1.1c-.22,0,.19-.31-.09-.32a8.61,8.61,0,0,1-3.32,1c.95-.61,2.51-.65,3.3-1.41-.88.21-1.72.88-2.61.82.6-.62,2-.53,2.35-1.37-.49,0-1.19.83-1.73.79,0-.53,1.08-.54,1-.92-.12.13-.56.4-.64.1Zm-.64-2.21c.05,0,0,0,0,0Zm2.71-.18c.05,0,0,0,0,0ZM17,4.61c.06,0,0,0,0,0Zm5.25-.67c.06.05,0,0,0,0Zm-1.6-.26c-.61.28.25-.12,0,0Zm-4,.54a1.9,1.9,0,0,0,.7-.5,1.58,1.58,0,0,0-.7.5ZM15,4.2c.29,0,.57-.34.46-.41-.1.18-.39.2-.46.41Zm5.73-.61Zm-3.35.05Zm-1.6.06Zm-.16,0c.1.31.08-.32,0,0ZM21,3.42c.05.05,0,0,0,0Zm0,.32c.17-.15.86-.22.62-.5-.05.18-.7.28-.62.5Zm1.26-.53s0,0,0,0Zm-.48,0A.21.21,0,0,0,22,3.06c-.12,0-.28,0-.23.17Zm-.48-.06Zm-5.11.19c0,.05,0,0,0,0Zm6.22-.23A.22.22,0,0,0,22.65,3a.23.23,0,0,0-.24.17Zm-1,0c.06,0,0,0,0,0Zm-3.82.47c0-.23.58-.29.3-.49-.12.09-.51.33-.3.49Zm-1.89.63c.68-.13,1.64-.78,1.56-1.1a5.22,5.22,0,0,0-1.56,1.1Zm.6-.9a.23.23,0,0,0,.24-.17.22.22,0,0,0-.24.17Zm-2.12,1A14,14,0,0,0,16,3.05a7.11,7.11,0,0,0-1.8,1.18Zm3,0c1.06.2,1.65-.84,2.42-1.37A4.55,4.55,0,0,0,17.18,4.2ZM3.56,3.51c.1.32.08-.32,0,0ZM12.93,4c.77-.13,1-.74,1.64-1,0,.08.07.09.09.16-.19.47-.83.51-1,1A5.11,5.11,0,0,0,15.29,3a2.13,2.13,0,0,0-2.36,1ZM3.79,3.35c.06,0,0,0,0,0Zm2-.16c0,.05,0,0,0,0ZM4,3.26Zm8.57.48a14.83,14.83,0,0,0,1.32-1c-.54-.21-1.21.62-1.32,1ZM4.19,3.17c.15.21.64-.17.47-.26-.06.18-.41.09-.47.26Zm4.22-.48c-.1,0-.23,0-.24.09s.23,0,.24-.09Zm3.46.67c.38.27,1.14-.62,1.16-.92-.54.16-.8.59-1.16.92ZM5.14,3c.34,0,.43-.26.62-.42A.62.62,0,0,0,5.14,3Zm6.16.17c.53.12.82-.54,1.17-.84-.61-.15-.84.5-1.17.84ZM23.4,1.73c.06.05,0,0,0,0ZM6.08,2.62c.31,0,.36-.18.47-.34-.25,0-.47.08-.47.34Zm4.65.31c.61-.06.73-.56,1.09-.84-.27.07-.61-.22-.8,0,.33.33-.55.52-.29.81ZM10,2.55c.38.32.72-.22.86-.59-.15,0-.18-.08-.32-.07a1.47,1.47,0,0,1-.54.66Zm-3.12,0c.39,0,.55-.32.78-.51a.78.78,0,0,0-.78.51Zm2.56-.1c.27.12.61-.28.69-.58a.5.5,0,0,1-.4,0c0,.32-.33.26-.29.57Zm-1.53-.1a.6.6,0,0,0,.55-.42c-.4-.06-.38.27-.55.42Zm.72,0c.5.06.59-.27.78-.5-.18,0-.3-.12-.56-.06.1.34-.26.27-.22.56ZM23.22,1.1c.1.31.08-.32,0,0ZM23.13.78c.16.26-.25-.38,0,0ZM19.65,4c1.06-.48,1.93-1.55,2.88-1.87-.12.35-.78.61-.76.83.5-.23,1.29-.81.82-1.47-.92.9-2,1.61-2.94,2.51ZM22.32.73c-.22.18-.43.67-.6.82,0,0,0-.15.07-.16-.43.11-.76.69-1.16,1A9.65,9.65,0,0,0,18.69,4c0-.12.4.06.64,0a12.53,12.53,0,0,1,3.42-2.6A.94.94,0,0,0,22.16.5c-.35,0-.63.75-.79.27,0,.32-.27.72-.21.81.35-.27.65-1,1.16-.85ZM10.72.45A10.4,10.4,0,0,0,3.23,3.13c2.62-.93,4.55-2,7.37-1.64,1.24.17,2.3.76,3.4,1,2.32.5,6.05.74,7.06-1.46-.15,0,0-.13-.09-.16C17.66,2.1,13.9.6,10.72.45ZM24,3.63a11.43,11.43,0,0,1-4.59,1.29c-.12,0-.43-.1-.56-.06-.57.19-.66.85-1.07,1.16a5.69,5.69,0,0,1,1.95,3.05,6.6,6.6,0,0,0,2.52,1.18,22,22,0,0,1,5.55,7.23,16.83,16.83,0,0,1,.95,2c1,3.75-.26,7.78-1.41,11.33a2.42,2.42,0,0,1,3.42,1.71A24.16,24.16,0,0,0,35,31.36a2,2,0,0,1,.44,1,1.27,1.27,0,0,1-.47.34c-.06,1.1-.94,1.89-1.48,2.93a5.46,5.46,0,0,0,1,.93c-.13,1,0,2.32-1.35,2.53.44.47,1,.47,1.4,1.06A6,6,0,0,1,28.9,42c-.67-.23-1.17-.73-1.79-1a4.07,4.07,0,0,1,.22,1.51c-1.39.3-3.06.19-3.55-.75-.22.41-.65.51-.93.68-.35-.05-.38-.43-.51-.7a4,4,0,0,1-2.06.55,34.42,34.42,0,0,1-3.73.7,37.59,37.59,0,0,1-4.67-.78A16.09,16.09,0,0,0,10.4,41,97.54,97.54,0,0,1,5,30c-.5-1.3-1.1-2.64-1.51-3.94A13.33,13.33,0,0,1,3,23.44a8.85,8.85,0,0,1,.55-4.34A18.45,18.45,0,0,1,5.5,14.87c.43-.64.82-1.32,1.21-1.88.2-.28.6-.44.85-.75s.28-.64.45-.82.59-.35.86-.59.5-.62.69-.75c.8-.5,1.64-.45,2.45-.89A4.29,4.29,0,0,1,13.59,6.5c.18-.14-.11-.72.29-.65a3.32,3.32,0,0,1-1-1.33c-.26.11-.68-.09-1-.2a16.3,16.3,0,0,0-3-1.17c-2.35-.31-3.75,1.1-5.46,1.41-.35-.43-.91-1.07-.71-1.81A13,13,0,0,1,10.79.05c2.42.12,5.1,1.13,8.18.81,1.24-.13,3.6-1.11,4.21-.8,1,.52.57,2.6.77,3.57Z"/></g></g></svg>