<svg xmlns="http://www.w3.org/2000/svg" viewBox="0 0 30.3 43.9"><defs><style>.cls-1{fill:#44341f;fill-rule:evenodd;}</style></defs><title>faceldpi</title><g id="Layer_2" data-name="Layer 2"><g id="img"><path class="cls-1" d="M24.61,30.2a8.15,8.15,0,0,1-2.41,1.09c-.72.08-1.46-.36-2.21-.33-.58,0-.84.32-1.41.44.14-2,4.14.17,4.83-1.64a1.7,1.7,0,0,1,1.2.44Z"/><path class="cls-1" d="M18,32.44a30.43,30.43,0,0,1-2.35,3.13c-.23.33-.31,1-.83,1a32,32,0,0,1,2.94-4.18c.13,0,.14.08.24.08Z"/><path class="cls-1" d="M18.55,33.05c-.7,1.38-2.31,2.31-2.65,3.69,0-.15.27.09.48,0,.71-1.34,1.76-2.36,2.57-3.61-.19,0-.22-.26-.4-.31s0,.18,0,.24Zm1,2.88a13.09,13.09,0,0,1,1.74-2.41c-.38.18-.9-.06-1.18,0-.73.48-1.05,1.35-1.76,1.86-.26.43-.25.82-.76.88a12.8,12.8,0,0,1,2-2.81c0-.11-.23,0-.24-.15a20.37,20.37,0,0,0-2.65,3.38c.65.13,1.3-.4,2-.45-.36.7-2,1-3,.71-.17,0-.25.08-.23.25-.13-.22-.53-.14-.56-.46.18,0,.22-.14.47-.09a27.8,27.8,0,0,1,3.11-4,8.66,8.66,0,0,0,3.24.69,12.11,12.11,0,0,1-2.28,2.66Z"/><path class="cls-1" d="M20.53,33.62c-.18.9-1.21,1.66-1.73,2.49-.31-.46.37-.89.67-1.28s.59-1,1.06-1.21Z"/><path class="cls-1" d="M18.75,37.14a1.36,1.36,0,0,1,1,.83c-2.21.47-4.52.83-6.53,0-.44,0-.85.39-1.18.27-.23-.51.55-.69.76-1,1.71.88,4.39,1.32,6-.09Z"/><path class="cls-1" d="M17.78,39.13c-.28.67-1.23.72-1.69,1.23-.28.07-.5-.33-.64-.14a1,1,0,0,0-.57-.69c.36-.5,2.06-.43,2.9-.4Z"/><path class="cls-1" d="M14.81,42.6c.32-.29,1-.92.83-1.21a14.38,14.38,0,0,1-.83,1.21Zm-.47-.22c.38.06.62-.62.83-1-.57.05-.67.54-.83,1Zm.36-1c-.33-.17-.94.68-.69.81.17-.33.45-.78.69-.81Zm-1.09.58c.07-.37.45-.44.53-.8a.36.36,0,0,1-.24-.07c-.07.27-.62.7-.29.87Zm-.56-.37c.37,0,.33-.46.53-.65-.34.06-.39.4-.53.65Zm4,1.3a.63.63,0,0,0,.62-.57c.36-.38,1.23-1.31,1.13-1.61-.56.75-1.14,1.48-1.75,2.18Zm-4.37-1.53c.28-.12.32-.46.53-.64-.41,0-.38.4-.53.64Zm6.43-.81Zm-6.67.58a1.17,1.17,0,0,1,.37-.64c-.27-.24-.75.51-.37.64Zm-.64-.37a.69.69,0,0,0,.53-.65c-.1,0-.11-.09-.24-.07,0,.33-.29.39-.29.72Zm-.24-.23c0-.31.57-.69.21-.79,0,.34-.64.56-.21.79Zm-.56-.3a1.51,1.51,0,0,0,.6-.88.43.43,0,0,1-.24-.07c0,.41-.38.5-.36.95ZM20.6,38.5s0,0,0,0Zm-8-1.58c.06,0,0,0,0,0Zm7.52,4.27c1.76-1.66,3.88-3.38,4.56-5.8-1.34,2.06-3.17,4-4.56,5.8ZM19,41.93a25.24,25.24,0,0,0,2-2.19,49.81,49.81,0,0,0,3.63-4.82c.22-.31.64-.63.52-1-2,2.71-4.31,5.46-6.14,8ZM8.47,35.31c-.34.52-1.11,1.12-.66,1.67.54-1.1,1.45-2.25,1.87-3.2,0-.09-.09-.12-.16-.16a18.24,18.24,0,0,1-1,1.69Zm.34-1.82c-.45.93-1.43,1.75-1.49,2.79a10.33,10.33,0,0,0,1.81-2.72c-.15,0-.18-.09-.32-.07Zm3.93-.19c-.86,1.29-2,2.8-2.79,4.17-.25.4-.82,1-.44,1.43.85-2.14,2.66-3.77,3.46-5.69,0,.09-.12.09-.23.09Zm-6,1.11a11.91,11.91,0,0,1,.82-1.59.43.43,0,0,1-.24-.08c-.27.45-1,1.3-.58,1.67Zm-.26-1c.27-.41.77-.77.51-1.2-.08.49-.47.68-.51,1.2Zm-.26-.7c.4,0,.64-.69.37-.8a6.51,6.51,0,0,0-.37.8Zm18.32-.37c.24-.1.22-.06.32.15a14.13,14.13,0,0,1-1.6,1.93c-.54,1.23-1.81,2.16-2.1,3.36,1-1.59,2.22-3,3.25-4.57.3-.4,1.05-.8,1-1.29a.47.47,0,0,1-.15.24c-.18-.29.14-.78-.26-.94a1.93,1.93,0,0,1-.44,1.12ZM13,36.36a2.82,2.82,0,0,1,.79,0c.52-.73,1-1.59,1.66-2.48s2.12-2,1.72-3.2c-1.35,1.91-2.77,3.76-4.17,5.63ZM6.61,30.87H6.45v-.16c-.31,0-.06.46-.3.48a.82.82,0,0,1-.43-1.09c-.3-.17-.43-.51-.73-.68-1.43-.13-1.87,1.47-1.58,2.32.47,1.39,1.66,3.23,2.77,3.31-.24-1,.13-2.07-.24-2.67.47-.44-.08-1.18.67-1.52Zm19.21-2.2c-.11,1.23,0,2.28-.2,3.94-.23-.09-.26,0-.39.09a13.07,13.07,0,0,0-1.89,2.57c-.31.43-.66.85-1,1.29s-.59,1-.9,1.36c-.06.08-.27,0-.32.09-.31.34-.45,1-.74,1.36-.11.13-.31.14-.39.25s-.15.51-.29.71a28.54,28.54,0,0,0-2,2.34c1-.44,1.35-1.51,2-2.26,1.33-1.57,2.56-3.09,3.72-4.75.55-.8,1.12-1.84,2.14-2.18.17.17-.06.36.17.54,1.63-.55,3.34-6.26.08-5.35Zm-1,.19h.32c0-.12,0-.29-.09-.31,0,.16-.21.16-.23.32Zm-17.61.27c-.39.6.24-.38,0,0Zm-.7.25c0-.22.37-.55.06-.63,0,.21-.24.54-.06.63Zm.61-.64Zm17.61-.27c.06-.07.24-.52.07-.32s-.23.51-.07.32Zm1.79-.92c-.06,0-.16,0-.16.08s.16,0,.16-.08Zm-.62.25c0-.18-.09-.33-.25-.38,0,.18.09.33.25.38Zm1-.18c0-.12.11-.2.15-.32-.19-.07-.25.36-.15.32ZM7,28c0,.05,0,0,0,0Zm17-.25c.19.13.3.34.49.46,0-.22.19-.34.22-.56a1.07,1.07,0,0,0-.41-.38c0,.28-.25.27-.3.48Zm-18.24.45c0-.09.09-.13.16-.17a.36.36,0,0,0-.17-.31c0,.22-.32.38,0,.48Zm-.46.25a.65.65,0,0,0-.18-.71c0,.3-.15.63.18.71Zm21.83-1.34Zm-2.67.08c0,.05,0,0,0,0ZM23,27.1c-.23.27.3.23,0,0ZM4.72,28.25a1,1,0,0,0-.25-.7c0,.4-.27.64.25.7ZM27.19,26.9c0,.05,0,0,0,0Zm-1.64.44c0-.15.08-.17.07-.32s-.14-.12-.24-.15a.6.6,0,0,0,.17.47Zm-1.73.13c0-.28.26-.27.3-.48-.34-.27-.79.39-.3.48Zm-19.59,0Zm23-.74Zm-4.94.46c.06-.23.25,0,.39,0-.05-.12.08-.41-.09-.39,0,.21-.58.21-.3.4ZM4,28.51a1,1,0,0,0-.19-1.25c-.2.39-.29,1,.19,1.25Zm23.31-1.93c.06.05,0,0,0,0ZM24,26.76c.25-.11.06.25.32.14.08-.31-.29-.41-.32-.14Zm-20.83.83c-.07-.24,0-.4-.09-.47-.11.1-.13.47.09.47Zm20.13-.5c.08-.17.51-.5.14-.63,0,.27-.49.43-.14.63Zm4.07-.75c.1.31.08-.31,0,0Zm-2.52.15c.08,0,.1.06.16.08s0-.27-.16-.23v.15Zm-2.11.22a.59.59,0,0,0,.45-.48c-.25.06-.33.29-.45.48Zm.93-.26c.15,0,.17-.09.31-.09,0-.17-.07-.25-.24-.23s-.11.16-.07.32ZM5.49,27.6c.2-.19.11-.9,0-.86,0,.41-.28.62,0,.86Zm-.55-.06a.9.9,0,0,0-.1-.86c-.14.41-.21.61.1.86Zm1-.11c.25-.14.55-.71.29-.87-.12.27-.35.44-.29.87Zm-3.87-.67Zm25.62-.9c.05.05,0,0,0,0Zm-4.4.21c.23,0,.42-.28.15-.32,0,.12-.11.2-.15.32Zm-1,.18c.06,0,.09.07.08.16.35,0,.73-.53.3-.64-.08.21-.3.28-.38.48Zm-17.91,1a1.19,1.19,0,0,0-.26-.94c0,.37,0,.86.26.94Zm20.27-1c.17-.29-.34-.42-.41-.7-.21.32.28.47.41.7ZM3.52,27.34c.2-.28.36-1,0-1.25a1.41,1.41,0,0,0,0,1.25ZM21.89,26a.57.57,0,0,0,.54-.49c-.26-.37-.76.21-.54.49ZM7,25.91Zm-.46.48a.53.53,0,0,0-.1-.63c0,.34,0,.49.1.63Zm-1.33.35c.12-.21.26-.78,0-.94-.07.31-.27.7,0,.94Zm17.59-1c.15,0,.18.08.32.07-.07-.25.2-.17.23-.32-.18,0-.09-.23-.24-.23-.05.21-.33.2-.31.48ZM8.54,27c-.13-.24.29-.33.07-.39-.35.43-.87.71-1,1.36-.65.54.25-.26.46-.48.1,0,.11.1.23.07a6.68,6.68,0,0,0,1.6-2c-.55.4-.85,1-1.38,1.45ZM3,27.2a1.67,1.67,0,0,0-.27-1.41A1.24,1.24,0,0,0,3,27.2Zm9.56,9.64c-.2,0-.39,0-.32-.23,0-.11.19-.07.31-.08,1.55-2.19,3.14-4.32,4.78-6.36.53-.66.61-1.85,1.51-2.08.44-1.05,1.55-1.86,1.81-2.81-.46-.13-.52.72-1,.82-1.41,2.44-3.36,4.36-4.84,6.74h-.24c-.65,1.46-2,2.58-2.48,4a.84.84,0,0,0-.83,1c-.7.21-.8,1-1.14,1.53.6-.25.51-1.15,1.14-1.37.06.57-.63,1.08-.74,1.75.67-.13.42-1.13,1.15-1.21.07.27-.14.33,0,.47s.38,0,.4.15c.58,1,1.82,1.31,2.81,1.88.57,0,1.29-.2,1.58.19a6.28,6.28,0,0,0-1.22,1.53c1.07-.11,1-1.72,1.92-1.7-.35.66-.87,1.16-1.2,1.84.46-.64,1.11-1.08,1.28-2,.32,0,.66-.34.94-.11A5.27,5.27,0,0,0,16.48,43a12.57,12.57,0,0,0,2-2.49,3.19,3.19,0,0,0,2-2.42c.3.16.66-.09.54-.25,0,.09-.12.09-.23.08a2.31,2.31,0,0,0-.27-.93c-.07.15,0,.42-.38.32-.05-.35.29-.34.22-.71-.49-.15-.79-.4-1.43-.2.13-.59.81-.49,1.26-.27.79-.93,1.26-2.17,2.27-2.9-.43,1.25-1.47,1.93-1.95,3.13,1-.52,1.41-2.34,2.59-3,.17.31-.16.48-.38.64a28.83,28.83,0,0,1-1.89,2.57c.23,0-.05.6.17.63,1.08-1.61,2.49-3.31,3.41-4.82a1.29,1.29,0,0,1-1.25.51c1.11-.33,1.43-1.41,1.82-2.41a.29.29,0,0,0,.39,0A2,2,0,0,0,25,28.93c-.26.13.19.46-.14.48a5,5,0,0,0-2.26-1.91c-.35,0-.7,0-.79-.21.07-.21.65-.67.37-.72s-.6.75-.93.58c0-.46.67-.62.45-1-.41-.08-.61.65-1,.82-.12-.39.46-.72.59-1.12-.17,0-.25-.06-.24-.23a13.63,13.63,0,0,0-1.9,2.18c.34,0,.71-.34.94-.18-.25.52-.95.43-1.4.82A4.42,4.42,0,0,0,17.55,31c0,.48.43.8.35,1.25-.34.06-.26-.32-.56-.3-1,1.58-2.37,2.81-3.17,4.58.31,0,.54,0,.63.22-.52.35-1.5-.24-2,0,.32.08-.42.36-.47.25s.26-.06.23-.24ZM7.6,27.15c.53-.25.93-1.41,1.06-1.53A10.39,10.39,0,0,0,7.6,27.15Zm-.43-1.48Zm-1.31,1c.12-.36.45-.74.12-1.11-.11.4-.44.69-.12,1.11ZM24,25.26c0-.15,0-.34-.24-.31,0,.2.13.25.24.31Zm-2.83.08c0,.25.21.27.41.31.07-.21.27-.3.29-.56-.11,0-.2-.11-.32-.15-.13.13-.15.36-.38.4Zm1.42,0c0-.19.27-.15.22-.4-.12,0-.07-.24-.31-.15s-.18.44.09.55ZM4.6,26.6a1.12,1.12,0,0,0-.12-1.25A1.79,1.79,0,0,0,4.6,26.6ZM4,26c0-.32,0-.74-.26-.78,0,.32-.08.79.26.78Zm16.58-.87c.35.32.55-.17.77-.41-.38-.3-.63.07-.77.41Zm1.17-.35c.08,0,.12.09.16.16.26,0,.3-.28.38-.49-.26-.2-.44.15-.54.33ZM1,25.06c.06.05,0,0,0,0ZM20.13,25c-2.13,2.68-4.47,5.82-6.67,8.69a2.09,2.09,0,0,1-.47.25c-1,1.72-2.63,3.28-3.15,5.2.61-.87.88-2.07,1.89-2.57,2.91-4.19,6-8.2,9.09-12.22-.39.06-.51.39-.69.65ZM7.3,24.8Zm15.8-.54s0,0,0,0Zm-17.77.51c.06.05,0,0,0,0Zm17.61-.66c0,.05,0,0,0,0ZM6.37,25.37a2.09,2.09,0,0,0,0-.86c0,.27-.31.76,0,.86Zm-5.13-.64Zm7.07-.28c-.21.25.24-.22,0,0Zm12.9-.05a3.13,3.13,0,0,1,.32.15c.12-.24.48-.51.06-.64-.06.23-.35.23-.38.49Zm-18,1.85a2.06,2.06,0,0,0-.13-1.81,2.1,2.1,0,0,0,.13,1.81ZM1.16,24.58c.05.05,0,0,0,0Zm7.31-.29c0,.05,0,0,0,0Zm12.34-.12c.34.1.55-.6.46-.4s-.35.22-.46.4Zm-3.31-.45c-.71.86-1.94,2.55-2.73,3.69-.43.62-1.22,1.23-.58,1.75,1.09-1.91,2.51-3.49,3.7-5.3-.19,0-.24-.11-.39-.14Zm-4.57-.11c-.79,1.4-1.91,2.48-2.72,3.86.17.19.34-.25.55,0,.86-1.28,1.76-2.52,2.56-3.85-.19,0-.24.15-.39,0ZM9.84,25.43a6.59,6.59,0,0,0,1.75-1.78c-1,0-1.41,1.22-1.75,1.78ZM1.53,24c-.05.46,0-.32,0,0Zm9-.42c-.34,0-.53.43-.85.65.08.78-1.12,1.38-1,2.16A5.58,5.58,0,0,0,10,24.48a.22.22,0,0,1-.24-.15c.26-.19.91-.41.77-.73Zm9.92.35c.32-.09.44-.36.62-.57-.35-.39-1,.31-.62.57ZM11,23.59a.21.21,0,0,0,.23-.17.22.22,0,0,0-.23.17Zm7.25.5c.23-.07.21.1.4.07.18-.3.43-.52.61-.81-.17,0-.26-.16-.4-.22-.14.37-.78.52-.61,1Zm-6.94-.67Zm6.22.22c.4.24.64,0,.78-.42-.2,0-.25-.12-.4-.15a5.65,5.65,0,0,1-.38.57ZM2.46,26.19a4.24,4.24,0,0,0-.23-2.74,3.12,3.12,0,0,0,.23,2.74Zm10.78-2.82c.23-.06.48-.11.54-.33-.36-.06-.49.1-.54.33Zm-3.15,2.76c.18-.1.4-.43.62-.25C10.1,26.47,9,27,8.88,27.82c.23-.3.76-.25,1-.34.94-1.54,2.12-2.85,3.11-4.34-.52-.16-1,.33-1.16.74.23,0,.28-.32.39,0-.71.71-1.85,1.41-2.14,2.26Zm9.68-2.71c.09,0,.13.08.16.15a1,1,0,0,0,.61-.65c-.31-.34-.67.17-.77.5Zm-8.89-.14c0-.08.33-.17.07-.24,0,.11-.3.2-.07.24Zm-9.53,0c0,.83.4.43,0,0ZM11.1,23c.06.05,0,0,0,0Zm.16-.17c.05.05,0,0,0,0Zm7.87.33c.47.15.61-.3.77-.65-.41-.21-.75.24-.77.65Zm-.95-.21a1.69,1.69,0,0,0,.48.14c-.16-.4.27-.24.3-.48a.47.47,0,0,0-.78.34Zm.85-.57c0,.05,0,0,0,0Zm-.16,0Zm-1.56.36a1.15,1.15,0,0,1,.55.14c0-.25.3-.28.3-.56-.41-.37-.67.13-.85.42Zm2-.76c-.07,0-.16,0-.16.08s.15,0,.16-.08Zm-.32,0Zm-7.59,1.25A1.75,1.75,0,0,0,12.89,22a2,2,0,0,0-1.54,1.15ZM.62,22.39Zm17.3-.5c.21.07.49.29.54-.09-.27.08-.47-.21-.54.09ZM12.6,23c.76.12,1.05-.77,1.22-1.13A1.94,1.94,0,0,0,12.6,23Zm2.67-.07a10.73,10.73,0,0,1-1.59,2.17,8.66,8.66,0,0,1-1.81,2.64c0-.11-.12-.19-.17-.31,1.22-1.37,2.15-3,3.26-4.5-.29,0-.7,0-.87.11s.28,0,.4.22a2.87,2.87,0,0,1-.7.18c-.86,1.35-1.76,2.67-2.64,4,.2.12.62,0,.56.38-.56-.26-1-.08-1.65-.11-.18.18-.17.56-.54.56-.2,0,.06-.44-.24-.3-.58.11-.84.53-1.4.66,0-.4.62-.69.53-.95a4.44,4.44,0,0,0-1.26,2.94c.43-.16.77-.39,1.17-.58.61.28.7.63,1.2.75,1.79.45,3.28-1.31,4.1.28-.27.05-.92.31-1.19-.13-1.63.78-3.78.26-5.19.07,0-.11,0-.29-.09-.31a1.87,1.87,0,0,0,.77,2.1c-.26.76-1.26,1.59-1,2.32.4-.62.51-1.51,1.28-1.77-.28.9-1,1.37-1.19,2.39.7-.77,1-1.92,1.82-2.57.43.31,1.25.24,1.59.43-.61.8-1.38,1.76-2,2.65-.21.31-.55.88-.28,1.27.95-1.29,1.58-2.89,2.8-3.94-.61,1.6-2.13,2.74-2.48,4.32a7.59,7.59,0,0,0,1.59-2.25c.24-.38.5-.82.75-1.2s.48-1,1-.89a9.68,9.68,0,0,1-1.21,1.61,10.88,10.88,0,0,1-.9,1.67c-.32.53-1,1-.74,1.6a48.07,48.07,0,0,0,3.31-5.29c.82-.09,1.05-.74,1.62-1.07.18.38-.33.5-.14.64,1.9-2.31,3.77-4.92,5.54-7.24.38-.51,1.12-1,1-1.53a6.3,6.3,0,0,0-1.6,1.94c-1.08,1.49-2.41,2.68-3.5,4.11.09.31-.23.24-.14.55-.37.15-.4.6-.85.66-.09-.49.26-.58.53-.73,1.47-2.49,3.56-4.38,5.16-6.75-.75-.19-1.07.83-1.46,1.3-.95,1.14-1.91,2.25-2.74,3.38-.41.57-.72,1.33-1.37,1.54,1.2-2.09,2.92-3.67,4.17-5.71-.2,0-.25-.12-.4-.15-1.17,1.75-2.51,3.34-3.63,5.14h-.32c-.15.12.2.37-.22.32-.16-.7-.78-.9-1.14-1.38.46-.05.57.26.95.29,1.22-1.9,2.63-3.64,3.93-5.47-.54-.35-.76.28-1,.58-.87,1.11-1.74,2.2-2.5,3.3-.29.42-.38,1.14-1,1.21.43-1.17,1.43-1.81,1.88-3a14.76,14.76,0,0,0,1.89-2.58c.11.07.82-.6.45-.8s-1.13,1.31-1.44,1.78c-.53.76-1,1.1-1.52,1.85s-1.19,2.25-1.9,2.49c.87-1.88,2.58-3.38,3.4-5.05-.18.16-.35-.05-.63.1Zm-1.57,0a2,2,0,0,0,1-1.13,1.19,1.19,0,0,0-1,1.13Zm5.62-1.34c-.06,0-.15,0-.15.08s.15,0,.15-.08ZM15.5,22.75a1.34,1.34,0,0,1,.63,0c.13-.46.55-.66.68-1.12-.87,0-.87.76-1.31,1.14Zm-1.1,0,.79,0c.15-.44.57-.63.67-1.12-1-.07-1.14.61-1.46,1.14ZM.61,22.16c.06.05,0,0,0,0Zm18-.68c-.18,0-.54-.13-.31.09,0-.22.3.19.31-.09ZM1.35,23c-.11-.51.07-.83-.27-1.09.21.37-.11.85.27,1.09ZM.61,21.92c.1.31.08-.31,0,0Zm20.55.43c-.33-.44-.79-.73-1.14-1.14a3.87,3.87,0,0,0,1.14,1.14Zm-2.32-1.11c.25.21-.22-.23,0,0Zm-.39-.07c.05,0,0,0,0,0Zm-4.88.06Zm-1,.19c0,.24-.5.44-.14.55a1.29,1.29,0,0,1,.78-.18c0-.28.56-.45.14-.63-.26.17-.45.34-.78.26Zm.39-.25c-.09,0-.22,0-.23.09s.22,0,.23-.09ZM.68,21.6c.1.31.08-.31,0,0Zm13.92-.08c.49.08.53-.27.7-.49-.28-.06-.33.15-.48,0,.08.3-.22.25-.22.48Zm-1.1.19c.62.07.8-.28,1-.58-.53-.18-.65.37-1,.58Zm6.28-.66c-.15,0-.06-.25-.24-.22v.23c.14,0,.21.11.24,0Zm-3.29.41H17c0-.2.48-.46.14-.56a.91.91,0,0,0-.69.57Zm-1.1,0c.36,0,1,0,1-.58a1.67,1.67,0,0,1-.63,0c-.17.14-.24.39-.37.57Zm2,0c.08,0,.12.08.16.15.41-.09.46-.53.68-.81-.25.11-.07-.25-.32-.14-.09.34-.38.5-.52.8Zm1.94-.69c.05-.35-.27-.31-.4-.46,0,.26.24.34.4.46ZM17,20.74c.27,0,.55,0,.62-.17-.23,0-.24-.18-.47-.15.06.22-.16.17-.15.32ZM13.25,21c.08-.18.49-.05.71-.1-.09-.24.4-.32.14-.48-.11.31-1,.27-.85.58Zm2.59-.23a2.15,2.15,0,0,1,.79,0c0-.21.21-.3.3-.48-.59-.33-.87.1-1.09.51Zm-1.5,0c.39.2.84-.45.77-.65a1.59,1.59,0,0,0-.77.65Zm.87,0c.55.09.61-.69.68-.8-.26.23-.66.34-.68.8Zm0-.94Zm3.4.45c-.12-.49-.61-.6-.89-.92.06.56.59.61.89.92Zm-1.13-.83c.17-.17,0-.27-.16-.31,0,.18,0,.29.16.31Zm-.73-.69c0,.29.21.32.41.38,0-.26-.15-.33-.25-.46,0,.06-.06.09-.16.08Zm-.87-.45c.07.24.45,0,.24.31.23-.28.41-.4.22-.63-.09.29-.31.24-.46.32Zm.62-.33c.05.05,0,0,0,0Zm.1.71c.12-.42.45-.64.51-1.12-.32.14-.57,1.12-.51,1.12Zm.74-1.44Zm1.09-.43Zm-.08,0c-.24,0,.19-.24-.08-.24a4.68,4.68,0,0,0-1.21,1.93.34.34,0,0,1,.24.07,7.71,7.71,0,0,0,.74-1.68c.12.17.23-.12.31-.08Zm1-.58Zm.15-.16c.05,0,0,0,0,0Zm-1,.57c-.06.69-.81,1.38-.95,2.23.65-.88,1.08-2,1.72-2.88-.38.1-.45.73-.77.65Zm10-1.15Zm-8.88.41c0-.16.42-.3.23-.4-.09.08-.52.22-.23.4Zm8.14-1.73s0,0,0,0Zm-25.33.26c.18.32-.12.48.17.62.21-.11.33-1,.13-1,0,.23,0,.44-.3.4Zm.21-.79c-.07.46.34,0,0,0ZM28.31,25c.85-1.83,1.89-5.36.57-7.57.12,0,.07-.19.07-.32-1.11-1.57-1.8-3.6-3.82-4.21-1.88.81-3.38,1.3-4.64,2.65,0-.13,0-.28-.17-.23s.11.19,0,.39a8.23,8.23,0,0,0-2.41,3.45c.18,0,.15.27.4.23.09-.53.32-1.33.67-1.36,0,.54-.95,1.45-.19,1.74a1.6,1.6,0,0,1,.28-1c.23.42,0,.95-.11,1.35.22,0,.19.23.4.22.19-.23.1-.71.44-.8.17.28-.3.9-.12,1.18s.26-.43.62-.41c0,.28-.2.43-.22.72,1.06,1,2,2,3.15,2.9a.36.36,0,0,1,.15-.32c.16.28,0,.47.1.7.34.07.13-.39.38-.4.26.2-.22.75.19.86.15-.31.22-1,.68-.81a2.24,2.24,0,0,0-.43,1.27c.47-.14.31-.87.83-1,.19.49-.76,1.06-.27,1.42.2-.44.3-1,.75-1.2.05.69-.69,1-.42,1.66.49-.42.44-1.36,1.05-1.68.21.67-1.14,1.63-.49,2.22.4-.72.62-1.87,1.43-2.4-.25,1.08-1,1.69-1.26,2.79,1-.54.91-2.45,2-2.66-.31.86-1.37,1.81-1.1,2.71.53-1,.84-2.22,1.73-2.88.06.32-.52.74-.22.79ZM25.92,12.85h.16c.11-.2-.28-.22-.24-.07s.09,0,.08.07ZM3.22,14.14c-.09-.37.31-.67,0-1,0,.38-.34.63,0,1Zm-.41-.62c0-.11,0-.57-.09-.31,0,.1,0,.56.09.31Zm.79.29c.34,0,.58-.75.21-.87a2.27,2.27,0,0,0-.21.87Zm0-.94c.06.05,0,0,0,0Zm23.84-.14c.18,0,.18.24.32.31a3.37,3.37,0,0,1,.05-1c-.51,0,.14.68-.37.72Zm-24.62.32c0-.19.08-.58-.09-.63,0,.24-.2.47.09.63Zm.94-.35c0-.33.36-.53,0-.78,0,.24-.27.6,0,.78ZM2.61,12c.05.05,0,0,0,0Zm24.07,0c.64.12.51-.5,1.09-.43-.05-.14.08-.46-.09-.47a4.32,4.32,0,0,1-1,.9ZM4.37,13a1.46,1.46,0,0,0,.11-1.42C4.24,12,4,12.73,4.37,13Zm.53-.64c.31,0,.23-.35.54-.33-.05-.17.08-.52-.1-.55a2.69,2.69,0,0,0-.44.88ZM3.19,13a4.46,4.46,0,0,0,0-2c-.08.33-.44,1.42,0,2ZM3,11.15c.06,0,0,0,0,0Zm22.7,1.16c1.06-.19,1.37-1.1,2.16-1.56-.16-.25.1-.46-.18-.62a10.29,10.29,0,0,1-2,2.18ZM2.6,11.87c.29,0,.16-.76.06-.87,0,.05-.07.09-.08,0s0-.16-.09-.16c.07.43.24.55.11,1Zm22,.86c1-.24,1.62-1.3,2.3-2.11.38-.45,1.19-.81.67-1.35-.94,1.19-2.16,2.3-3,3.46Zm3-4.8c.1.31.08-.32,0,0ZM2.92,9.11c.23-.9.82-1.88.94-2.63a4.79,4.79,0,0,0-.94,2.63ZM4,6.09s0,0,0,0Zm9-.81c.65-.18.82-.81,1.15-1.29-.57.25-.75.87-1.15,1.29Zm.37-1c-.88.34-1.23,1.19-1.68,1.94a1.58,1.58,0,0,0,.7-.57c0,.06,0,.15.08.15.05-.28.43-.25.54-.48-.34-.14.56-.78.36-1Zm.56.46c.56-.32,1.45-.73,1.38-1.38A2.29,2.29,0,0,0,14,4.78Zm.21-1c.47-.07.49-.56.76-.81-.48.05-.61.45-.76.81ZM15.36,4a3.22,3.22,0,0,0,1.53-1.3c-.66.24-1.43.78-1.53,1.3ZM15,3.33c.51-.06,1.05-.49,1-.81-.36.24-.94.28-1,.81Zm3.75-.89c-.39.35.25-.15,0,0Zm-.94,0a1.19,1.19,0,0,0-.85.73c.53,0,.52-.53.85-.73Zm-3.06.48c.37-.1.52-.38.69-.65-.42,0-.82.39-.69.65Zm3.07,0c.32-.14.81-.52.69-.81-.3.16-.73.59-.69.81Zm-1.57-.11c.41-.18.93-.24,1.08-.67-.42.18-1,.2-1.08.67ZM20,2.17c.24,0,.57-.07.7.05-.05-.31-.64-.42-.7-.05Zm-1.18.11c.29-.06.38-.3.54-.49-.29.06-.39.3-.54.49Zm-1.11-.21c.12,0,.57-.11.31-.24,0,.16-.35,0-.31.24ZM20,1.61c-.45.22-.21.45,0,0Zm-4.3.84a1.52,1.52,0,0,0,1-.74c-.46.07-1.11.38-1,.74Zm3-.72c.21,0,.15-.13.31,0,0-.24.32-.25.3-.56-.28.12-.34.45-.61.57Zm-1.81.21c.54,0,1.19-.59.92-.81-.36.21-.77.39-.92.81Zm-1.72.21a2,2,0,0,0,1-1,1.26,1.26,0,0,0-1,1ZM18,1.59a.86.86,0,0,0,.77-.65c-.45-.19-.6.35-.77.65Zm-1.81,0c.42-.29,1-.43,1.24-.9-.65,0-1.29.47-1.24.9ZM15.9,1.1c.34-.21.75-.36,1.09-.58a1.64,1.64,0,0,0-.71,0c.13.08-.6.4-.38.56Zm.22-.71c-4.61-.5-9.75,1.85-11.8,5.45-.27,1.62-1.48,3.39-1.67,5.09.3,0,.15-.48.38-.57.27.2-.28.39.09.47.61-1.49,1.1-3.5,2-4.46-.49,2-1.9,3.23-1.5,5.47C4.31,10.4,4.87,8.43,5.7,7.38A22.9,22.9,0,0,1,4.22,10.8c.07.53-.31.58,0,.87A25.76,25.76,0,0,1,6.12,8.23c-.27,1.34-1.34,2.21-1.32,3.58.8-1,1.25-2.29,2-3.29-.11,1-1.12,1.76-1.17,2.87.5-.44.58-1.69,1.12-1.84,0,.7-.65,1.22-.58,1.75C7.13,10.8,7.35,9.63,8,8.88A5,5,0,0,1,5.75,12c0,.32.23.5.1.78-.26,0-.17-.41-.4-.46-.23.17-.09.68-.29.87-.15,0-.2-.16-.4-.14a2.51,2.51,0,0,1-.91,1c0,.18.14.22.09.47s-.35-.07-.55.09a2.62,2.62,0,0,1-1,2.07A13.27,13.27,0,0,0,3,15.24a9.68,9.68,0,0,0-1.9,5.09A9.89,9.89,0,0,0,2,17.63c-.07.14,0,.42-.22.4a8.94,8.94,0,0,1,.75-1.2c-.08,1.2-.83,2.43-1.16,3.65,0,.21.44.35.1.47.08-.11.08-.19-.09-.23A3.46,3.46,0,0,0,1.55,22a43.49,43.49,0,0,1,1.82-5.16c.19.21,0,.64-.05.94-.52,1.78-2.25,4.34-1.4,5.94.5-.47,0-1.81.65-1.83.47-1.15.58-2.46,1.33-3.18-.36,1.79-2.09,3.75-1,5.85a4.56,4.56,0,0,0,.19-1.42.63.63,0,0,0,.16.23c.39-.86.44-2,1.11-2.63C4.09,22,3.06,23.62,3.53,25c.46,0,.06-.9.21-1s.08.29.24.3c.33-.88.42-2,1-2.62,0,1.07-1.32,2.47-.69,3.64a8.16,8.16,0,0,1,1.19-2.4c-.14,1-1,1.74-.54,2.85.25-.36.16-.63.12-1.18.16-.18.26.06.39-.09a1.36,1.36,0,0,1,.52-1c-.15.71-.62,1.47-.48,2.21.51-.2.26-1.13.42-1.66.18,0,0,.43.25.38a4.24,4.24,0,0,1,.38-.56.48.48,0,0,0,.17.63c.15-.17.1-.52.38-.56,0,.67-.72,1.17-.26,1.81a2,2,0,0,0,.19-1.26c.23-.07.21.1.4.07a6.63,6.63,0,0,1,.67-1.2c0,.93-.73,1.23-.57,2a15.2,15.2,0,0,1,1.88-2.89c-.19.59-.69,1.28-.81,1.68C9.71,23,10.45,21,11.49,20c-.3,1.07-1.31,1.88-1.5,2.79,1.24-1.2,1.92-3.34,3.11-4.34-.63,1.17-1.43,2.16-2,3.21,1.53-1.36,2.63-3.53,3.87-4.91a14.59,14.59,0,0,1-2,3.05c2.19-1.07,2.81-3.62,4.49-5.17-.62,1.3-1.87,2.66-2.33,3.61,1.66-1.23,2.54-3.62,4-4.76-.87,1.45-2,2.65-3,4,2.05-1.32,3-4.09,4.72-5.49-1,1.78-2.64,3.32-3.48,4.82.34-.33.84-.53,1.15-.89.53,0,.91-.82,1.55-1,1.06-1.48,2.46-2.89,3.57-4.28.33-.4.6-1.11,1.23-1.05-1.51,1.73-3,3.49-4.57,5.16a6.59,6.59,0,0,0,2.46-2l1.21-1.46a21,21,0,0,1,2.36-2.9c.11-.09.21-.33.47-.17C25.28,10,23.77,12,22,13.83c.43-.48,1.38-.43,2-.84a10.32,10.32,0,0,0,1.37-1.62c.53-.61,1-1.28,1.37-1.69s1.11-.77.59-1.35c-1.39,1.53-2.4,3.4-4,4.52,1.43-1.48,2.61-3.19,4-4.76-.47-1.07-.49-2.49-1-3.43-.25-.49-.85-.55-.89-1.08a6.11,6.11,0,0,0-4.76-1.2,6.62,6.62,0,0,0-3,1.19c-.28,0,.43-.34,0-.31-.2,0-.11.31-.31.32-.2-.28-.88.14-1,.42-3.08,1.1-5.53,3.86-7.94,5.58C9.43,7.91,11.69,7,12.08,5.15c0,0-.06.09-.07,0C13.19,3.79,13.9,2,15,.58,14.5,2.1,13.49,3.15,12.77,4.5c.56-.22,1.31-.66,1.23-1.22.06.18-.28.33-.31.17.3-.21,1.21-.92.68-1,.46-.13.56-.6.76-1-.15-.07-.26.24-.32,0,.61-.07,1-.74.61-.88.5,0,.39.07.7-.26ZM6.35,35.68a3.7,3.7,0,0,1-2.24-1.43,5,5,0,0,1-1.38-4.37A14.31,14.31,0,0,1,.24,23c0-.32-.23,0-.24-.3A1.59,1.59,0,0,0,.3,22c.18-1.54.29-4,1.19-5-.45-.19.23-1.41-.37-2,.34-4.82,1.36-8.43,4.09-11.13A15.47,15.47,0,0,1,8.44,1.55,20,20,0,0,1,12.57.1a19.43,19.43,0,0,1,4.17,0,22.63,22.63,0,0,1,3.63.45c.65.19,1.16.71,1.76.9.33.1.66,0,.95.05.53.12.87.6,1.43.51C27.35,4.29,29.24,9.2,28.31,14a24.06,24.06,0,0,1,1.79,4.67c.78,3.54-.94,7.33-2,10.05a6.46,6.46,0,0,1-2.41,6.21c-.65,3-2.63,4.62-4.77,6.51-1.25,1.1-3.17,2.44-4.73,2.5-1.28,0-2.83-1-4-1.78-2.54-1.63-4.77-3.23-5.85-6.44Z"/></g></g></svg>