<svg xmlns="http://www.w3.org/2000/svg" viewBox="0 0 51.24 34.03"><defs><style>.cls-1{fill:#44341f;fill-rule:evenodd;}</style></defs><title>fullbodyldpi</title><g id="Layer_2" data-name="Layer 2"><g id="img"><path class="cls-1" d="M24.31,32.24a2.34,2.34,0,0,1-3.86,1.18c.71,0,2,.49,2.55-.33.08,0,.05.22.14.22.56-.05.64-1.33,1.17-1.07Z"/><path class="cls-1" d="M1.14,32.13C1.22,31.82.82,32,.65,32c-.08.3.32.12.49.17ZM4,32c0,.06,0,0,0,0Zm.4-.25c.06.05,0,0,0,0Zm7.16,0c-.07-.27-.53-.57-.81-.34.36,0,.46.31.81.34Zm-9.68.08c.22-.06.55-.44.41-.59,0,.31-.58.41-.41.59Zm9.68-.42c.39.2,1.38,0,1.14-.42-.24.29-.89.15-1.14.42ZM13.18,31c0-.17.44-.31.24-.42,0,.13-.54.21-.24.42Zm-9.11-.67c0,.06,0,0,0,0Zm.32.51c.24-.07.7-.5.33-.68l-.33.68Zm-1.46.67c.72-.15,1-1.23,1.14-1.68-.33.61-.85,1-1.14,1.68Zm-1.87.08a1.45,1.45,0,0,0,.65-.08c.26-.6,1.21-1.37,1.14-1.77a3.63,3.63,0,0,0-1.79,1.85Zm3.17-1.43c.09-.21.32-.28.33-.59-.28,0-.39.55-.33.59Zm.49-.59c0,.06,0,0,0,0Zm-2,1.6C3,30.54,3.81,29.9,4,29.35A2.57,2.57,0,0,0,2.68,31.2Zm2-1.85c.09.33.09-.33,0,0Zm-.33-.08c0-.1.15-.19,0-.26,0,.1-.14.19,0,.26ZM2.2,29.1c.23.34,1.25.3,1-.17a.79.79,0,0,1-.65.34c-.09-.23.16-.5,0-.51-.09.16-.31.18-.4.34Zm-.08-.42Zm12.44-.09c-.07.5,0-.33,0,0Zm-5.94-.17c-.42.21.28.22,0,0Zm1.22.34c-.07-.27.13-.26.17-.42-.21,0-.45.37-.17.42Zm4.64-.42c.09.33.09-.33,0,0Zm-10.41.25c0-.17.38-.05.4-.25-.2-.19-.56.12-.4.25Zm2.19,0a.38.38,0,0,1-.4.42c-.19-.12.16-.26-.17-.25H5.13a3,3,0,0,0,4,2.36c-.24-.49-.26-1.65.33-1.77,0-.26-.06-.62.08-.76-.26-.05-.25.16-.41,0,0,.63-1.22,1.33-1.63.93a2.51,2.51,0,0,0,1-.42c-.8-.07-1.53.26-1.79-.42.49-.11.89-.28,1.22.08-.14-.81-1.11-.19-1.63-.17Zm4.4.67c-.17.31.27.85,0,1.26.92.89,2.77,0,3.33-.76-.1-.16,0-.7,0-1.26-1.17-1.07-2.05.4-3,.92-.11-.8,1.51-.88.65-1.43-.14.61-.72.77-1,1.27Zm0-.59c.07-.26.69-.41.48-.68-.17.16-.76.32-.48.68Zm-5.29-.59c.09.33.09-.34,0,0Zm-2,.25c.2-.05.68-.29.32-.42-.05.19-.27.22-.32.42Zm-2.12-.25c-.06.26.22.16.16.42.48,0,.66-.38,1.06-.51.07.29-.09.36-.16.51.2,0,.25-.13.4-.17,0-.26-.28-.22-.08-.42.18.15.82.07.57-.17a9.54,9.54,0,0,0-1.95.34Zm12.12-.34Zm-2.76,0c-.23.26.24-.23,0,0Zm1.95.17c.16-.14.51-.09.73-.17.09-.46-1-.08-.73.17Zm2,2.44c1.28-.21,1.42-2.3.41-2.95a1.58,1.58,0,0,0-.9.51c.16,0,.42.34.49.17-.15,0,0-.33.16-.26.82.5.08,2.17-.16,2.53Zm-7.4-2.61c.37,0,.3-.4.24-.5l-.24.5Zm.81.08c0-.06.07-.09.16-.08a1.11,1.11,0,0,0-.16-.67c-.13.18,0,.66,0,.75ZM10.66,27c.25,0,0,.42.32.34-.16-.22.09-.39-.08-.51,0,.14-.22.05-.24.17Zm-3-.17c-.41.51.15-.18,0,0ZM6.1,28c-.19,0-.09-.24-.24-.25-.08.15-.33.11-.25.42a2.61,2.61,0,0,0,1-.17c-.11-.61.86-.94.49-1.26-.28.47-.69.81-1,1.26Zm2-1.09c0-.1.13-.09.25-.09C8.13,28,9.68,27.92,9.76,27a1.57,1.57,0,0,1-.65.09c-.11-.26,0-.24,0-.59-.41.08-.69.39-1.06.08.12.19-.21.32,0,.34Zm-.65-.34c-.19.28.28-.2,0,0ZM9,26.32c.09.33.09-.33,0,0Zm1.46.76c-.22-.28-.28-.73-.48-1,0,.09-.13.09-.25.08.09.41-.31.3-.41.51.52-.21.82.18,1.14.42Zm-.32-1.43c-.1,0-.23,0-.25.08s.23,0,.25-.08ZM9,25.73c.05.05,0,0,0,0Zm.73-.5c-.52-.1-.18.25,0,0ZM12,24.89c-.46.3-1.17.36-1.47.84a1.94,1.94,0,0,1,.09.76c.83,0,1.74-.88,1.38-1.6ZM5.61,27.58c-.11,0-.09-.18-.16-.25A6.79,6.79,0,0,1,6.83,26c-.11-.45-.44-.66-.57-1.09-2.21-.67-3.88,2.54-1.3,2.94.07.06.11.55.25.26.25-.46,1.78-1.15,2-1.94-.62,0-1.06,1-1.55,1.43Zm-.73-3Zm2.36,1.18a4.44,4.44,0,0,0,.81.51.65.65,0,0,1,.57-.43,2,2,0,0,0-1.87-1c-.11-.24.22-.42,0-.5-.47.61.55.73.49,1.43ZM6.4,24.64V24.3c-.2.12-.67-.1-.57.08a.65.65,0,0,1,.57.26Zm7.84,2.69a1.82,1.82,0,0,1,.57-1.26c.2-1.66-1.24-2.13-2.44-1.6.29,1.22-.61,1.89-1.23,2.44.52-.22.3.42.33.59.77.73,1-.57,2-.34.1.13.26.33.09.51.27-.06.39-.27.65-.34Zm-2.36-3.79c-.4.22-.44-.37-.74-.5-1.73-.39-3.65-.23-4,1.43.72,0,1.43.89,1.87.67.21-.07-.26-.11-.24-.25a3.29,3.29,0,0,1,1.87-.42c-.14.48-.61.11-1.06.25.93.75,1.68-.94,2.44-.17.05-.31.09-.64.16-.93,1.88-.78,3.65,1.1,2.93,3.29,1.18.91,1.18,4.11-1.06,3.79-.74.72-2.42,1.94-3.58.92-.06-.23.12-.21.09-.42s-.52-.08-.65-.25c-.11-.5.38-.39.4-.76s-.22-1.14-.57-1c-.2.19.3.36.25.68-.38-.21-.61.13-.74.42.06.44.4.6.49,1-1.36.49-3.49.39-4.31-.59-.39,2.4-3.57,1.64-5.45,2a5.4,5.4,0,0,1,2.36-3A3.81,3.81,0,0,1,.57,27.75a14.6,14.6,0,0,1,2.85-.25c-.93-2.16.93-3.77,3.25-3.62.55-1.81,4.89-2.47,5.21-.34Z"/><path class="cls-1" d="M21.39,31.2c.33-.08.46-.37.66-.59-.3.12-.58.24-.66.59Zm-.08.76c.46-.54,1.1-.88,1.55-1.43A3.21,3.21,0,0,0,21.31,32Zm2.44-1.26a13.67,13.67,0,0,1-3,2.52,20.15,20.15,0,0,1,2.85-2.52c0-.12-.24,0-.24-.17C22,31.39,21,33.45,19,33c.14.33.71.21.89.51-.23.46-1.4.08-1.46-.43a6.59,6.59,0,0,1,.65-.75.43.43,0,0,1,.4.42c.91.07.81-.91,1.47-1.1a2.07,2.07,0,0,1,.16-1.68c1.07-.14,2.79-.12,3.34.67.2.3.5,1.25-.09,1.6-.19-.53,0-1.22-.65-1.51Z"/><path class="cls-1" d="M47.62,22.1Zm.32-.42c.21-.1.68-.37.49-.59-.06.25-.57.47-.49.59Zm.74-.84c-.23.25.24-.23,0,0Zm-3.75-1c-.17-.4-.28-.72-.65-.76-1.49-.18-1.18,3.07-.08,3.45a1.16,1.16,0,0,0,.65-.17c.53.78,2.08.27,2.69-.25-.59.4-2.45.42-2.2-.51,1.53,1.08,3.15-.86,3.66-1.85a3.52,3.52,0,0,1-4.07.09ZM49.49,19c-.14.05-.48-.1-.49.09.15-.05.48.1.49-.09Zm.16-.69c.25.19.23.66.33,1-1.08,1.38-1.78,3.25-3.83,3.45-.42,0-.86-.29-1.3.09a.71.71,0,0,0-.81-.17c-1-1.06-1.76-2.93-.57-4a1.86,1.86,0,0,1,.81-.42c.81-.06.79.7,1.47,1a2.66,2.66,0,0,0,3.09-1Z"/><path class="cls-1" d="M31.32,23.29c.05.05,0,0,0,0Zm-.16,0Zm-.17,0c.06.05,0,0,0,0Zm-2.35-.09a7.85,7.85,0,0,0,2.27,0,6.86,6.86,0,0,0-2.27,0Zm-1.06-.08c.36-.12.69.23.89,0-.14-.09-1-.16-.89,0ZM26.76,23c-.06,0-.16,0-.16.09s.16,0,.16-.09ZM31,22.7c-.06,0-.16,0-.16.08s.16,0,.16-.08Zm1.06,0c0-.14.23-.05.25-.17-.17-.07-.45.13-.25.17Zm-1.54-.08c-.74.28.26,0,0,0Zm-1.79,0c.42-.13.94.49,1.05-.09-.26.18-1.05-.16-1.05.09Zm-5-.09c-.52-.1-.17.26,0,0Zm7.33.25c.28-.07.19,0,.48-.08,0-.1,0-.24-.08-.25-.1.14-.39.1-.4.33Zm-5.86-.42c.05.06,0,0,0,0Zm-.57-.17c-.52-.09-.18.26,0,0Zm4.72-.08c-.07,0-.16,0-.17.08s.16,0,.17-.08Zm3.09.42c.33.06.62-.36.49-.51-.16.17-.39.28-.49.51Zm-2.93-.59c0,.06,0,0,0,0Zm2-.08c-.22.25.25-.23,0,0Zm-13.09,0Zm-.25,0c.06.05,0,0,0,0Zm12.53.08c.4-.11.13-.4,0,0Zm-2-.17c.05.06,0,0,0,0ZM17.9,21.69c-.1,0-.23,0-.25.08s.23,0,.25-.08ZM2.52,22a2.71,2.71,0,0,0,.9-.25,1.2,1.2,0,0,0-.9.25Zm25.55-.08c.35.06.45-.15.57-.34a.69.69,0,0,0-.57.34Zm-10.5-.34c-.14,0-.48-.1-.49.09.15-.05.48.1.49-.09Zm9,.34c.33-.09,1.06.14,1.38-.34-.66-.07-1.08-.09-1.38.34Zm-9.6-.42c-.06,0-.16,0-.16.08s.16,0,.16-.08Zm8,.42c.47,0,1.24.07,1.47-.42-.64-.13-1.14-.1-1.47.42Zm4.23-.59c-.69-.1-.34.26,0,0Zm2.12,0c-.22.26.25-.23,0,0Zm-27.74,0Zm25.71-.08Zm-1.88.08c.27.11,1.12.15,1-.25-.29.26-.85-.23-1,.25Zm-1.54,0c.44,0,1,.11,1.14-.25-.4.06-1.1-.18-1.14.25Zm-22-.08c.21,0,.4,0,.41-.17-.14,0-.34,0-.41.17ZM25.62,21a3,3,0,0,0-2.6.67c1.36.5,2-.31,2.6-.67ZM7.89,21.1a13.35,13.35,0,0,0-4,.67c3.93-.89,8.16-.32,12.52-.25a49.92,49.92,0,0,0-8.54-.42Zm-4.15,0c.06,0,0,0,0,0Zm17.82.5a2.13,2.13,0,0,0,2-.67,2.69,2.69,0,0,0-2,.67ZM31,20.93Zm-.73,0c0,.06,0,0,0,0Zm-3,0Zm-7.08.59A1.86,1.86,0,0,0,22,20.85a2.78,2.78,0,0,0-1.79.67Zm-1-.08a1.72,1.72,0,0,0,1.3-.59,1.31,1.31,0,0,0-1.3.59ZM5.13,21.1a.67.67,0,0,0,.65-.25c-.29,0-.56,0-.65.25Zm29.28-.25c-.12.62.06-.3,0,0Zm-4.64,0c.06,0,0,0,0,0Zm-23.18.08c.28-.09,1-.08,1.22-.17-.48-.15-1-.2-1.22.17ZM29,20.51c-.87-.11-.51.26,0,0ZM2.68,21c.21-.06.73-.55.57-.43s-.7.57-.57.43Zm24.08-.34c.46-.13.91.13,1.22-.25-.62.11-.88-.27-1.22.25Zm-2.11,0c.67-.07,1.67.21,1.87-.34-.88-.12-1.36-.12-1.87.34Zm-20.91.08c.13-.21.51-.15.49-.5-.19.09-.74.24-.49.5Zm25.71-.59c-.17,0-.54-.1-.57.09.17-.05.53.1.57-.09Zm-1.14,0c-.06,0-.16,0-.16.09s.16,0,.16-.09Zm-5.13.51c.64,0,1.17,0,1.39-.42a1.24,1.24,0,0,0-1.39.42Zm-1.46-.09c.7.07,1.05.09,1.38-.33a1.41,1.41,0,0,0-1.38.33Zm-1.14-.08c.54,0,.71.07,1-.25a1.13,1.13,0,0,0-1,.25Zm-5,.59c1.24.27,2-.35,2.93-.84a4.13,4.13,0,0,0-2.93.84Zm12.53-1c-.87-.11-.52.26,0,0ZM17.25,21.27c.76.27,1.93-.08,1.95-.59.63.06.86-.29,1.22-.51-1.29-.2-2.19.71-3.17,1.1ZM3.91,21A3.37,3.37,0,0,0,6,20.09a1.05,1.05,0,0,0-.73.34c-.06-.15-.55-.27-.57-.17.11.31-.59.5-.81.76Zm32.78-.93ZM26.36,20c-1.18-.12,0,.27.57.08-.38,0-.37-.07-.57-.08Zm-8.71.08c.06.05,0,0,0,0ZM14,20.93A4.07,4.07,0,0,0,16.84,20a4.08,4.08,0,0,0-2.85.92Zm-1.3-.08c.28,0,.66-.07.81.08.21-.58,1.07-.47,1.39-.92a3.24,3.24,0,0,0-2.2.84Zm-1.87-.09a3.81,3.81,0,0,0,2.6-.75,3.27,3.27,0,0,0-2.6.75Zm-1.3,0c.9,0,1.28-.47,1.87-.75-.93-.06-1.27.48-1.87.75Zm-1.14.09c.13-.14.34.07.65,0,0-.59,1.07-.41.9-.84a2.71,2.71,0,0,0-1.55.84Zm-1.22-.26A1.81,1.81,0,0,0,8.79,20a2.68,2.68,0,0,0-1.63.58Zm17.89-.67c-.52-.1-.17.26,0,0Zm-.4,0c-.12,0-.42-.1-.41.09.12-.05.42.09.41-.09Zm-18.87.84A3.68,3.68,0,0,0,7.4,20a2.77,2.77,0,0,0-1.62.75ZM4.31,20.2c.13,0,.28,0,.25-.16H4.39c0,.08-.06.1-.08.16Zm.49-.28c.09.33.09-.33,0,0Zm24.89,0c-.74-.41-.61.18,0,0Zm-6.75,0c.25-.05.7.11.81-.08-.42,0-.61-.23-.81.08Zm-.65-.17c-.87-.1-.52.26,0,0Zm-2.44.17c.55-.07.85.1,1.14-.17-.37.07-1-.16-1.14.17Zm-4.56-.17c-.12,0-.3,0-.32.09s.3,0,.32-.09Zm-2.6.09c.05.05,0,0,0,0Zm15.13-.09Zm-1.54,0c-.65.05.39,0,0,0Zm-.74-.08c-.95-.11-.6.26,0,0Zm-7.48.17c.56-.05,1,.2,1.3-.09a1.76,1.76,0,0,0-1.3.09Zm-.81-.09c-.31,0-1.5-.07-1.14.09.34-.07,1.4.16,1.22-.17,0,0,0,.1-.08.08Zm-5.45,0c0,.06,0,0,0,0ZM5,19.67c-.06,0-.16,0-.16.08s.16,0,.16-.08Zm28.8.5c-.19,0,.09-.22.08-.33-.26,0-.48-.4-.65-.17.16.14.41.63.57.5ZM28,19.75c.39,0,.56.15,1,.09-.06-.27-1-.27-1-.09Zm-1.05-.08Zm-11.47-.09c0,.06,0,0,0,0Zm-.25-.08Zm-2,0c.05.05,0,0,0,0Zm-.57,0Zm.81,0c.38-.06,1,.11,1.22-.08-.54,0-.92-.2-1.22.08ZM5,19.67c.34,0,.41-.2.57-.34a.88.88,0,0,0-.57.34Zm.74-.34c0,.06,0,0,0,0Zm32.29,0a.22.22,0,0,0,.25-.17.24.24,0,0,0-.25.17Zm-18.71-.17ZM34.9,20.51a3.16,3.16,0,0,0,1-1.77,3.13,3.13,0,0,0-1,1.77Zm-23-1.94c-.07,0-.16,0-.17.09s.17,0,.17-.09Zm-.25,0c-.24.06-.7-.1-.81.09.25-.06.7.11.81-.09Zm-1-.08c-.07,0-.16,0-.17.08s.16,0,.17-.08Zm-1,.08c.17-.05.54.11.57-.08a.4.4,0,0,0-.57.08Zm-.49,0c.26,0,.34-.1.41-.25-.23,0-.44,0-.41.25Zm-2.27-.25c-.07,0-.17,0-.17.09s.16,0,.17-.09Zm1.62,0h.25c0-.15.12-.22,0-.25,0,.14-.29-.11-.25.25Zm27.17,1.88a5.47,5.47,0,0,0,1.06-2,7.72,7.72,0,0,0-1.06,2ZM8,18.24c.12.28.2-.33,0,0Zm-1.62,0c-.2.28.27-.21,0,0Zm-.74.5a7.41,7.41,0,0,0-1.54-.5c.4.47.91.34,1.54.5Zm1.63-.33c.29.11.52-.24.33-.34,0,.13-.18.06-.25,0,0,.16-.09.18-.08.34Zm20.09.08c.7.13.92-.23,1.22-.51a1,1,0,0,0-1.22.51ZM26,18.41a1.49,1.49,0,0,0,1.55-.51,1.65,1.65,0,0,0-1.55.51Zm-1.3,0c.27,0,1.16,0,1.38-.51-.63-.07-1.54,0-1.38.51Zm-5.45.08A1.38,1.38,0,0,0,20.58,18a1.08,1.08,0,0,0-1.38.51ZM9.76,18Zm-4.39.17a.56.56,0,0,1,.41.09c0-.15.38-.26.16-.34-.12.34-.53-.06-.57.25Zm23.1.42c.26-.11.27,0,.57,0,0-.39.74-.41.49-.75a1.71,1.71,0,0,0-1.06.75ZM4.88,17.9Zm25-.17c-.07,0-.17,0-.17.09s.16,0,.17-.09Zm-7,.68c.66-.13,1.53-.05,1.79-.59-.78-.29-1.77.12-1.79.59Zm-7.08.08c1,0,3,.48,3.58-.67-1.14-.38-1.57.81-2.11.5.06-.26.42-.24.48-.5a1.75,1.75,0,0,0-2,.67Zm-1.71,0c.22-.08.93.05,1.39,0,0-.44.49-.34.48-.76-.76-.1-1.86.13-1.87.76Zm10.74-.76Zm-12.28.59a1.54,1.54,0,0,0,1.71-.59,1.46,1.46,0,0,0-1.71.59Zm12.52-.76Zm-14,.59a1.38,1.38,0,0,0,1.71-.59,1.63,1.63,0,0,0-1.71.59ZM21.39,18c.39.1.57-.1.74.26-.53,0-1.08-.42-1.39.17a2.34,2.34,0,0,0,2.36-.76c-.74-.15-1.43-.43-1.71.33Zm-1.22-.25c.47.11,1,.14,1.14-.25-.56,0-.92-.18-1.14.25Zm-10,.34c.68.09.85-.35,1.22-.59a6.08,6.08,0,0,1-.81-.09c0,.35-.43.29-.41.68Zm-.33-.59c-.22.26.25-.23,0,0Zm-6.5,0Zm-.82.17c-.11-.42-.38-.13,0,0Zm34,2A11,11,0,0,0,38,17.31a5.18,5.18,0,0,0-1.46,2.36Zm-7.08-1.1c.31,0,.4.15.73.09.12-.64,1.37-1,1.22-1.35a4.14,4.14,0,0,0-1.95,1.26Zm-10.82-.92c.46-.06,1.2.17,1.3-.26-.62,0-1.05-.2-1.3.26Zm-1.71-.09c.44-.08,1.2.18,1.38-.17-.36-.14-1.23-.17-1.38.17ZM10,17.39c.05.06,0,0,0,0Zm-1.14.51c.5.07.49-.39.73-.59-.19-.11-.15,0-.41-.08a2.77,2.77,0,0,0-.32.67Zm6.34-.42c.57-.06,1.2.29,1.47-.17-.53-.1-1.23-.31-1.47.17Zm-7.48.25c.37.05.62-.47.57-.59-.1.3-.46.31-.57.59Zm24.81-.5c0-.11.13-.18-.08-.17-.75.51-1.44,1.09-2.2,1.6.3-.06.35.14.65.08a4.3,4.3,0,0,1,1.63-1.51Zm-13.75-.17c-.09,0-.23,0-.24.08s.23,0,.24-.08Zm-12.85.08c-.42.37.26-.15,0,0Zm7.73.25c.64.09,1.1.17,1.46-.33-.66-.12-1.14-.07-1.46.33ZM15.29,17Zm-3,.34c.58.12,1.37,0,1.39-.42-.41,0-1.15,0-1.39.42ZM5.37,17c-.22.26.25-.23,0,0Zm5.53.17c.49.14,1.27.16,1.38-.33-.59,0-1.18,0-1.38.33Zm14.56-.33c.1.33.1-.34,0,0Zm-15.29.33c.31,0,.37-.18.49-.33-.25-.23-.41.13-.49.33Zm-.65-.08c.34.07.41-.14.49-.34a.74.74,0,0,0-.49.34Zm11.39-.42c-.1,0-.23,0-.25.08s.23,0,.25-.08Zm-6.07-.1h-.56v.58h.56v-.58Zm-6.05.27c.09,0,.05.09,0,.16a.37.37,0,0,0,.48-.25c-.12-.14-.38,0-.48.09Zm-1.14-.09c.09.33.09-.33,0,0Zm-1.39,0c.12.28.21-.33,0,0ZM20,16.64c0,.05,0,0,0,0Zm-.65,0c.05.05,0,0,0,0Zm-11.31-.1c0,.15-.12.22,0,.25s.48-.39.25-.25ZM7,16.89c0-.19.48-.21.24-.34,0,0-.49.13-.24.34Zm-5.21-.25c.05.05,0,0,0,0Zm11.47,0c.22,0,.63.24.73.08-.19,0-.09-.24-.24-.25s-.38-.06-.49.17Zm-7.57.08c0-.12.14-.14.17-.25-.17-.07-.37.22-.17.25Zm15.79-.25Zm-9.77.08c.23-.05.93.38,1.06-.08-.41.17-.81-.22-1.06.08Zm-1.13,0c.25-.07.3.08.4.17.08-.15.3-.14.33-.33-.27,0-.71-.12-.73.16ZM37.34,19a4.54,4.54,0,0,0,2.44-2.69c-1.3.39-1.68,1.75-2.44,2.69Zm-3.91-2.6c-.44.24.64-.25,0,0Zm-7,0c-.2.28.27-.21,0,0Zm-.57,0c.12.27.2-.33,0,0Zm-.49-.09c-.67.08-.07.36,0,0Zm-1.22,0c-.09.49.35,0,0,0Zm-1.06.17c.27,0,.35.15.65.08,0-.14.12-.21,0-.25-.13.22-.54-.18-.65.17ZM9.21,16h0v.58h0V16Zm-.67.59c0-.13.21-.06.16-.25-.12,0-.3,0-.32.09s.07.14.16.16Zm-1.06-.16c.06.05,0,0,0,0ZM2,16.39c.06.05,0,0,0,0Zm19.85,0a1.49,1.49,0,0,0,1.06,0c-.3-.08-.94-.24-1.06,0Zm-.89.15h.48c.05-.34-.47-.12-.48,0Zm-.17-.32c-1.08-.1-.77.25,0,0Zm-1,.08Zm-7.49-.08c.06.05,0,0,0,0Zm21.48.33a1.09,1.09,0,0,0,.89-.5,2.67,2.67,0,0,0-.89.5Zm-15.62-.33c.45,0,1.07-.1,1.38.08-.15-.28-1.33-.24-1.38-.08Zm-.24-.09a.08.08,0,0,0,.16,0c-.41-.24-1.1.07-.16,0Zm-7.65,0c.05.06,0,0,0,0Zm23.27-.08ZM24.16,16c-.06,0-.16,0-.16.09s.16,0,.16-.09Zm-7,0c-.09,0-.23,0-.24.09s.23,0,.24-.09ZM9,16c-.1,0-.23,0-.24.09S9,16.06,9,16Zm16.51.09c.19,0,.31,0,.33-.17a.36.36,0,0,0-.33.17Zm-1,0c.14,0,.4.08.32-.17-.18,0-.3,0-.32.17ZM7.65,16c0,.06,0,0,0,0Zm15.7,0c0-.09.09-.2,0-.08-.72-.06-.72.14,0,.08Zm11.47.34c.62-.25,1.46-.28,1.87-.76-.68.2-1.52.23-1.87.76ZM39.29,18c.93-.55,1.32-1.66,2-2.52-1.12.29-1.62,1.68-2,2.52ZM26.6,15.54c-.2.28.27-.2,0,0Zm-2.52-.08c.05,0,0,0,0,0Zm.73.17c.35.07.9-.08.65-.34a.87.87,0,0,0-.65.34Zm-.57-.26ZM23,15.63c.31,0,.94,0,.82-.34a1.17,1.17,0,0,0-.82.34ZM8.87,15.37c.05.06,0,0,0,0Zm9.84-.16c-.49.07-.72-.08-1.06.08.29,0,.82.22,1.06-.08Zm-3,0c.07.27-.21.17-.24.33.91-.07,2.18.37,2.76.09-.66-.41-1.71-.07-2.52-.42Zm-6,.08c-.07.5.05-.34,0,0Zm-1.3,0c.54.21.37-.28,0,0Zm11.88.59c.78-.08,1.23.27,1.62-.09-.15,0-.35,0-.32-.25a1.22,1.22,0,0,0,1.3-.25c-.7,0-1.06,0-1.38-.17-.37.3-.88.44-1.22.76Zm-1.71-.09a2.16,2.16,0,0,0,2.19-.67c-.48.2-1.31-.18-1.62.34a.77.77,0,0,1,.65.17c-.45,0-.9-.34-1.22.16Zm-3.17-.58Zm18.7.67A1.75,1.75,0,0,0,35.3,15c-.34.34-.87.5-1.22.84Zm-17.89-.76c0,.06,0,0,0,0Zm-2.2.25c.5.08.91.13,1.22-.16a.9.9,0,0,0-1.22.16ZM3.91,15.12A.59.59,0,0,0,4.15,15c-.11,0-.45.14-.24.17ZM31.24,15c.05.06,0,0,0,0Zm-3.42,0c.05.06,0,0,0,0Zm-15,.34c.43.05,1.16,0,1-.34-.19.08-1-.3-1,.34Zm22.37.42a7.84,7.84,0,0,0,1.22-.84,2.57,2.57,0,0,0-1.22.84Zm-8.95-.58a.74.74,0,0,0,.49-.33h-.32c.06.22-.16.16-.17.33Zm-.73,0c.32.12.56-.26.41-.33-.07.18-.38.1-.41.33Zm-14,0c.47.05.9.18,1.06-.25a1,1,0,0,0-1.06.25Zm-2.68-.33c-.07,0-.17,0-.17.08s.16,0,.17-.08ZM24,15.12c.12-.08.49-.32.32-.42,0,.19-.54.27-.32.42ZM8.46,14.7c-.42.2.28.22,0,0Zm-1.06,0c-.06,0-.16,0-.16.09s.16,0,.16-.09Zm-.32.09Zm-.33,0c.06.05,0,0,0,0Zm-.89,0c-.43.22.31-.17,0,0Zm36.2-.09c0,.06,0,0,0,0Zm-17.49.42a.91.91,0,0,0,.65-.42c-.34-.1-.64,0-.65.42Zm-8-.17a1.56,1.56,0,0,0,1.47-.33c-.71,0-1.06,0-1.47.33Zm19-.33ZM21.88,15c.64.1,1.75.26,2-.33-.53,0-1.38-.22-2,.33Zm-1.79,0c.41-.09,1.4.16,1.71-.42-.53.09-1.47-.07-1.71.42ZM15,14.87c.55,0,1.08.22,1.46-.25-.8.07-1-.2-1.46.25Zm25.54,2.27c1.25-.07,1.84-1.89,2.36-2.69-1.25.42-1.69,1.67-2.36,2.69ZM18.14,15a2,2,0,0,0,1.79-.51,2.07,2.07,0,0,0-1.79.51Zm-4.72-.25c.3-.11,1.18.16,1.39-.26-.23-.13-1.31-.09-1.39.26Zm-1-.09a.79.79,0,0,0,.73-.25c-.34.08-.52,0-.73.25Zm-2.12-.17ZM36,14.7c.18,0,.47-.28.32-.34-.07.15-.3.14-.32.34Zm-22.7-.25c.05.05,0,0,0,0Zm-2.85.42c-.17-.53-.79,0-1.05.08a3.29,3.29,0,0,0,2.68-.5c-.79-.21-1,.29-1.63.42Zm8-.59c-.22.05-.64-.11-.73.08.22,0,.65.11.73-.08Zm-1.3,0c-.52-.1-.18.26,0,0Zm8.38,0c.06.05,0,0,0,0Zm-1.71,0c-1,.07,1.2.09.57,0a1.44,1.44,0,0,0-.57,0Zm-7.64.08c.17,0,.53.11.57-.08s-.74,0-.57.08Zm-.9-.08c.06.05,0,0,0,0Zm-6.1.17c.06-.07.53-.11.25-.26,0,.15-.49.16-.25.26Zm-2.28-.17c.06.05,0,0,0,0Zm29.86-.09c-.22.26.25-.22,0,0ZM15,14.19c.25.24-.22-.25,0,0Zm-.16,0c-.31-.23-.36.31,0,0Zm21.39,1.1A5.09,5.09,0,0,0,38.88,14a5.81,5.81,0,0,0-2.68,1.26ZM19.93,14.11c.05.06,0,0,0,0Zm-.73,0c.05.06,0,0,0,0Zm11.71.34c.24,0,.31.17.65.25a.58.58,0,0,0-.4-.76c-.05.2-.36.14-.25.51Zm-9.52-.34c.33,0,.87.11,1.06-.08-.43,0-.75-.22-1.06.08Zm-1.22,0a.68.68,0,0,0,.74-.17,2.06,2.06,0,0,0-.74.17ZM16.59,14c.06.05,0,0,0,0Zm-2.84,0Zm-.82,0c.06.05,0,0,0,0Zm-3,0Zm-2.61.5a3.09,3.09,0,0,0,1.87-.59c-.73,0-1.65.18-1.87.59Zm29.78-.25c.25,0,.73-.48.56-.34a.78.78,0,0,0-.56.34Zm-10.74-.34c.2.33.12-.28,0,0Zm-.9.09c.12,0,.42.1.41-.09a.26.26,0,0,0-.41.09Zm-.73-.17c-.52-.1-.18.26,0,0Zm-.57.08c.05.06,0,0,0,0Zm-11.39,0Zm-1-.08c-.1,0-.23,0-.25.08s.23,0,.25-.08Zm30.26,2.69a14.57,14.57,0,0,0,2-2.78,7.16,7.16,0,0,0-2,2.78Zm-4.23-2.69ZM14.15,13.8c0-.21-.26,0-.24.08.29,0,.49-.05.57-.25h-.16c-.11,0-.08.15-.17.17Zm15.46.06c.2-.2-.27-.22-.24-.09s.27.06.24.09Zm19.12-.09a.45.45,0,0,0,.49-.25.49.49,0,0,1-.41,0,.41.41,0,0,1-.08.25Zm-17.9.34c-.22-.1,0-.44,0-.59-.42.1-.27.74,0,.59Zm-7.56-.5Zm-8.06-.17c-.14.05-.48-.1-.49.08.15,0,.48.1.49-.08Zm-4.23,0c.19,0,.31,0,.33-.17-.19,0-.31,0-.33.17Zm-1.38,0a1.54,1.54,0,0,0,1.06-.17c-.35.06-1-.16-1.06.17Zm-1,0c.21,0,.49,0,.49-.26a.81.81,0,0,0-.49.26Zm28.15.08c-.32.16-.8.34-.81.59a5.92,5.92,0,0,0,1.95-1,2.91,2.91,0,0,0-1.14.42Zm-4.56,1.27a26.64,26.64,0,0,0,2.28-1.61c-.44-.11-.49,0-.89.09-.1.18,0,.54-.25.59s-.1-.23-.32-.17c-.21.41-.73.48-.9.93.07,0,.16,0,.17.08-.17,0-.18.33-.09.09Zm.49-1.18c.19,0,.53-.35.33-.51-.09.12-.49.66-.33.51Zm-1-.17c0-.21-.13-.27-.25-.34,0,.22,0,.36.25.34Zm-2,0a1.6,1.6,0,0,1,.65.33c-.06-.23.12-.21.08-.42-.29.27-.77-.55-.81-.25.12,0,.08.2.08.34Zm10.74-.51a4.61,4.61,0,0,1-1.46.42c0,.34-.83.32-.65.59.49-.36,2.23-.56,2.11-1ZM31,13.1c.26,0,.23-.21.33-.34a.4.4,0,0,0-.33.34Zm7.81.08c.28-.14.94-.32.82-.58-.2.18-1,.6-.82.58Zm-.08-.58c-.06,0-.16,0-.16.08s.16,0,.16-.08Zm-6.59,1a2.55,2.55,0,0,0,.82-1c-.5.1-.64.57-.82,1Zm-11.3-.93Zm-.17,0c.06.06,0,0,0,0Zm8.63.5c-1.71-1-5.29-.66-8-.58a54.69,54.69,0,0,1,8,.58Zm-8.14-.58c.05.05,0,0,0,0ZM48.08,14c.71-.19,1-1.24,1.22-1.69C49,13,48.15,13.46,48.08,14ZM35.22,12.76c.23.07.21-.11.41-.08a.38.38,0,0,0-.16-.34c-.09.13-.27.18-.25.42Zm-1.1.09a.43.43,0,0,1,.41-.25v-.17c-.08,0-.1-.07-.16-.09,0,.19-.49.33-.25.51Zm6.31-.68c0,.06,0,0,0,0Zm-1.87-.08c-.06,0-.16,0-.16.08s.16,0,.16-.08Zm-2.2.08Zm-.57,0c.12.28.21-.32,0,0Zm-3.9.93a1.92,1.92,0,0,0,.65-.93c-.12,0-.21-.12-.33-.16,0,.45-.58.6-.32,1.09ZM49.62,12c-.22.25.25-.23,0,0Zm-8.13.5c.14-.22,1-.44.73-.59-.55.34-1.82.36-1.95.84a1.72,1.72,0,0,1,1.22-.25ZM39.62,12Zm-6.19.84c0-.37.69-.58.49-.93-.1.32-.64.63-.49.93Zm1.71-.68c0-.13.26-.07.16-.33-.19-.08-.26.38-.16.33Zm9.44,1.35c-.39,1-1.33,1.82-1.63,2.61,1.63-.45,2-2.64,3.26-3.2-.55.84-1.16,1.61-1.71,2.44C45.92,15.1,46,13,47.1,12.68c-.39.86-1.06,1.43-1.46,2.27,1.15-.6,1.53-2.45,2.68-2.78-.54.9-1.52,1.66-1.71,2.45a25.31,25.31,0,0,0,2.2-2.87,37.5,37.5,0,0,0-4.23,1.77Zm-7.81-1.77a.39.39,0,0,0,.41-.16c-.2-.05-.63.31-.41.16Zm5.69-.16c.06.05,0,0,0,0Zm-1.7.5a7.11,7.11,0,0,0,1.05-.59c-.51,0-1.07.35-1.05.59ZM34.41,12c.24.31.61-.12.65-.51-.1,0-.11-.11-.24-.08,0,.33-.28.39-.41.59ZM33,12.26c.16,0,.16.11.24.17.2-.33.53-.52.65-.93-.12,0-.2-.12-.32-.17-.16.34-.39.61-.57.93Zm-29.7-.51a.43.43,0,0,1-.4-.42c-.12.05-.42-.1-.41.09.21.11.54.56.81.33Zm30.92-.08c.19,0,.52-.29.32-.42-.05.19-.27.22-.32.42Zm-5.62-.34a3.72,3.72,0,0,1,3,1.27c.09-.36.46-.43.49-.85-.32-.11-.55-.32-.89-.42-.62.4-1.83-.38-2.61,0Zm9.93-.17c-.06,0-.16,0-.16.09s.16,0,.16-.09Zm.24-.08c-.06,0-.16,0-.16.08s.16,0,.16-.08Zm-1.54.08c.09.34.09-.33,0,0Zm-1.55.59c.11-.24.4-.31.41-.67-.19.11-.62.43-.41.67Zm.57-.08c.19-.19.83-.38.65-.67-.26.13-.84.36-.65.67Zm-.73-.34c0-.16.11-.16.16-.25a.63.63,0,0,0-.49-.08.31.31,0,0,0,.33.33ZM32.78,12c.11-.34.42-.47.49-.85a8.57,8.57,0,0,1-2-.16,10,10,0,0,1,1.54,1Zm-2.19.92c.2.17.3-.3.4-.5-.8-.83-2.26-.72-3.09-1,0-.14.67,0,.41-.17-1.11-.16-2-.06-3-.25-.11.21.32.26.08.33-.5-.07-1.32-.19-1.54.26-.11.19.51.37.48.33s-.09.16-.08.17a3.46,3.46,0,0,0,.9.08c1.76.09,4.1-.13,5.28.68.17.07.17-.43.25-.17,0,.11-.11.12-.08.25ZM30.91,11c.1.33.1-.34,0,0Zm11.88.5c.5-.32,1.43-.2,1.79-.67-.62.15-1.69.27-1.79.67Zm-12.12-.67c-.1,0-.23,0-.25.08s.24,0,.25-.08Zm-.73,0c.53.27.33-.24,0,0Zm-.08-.09c-.15,0-.48-.1-.49.09.14-.05.47.1.49-.09Zm11,0c0,.06,0,0,0,0Zm8.46,2.19a1.54,1.54,0,0,0,1-1.77,1.91,1.91,0,0,0-2.11-.5,32.83,32.83,0,0,0-6.92,3.53A56.25,56.25,0,0,0,36,17.65c.17,0,.25.07.24.25-.33.19-.42.63-.65.93.77-.24.9-1.15,1.46-1.6.21.24-.14.48,0,.59.42-.28.48-1.36,1.06-1.18,0,.29-.46.46-.24.67.76-.34,1.05-1.6,1.71-1.77.09.5-.67.55-.41.93.89-.32,1.08-1.32,1.87-1.68,0,.34-.36.29-.33.67.72-.16,1-.76,1.55-1.1.18.12-.1.21.08.26a37.75,37.75,0,0,1,4-2.19A14.06,14.06,0,0,1,50,11.25c-.19.34-.39.15-.73.34-.25.92-1.56,1.67-1.63,2.6.66-.92,1.51-2.42,2.44-2.52-.12.55-.51.82-.73,1.26ZM34,10.74a4.26,4.26,0,0,0-1.22-.33,1.11,1.11,0,0,0,1.22.33Zm5.37-.17a.37.37,0,0,0,.33-.16c-.15-.16-.25,0-.33.16Zm-5.94,6.32c-.84.57-2,1.19-2.35,2,1,.22,2.31.1,3.09.76.33-.31.22-1.49.89-1.18-.09.59-1.1,1.31-.41,1.68.08-.29.39-.59.09-.59a5.33,5.33,0,0,0,1-1.93,7.14,7.14,0,0,1-1.54.92,76.5,76.5,0,0,1,13.83-8.25c-1.12,0-3,.24-3.75,1.1-2.69.94-4.33,2.81-7,4.12-.15.15.11.26-.16.34-1.58.56-3.19,2.26-4.56,3,.89-.82,1.74-1.68,2.68-2.44a6.57,6.57,0,0,0-2.44,1.09c0-.29.9-.55.57-.67Zm13.43-6.57c0,.06,0,0,0,0Zm-8.22.51c.31-.13.45-.43.65-.68-.27.12-.73.48-.65.68ZM42.79,10c-.42.2.28.21,0,0Zm-7.89.84c-.38-.11-.53-.92-.9-.76.21,0,.2.31.08.42.35,0,.62.48.82.34ZM43.11,10Zm1.39-.26c0,.06,0,0,0,0Zm-12.29,0Zm-.48-.08c-.27,0-.38-.06-.57-.09-.1.28.55.21.57.09Zm-1,0c.05,0,0,0,0,0Zm-.08-.09c-.1,0-.23,0-.25.09s.24,0,.25-.09Zm12.61,0c0,.06,0,0,0,0Zm-1.71.51a.85.85,0,0,0,.49-.25c-.15-.08-.14-.31-.33-.34-.07.18-.21.29-.16.59Zm-1.22.25a1.06,1.06,0,0,0,1-.25c-.26-.06-.12-.54-.4-.59-.07.41-.49.45-.57.84Zm-8.3-.84ZM43.53,9H43v.58h.56V9ZM32.38,9.4Zm-2,0c.22-.06.65.1.74-.09-.38,0-.52-.16-.74.09Zm10.74-.17c.16,0,.06.28.25.25,0-.12.13-.14.16-.25s-.34-.3-.41,0Zm4.48-.17Zm-7.89,2a10,10,0,0,0,2-2.1,9.47,9.47,0,0,0-2,2.1Zm4.71-1.35c.61.1.8-.6.82-.84-.51,0-.59.51-.82.84ZM32,9.06c0-.18-.07-.27-.24-.25-.06.22.16.16.24.25ZM46.53,9c.21.08.47-.18.25-.26,0,.16-.27.06-.25.26Zm-4.31.5c.12-.35.47-.46.57-.84-.49,0-1.13.56-.57.84ZM3.34,11.08a18.21,18.21,0,0,0,9.19-2.52c-2.7,1.29-6.35,1.84-9.19,2.52Zm44.9-2.69c-.06,0-.16,0-.16.08s.16,0,.16-.08ZM39.37,9.9c.48-.28,1.37-1.25,1.3-1.51a6.53,6.53,0,0,0-1.3,1.51Zm9.85-1.51Zm-4.48.84c0-.2.36-.05.41,0,.11-.28.35-.42.49-.67-.19,0-.09-.25-.25-.26-.09.38-.81.56-.65.93Zm-3.25-.34c.15,0,.18.1.32.09,0-.25.63-.51.25-.68,0,.48-.28,0-.33.17.21.11-.29.2-.24.42Zm-1.39-.5c.06,0,0,0,0,0Zm-.16-.09Zm-1.87-.08c-.06,0-.16,0-.16.08s.16,0,.16-.08Zm-6.43.84c.06-.75-.92-.79-1.3-.84a1.19,1.19,0,0,0,1.3.84Zm11.23-.93c-.22.26.25-.23,0,0Zm.89.76c0,.25.19.26.17.51.56-.27.79-.87,1.22-1.27A3,3,0,0,1,44.58,8a2.28,2.28,0,0,1-.82.92ZM41.24,8.3c-.14.65-1.47,1.18-1,1.69.39-.75,1.29-1.42,1.54-2a.79.79,0,0,1-.57.33ZM39.7,8.13Zm7.56.59c0-.36.41-.31.41-.67-.11,0-.07-.15-.16-.17,0,.31-.64.63-.25.84ZM46,9.06c.3-.31.76-.45.74-1.09-.11,0-.12-.11-.25-.09,0,.53-.63.47-.49,1.18Zm-2.68-.42c.42.21.61-.47.89-.67-.15,0-.18-.1-.32-.09-.08.36-.45.43-.57.76Zm0-.42c0-.17.22-.17.24-.34-.12,0-.42-.1-.4.09.13,0,0,.23.16.25Zm-9,1.26c0-.05,0-.1.08-.08.42.74,1.63,1.85,2.44.75a.59.59,0,0,0,.17.26c.35-.14.38-.61.89-.59,0,.6-.48.63-.65,1a1.21,1.21,0,0,0,.89-1.27c.27,0,.4-.1.41-.33-.56-.34-1.21-.6-1.38-1.35-.66.41-1.7-.11-2,.68a11.48,11.48,0,0,0,1.55-.34c-.63.85-2.15.35-2.44,1.26ZM45.72,8.13c.06,0,.09.07.08.17.31-.07.39-.38.57-.59-.3-.22-.59.14-.65.42Zm-9.93-.25c.38-.23,1.21,0,1.47-.34-.48.07-1.48,0-1.47.34ZM45,7.71c.35.28.72.09.81-.33a.53.53,0,0,0-.81.33Zm-.74-.08c.4,0,.6-.11.65-.42-.35,0-.58.12-.65.42Zm2.69,0c.08.11.08.31.24.34.18-.19.53-.59.16-.85-.06.25-.43.17-.4.51Zm-3.66.18H44c.05-.18.17-.27.24-.42-.52-.07-.86.06-1,.42Zm4.55,0c.32-.07.78-.43.57-.76-.15.29-.46.42-.57.76ZM37.75,7.12c0,.06,0,0,0,0Zm-2.28.09c-.37-.44-.43.47,0,0Zm-1.3,0A.25.25,0,0,0,34,7a.25.25,0,0,0,.17.26Zm1.62.25c.73,0,1.13-.24,1.87-.17-.08-.26.05-.43-.24-.59-.38.44-1.32.49-1.63.76ZM34,6.79c.06,0,0,0,0,0Zm2.77-.09c0,.06,0,0,0,0Zm9.52.59c.1.09.3.08.4.17.14-.26.38-.39.49-.67-.16,0-.21-.17-.32-.26a3.36,3.36,0,0,1-.57.76ZM35.47,6.62c.09.33.09-.33,0,0Zm-3.09,0ZM45.56,7c.24-.06.23.14.48.08s.49-.33.57-.67c-.26,0-.38-.06-.57-.08-.17.21-.3.47-.48.67Zm-7.49-.59s0,0,0,0Zm-.24-.08c0,.19-.24.09-.25.25s.47-.16.25-.25Zm-.17.5c.18,0,.45-.25.25-.34,0,.18-.22.17-.25.34Zm-5.53-.42Zm13-.08c0,.25-.21.28-.25.5.38.25.84-.37.74-.59,0,.19-.35,0-.49.09Zm2.44.42a.87.87,0,0,0,.24.5c.16-.29.47-.41.57-.76-.11-.13-.2-.29-.4-.33,0,.33-.27.4-.41.59ZM37.34,6.7V6.45c.07,0,.16,0,.17-.08-.26.14-.34-.32-.41-.09.19,0,.08.37.24.42Zm-7-.08c.47.14-.12.43-.16.59.14.16.09.52.16.76a.63.63,0,0,1,.49.08,2.79,2.79,0,0,1-.16-1.85c-.13.12-.28.21-.33.42Zm3.5-.76c0,.06,0,0,0,0Zm3.41-.17c.1,0,.09.14.09.25.33,0,.31-.11.56,0V5.61c-.15-.15-.58-.11-.65.08Zm6-.34c0,.06,0,0,0,0Zm-8.46-.08c-.07,0-.16,0-.17.08s.16,0,.17-.08ZM44.17,5c.06.05,0,0,0,0Zm-7.32-.09c.27.18,1.47.44,1.47.09a2.63,2.63,0,0,0-1.47-.09ZM49,7.71c.25-.1.2-.52.41-.67s.32.33.32-.09c.29-2.16-2.77-2.44-4.71-2a4.22,4.22,0,0,1,3.58,1.35c.31,0,.09-.46.48-.34.28.36-.53.56-.24.93.18.11.45-.43.73-.5,0,.63-.8.79-.57,1.34ZM44.42,4.85c0,.06,0,0,0,0Zm-3.91-.42c.1.33.1-.33,0,0Zm-6.83,1c.65-.14.92-.67,1.54-.84-.19,0-.15-.3-.4-.26-.22.54-.89.6-1.14,1.1Zm2.93-1.18c-.07.5,0-.34,0,0Zm4.06-.08c-.15.32.22-.45,0,0ZM33.92,9.56c-.19-.06-.27-.71,0-.75.66.13,1-.75,1.38-1.18-.18-.26-.67-.2-.73-.59.41,0,.34-.49.33-.93.31,0,.25-.12.57-.25.2.07.21.35.32.51.28,0,.57,0,.65-.17-.24,0-.41-.25-.24-.42-.27,0-.59.19-.73-.09.26-.59,1-.71.89-1.68-.25,0-.33.1-.4.25.21-.06.15.17.24.25-.54.33-1,.21-1.38.68.26,0,.48-.4.65-.17-.3.56-1.12.58-1.39,1.18.22-.1.57-.31.74,0-.08.14-.15.29-.41.25,0,.48.14.75.08,1.26-.22-.06-.16.17-.32.17-.13-.37-.48-.52-.49-1a2.19,2.19,0,0,1-2.52-.67,1.8,1.8,0,0,0,2.27,2.44c0,.12.14.14.17.25-.17.41-.48.18-.74.42.16.24.91.3,1.06.25Zm9-5.13c.14-.19.47-.2.49-.51-.21.05-.61.66-.49.51Zm-.24-.25c0-.1.14-.19,0-.26,0,.1-.15.2,0,.26ZM43,3.84c.06.05,0,0,0,0Zm1.55.25c-.19.18-.65.5-.57.68.39-.42,1-.63,1.38-1a.86.86,0,0,0-.65-.17c-.05.17-.2.24-.16.5ZM43,4.93a3.22,3.22,0,0,0,1.39-1.34A3.73,3.73,0,0,0,43,4.93Zm.82-1.34c-.41.11-.13.4,0,0Zm-.57.08c0,.06,0,0,0,0Zm-5,3.12c.16-.11.2-.35.4-.42,0,.11.14.07.16.16,0,.28-.32.56,0,.76,0-.12.2-.08.33-.08.17.25.15.52.33.59s-.07-.52.16-.51c.62,1.18,2.09.46,2.52-.42a.86.86,0,0,1-.16.93c.31,0,.26.26.08.33.64,0,.68-.64,1.06-.92-.08-.09-.3,0-.25-.26.62.11.86-.62,1.14-.58-.08.11-.08.31-.16.42.38,0,.27,0,.65.08,0-.27.31-.3.32-.59-.28,0-.78.14-.73-.25a6.38,6.38,0,0,1,2.69.25c.11-.14.35-.59.57-.34,0,.24-.39.11-.33.43.35.35.63-.06.81-.34a4,4,0,0,0-3.25-.93c-.54.15-1,.9-1.63.51A1.84,1.84,0,0,1,42.71,7c0-.29-.31.22-.33-.08.47-.86-.24-1.75-.08-2.53-.31-.18-.7-.28-.73-.75a1.37,1.37,0,0,1-.57,0c.28,1.56-1.52,2.33-2.77,2.86.29,0-.14.37.09.34Zm6.34-3.37c-.06,0-.16,0-.16.08s.16,0,.16-.08Zm-1.14.08c0,.06,0,0,0,0Zm-8.38,0a3.39,3.39,0,0,0,.16.59c.37,0,.45-.21.41-.59-.29.08-.43-.15-.57,0ZM44,3.42c.09.33.09-.33,0,0Zm-1.95-.09c0,.06,0,0,0,0ZM32,3.25ZM23.84,3c-.3,0-.47-.19-.74-.17-1.59.14-2.51,1.58-3.66,2.1a15.58,15.58,0,0,1-2.76,1.6c-3.89,2.14-7.75,5-13.1,4.8a4.23,4.23,0,0,0,2.77,1.1,72.75,72.75,0,0,0,14.8-.34c-.27,0-.68.14-.73-.25,1,.14,2.39.11,3.74.25-.19-.13-.68-.32-.73-.84.38-.27.6-.19,1.22-.17.16,0,.84,0,.4-.08-2-.2-4.41-.27-6-.51.24-.51.78-.12,1.13-.08,2.53.26,5.51.4,8.55.59-.08-.23.26-.34.57-.17.07-.31-.37-.07-.33-.34a20.78,20.78,0,0,0,3.09.17,1.31,1.31,0,0,1-.89-.25c.08.25-.18.15-.33.16-2.55-.43-5.4-.56-8-.75-.61-.05-2.13-.16-2.28-.68a28.18,28.18,0,0,0,3.82.51c2.88.24,6.11.83,8.46.42a16.84,16.84,0,0,1-3.25-.42c.13-.3.58.11.73-.25a52.91,52.91,0,0,0-5.29-.59c-.58-.05-1.31.29-1.7-.25.54-.34,1,0,1.38.08C26.58,9,29,8.75,30.51,9a1.52,1.52,0,0,1-.41-.85c-2.54-.24-4,0-6.1-.5.46-.45,1-.09,1.54,0a25.36,25.36,0,0,0,4.56.17c-.17-.25-.09-.76-.24-1-1.56,0-2.77-.1-3.75-.09-.46,0-1.39.44-1.54-.33,1.89.13,3.47.1,5.37.16.25-.44.78-.59,1-1-1.56-.53-3.57.13-5-.59,1.23-.13,3.77.19,5.21.17.13.22,0,.69.4.42a2.86,2.86,0,0,1-.48-2.27,30,30,0,0,0-6.67.08c-.61,0-1.51.61-1.79-.08,2.19-.19,6.06-.46,8.78-.5C29,2,26,3.21,23.84,3ZM36.2,2.49c.08.48.43.68.65,1,.08-.55.11-1.06-.41-1.18,0,.15-.08.2-.24.17Zm-1.87-.17ZM33.19,5.27c.46-.45,1.19-.62,1.46-1.26-.26-.53-.54-1.33-1-1.35,0-.1.14-.19,0-.25a.24.24,0,0,1-.25.17c0-.18.25-.17.08-.34-.4,0-.68.07-.73.42.22.09.67.37.41.67-.41,0-.4-.37-.73-.42-.06.75-.56,1.06-.74,1.69.46.34,1,.09,1.31.59.29-.54,1-1.51,1.54-1.18-.49.31-1.18.85-1.3,1.26Zm10.17-3.7c-.16.32.21-.45,0,0Zm-1.55-.09c.25,0,.32-.23.49-.33-.2.07-.47.07-.49.33Zm.57-.33c.06.05,0,0,0,0ZM1.47,22.53c0-.4.39-.32.24-.84.2-.17.27.22.57,0-.26-.12-.07-.28.08-.42,0-.22-.14.11-.33,0,.16-.46.06-.33,0-.84.88-.47,1.78-.92,2.69-1.35-.62-.22-1-1-1.79-.59-.6-.67-1.42-1.12-1.63-2.19,1.16-1.52,3-2.32,4.88-3.12-1.54-.38-4-.66-4.47-2.35.41-.15,1-.16,1.3-.59,0,.2.15.18.08.42,1.29-.39,2.78-.36,4.31-.76a15.28,15.28,0,0,0,1.79-.76c2-.75,3.83-1.2,5.53-2s3-1.93,4.64-2.94c.44-.26,1-.38,1.47-.68A7.19,7.19,0,0,1,23,2.24c1.59.72,4.67-.18,7.24,0a9.35,9.35,0,0,0,1.47.17c.32-.06.57-.42.89-.51a7.71,7.71,0,0,1,2.2,0c.15.51-.55,1.08-.08,1.69a4.07,4.07,0,0,0,.32-.93c.27-.14.31,0,.65,0,.18-.09-.1-.39,0-.67A3.38,3.38,0,0,1,39.13.89a2.31,2.31,0,0,1,.41,1.77c-.08-.05-.15-.1-.17,0-.44,0-.11-.78-.4-.93-.39-.7-2.27-.45-2.28.17a3.43,3.43,0,0,1,.41,2c.35.37,1.47-.06,1.62.51-.71.12-1.35-.25-1.62-.09.22.6,1.17,0,1.38.51.14,0,.25-.4.32-.17.29-.13.05.29.25.25s.18-.56.08-.92a7,7,0,0,1,1.54-2.36A9.16,9.16,0,0,1,43.44.56c.44-.18.65-.73,1.14-.51,0,.44-.36.47-.57.67a8.36,8.36,0,0,1-1.14,2.7,3.15,3.15,0,0,1,3.42.5,3.27,3.27,0,0,1,3.5,4.89c-.25.19-.56.33-.82.5a3.22,3.22,0,0,1,1.87,4.63,5.5,5.5,0,0,1-2,.85c0,.07,0,.07.08.08s-.07,0-.16,0c-2.88.55-5.49,2.1-8.22,3.54a23.85,23.85,0,0,0-5,3.28,5.35,5.35,0,0,1-2,1.6,16.06,16.06,0,0,1-5.78.25c-3.64-.35-7.36-1.13-11-1.6-2-.25-4.23-.24-6.43-.34a44.13,44.13,0,0,0-8.94.93Z"/></g></g></svg>