<svg xmlns="http://www.w3.org/2000/svg" viewBox="0 0 50.37 40.74"><defs><style>.cls-1{fill:#44341f;fill-rule:evenodd;}</style></defs><title>lotusldpi</title><g id="Layer_2" data-name="Layer 2"><g id="img"><path class="cls-1" d="M11.78,36.85c.06,0,0,0,0,0Zm-.42,0c.06,0,0,0,0,0ZM7.73,35.66c0,.06,0,0,0,0Zm7.86-.59c.05.06,0,0,0,0ZM17.45,35c-.23.25.25-.23,0,0Zm-1.27.84c.25-.23,1-.57.59-.93,0,.42-.69.66-.59.93Zm.76-1.1c0,.06,0,0,0,0Zm-.76-.5Zm2.11-.34c.06,0,0,0,0,0Zm-3.21,2.2c.83.14,1-.76,1.35-1.44.42-.84,1.45-2,1.1-2.79-.28,1.61-1.66,3.14-2.45,4.23Zm28-4.74Zm-9.72,2a13.08,13.08,0,0,0,2-2c-.56.38-1.9,1.15-2,2Zm-7.52-2c.1.34.1-.33,0,0Zm-11.74,4.9c.56.17.77-.48,1-.84a20.84,20.84,0,0,0,2.37-4c.27.15.25-.51.25-.59-1.38,1.81-2.39,3.52-3.63,5.4ZM34.6,30.76c-.34.73-1.3.84-1.43,1.78A9.3,9.3,0,0,0,35,30.85c-.2,0-.18-.16-.42-.09Zm8.79-.25c-.1,0-.24,0-.25.08s.24,0,.25-.08Zm-10.65,0c.06,0,0,0,0,0Zm9,.08c.28.12.64.25.85,0a4.23,4.23,0,0,1-.76-.25.38.38,0,0,1-.09.25Zm-8.61,1.19c.38-.55,1-.8,1.35-1.44-.6.27-1.46.73-1.35,1.44Zm9.46-1.44Zm-.17-.17c-.19.12-.32-.22-.34,0,.05,0,.33.21.34,0ZM6,30.09c-.1,0-.24,0-.26.08s.24,0,.26-.08ZM41.78,30ZM33,31c.28-.37,1-.67,1-1.09A1.92,1.92,0,0,0,33,31Zm8.53-1.18c-.06,0-.17,0-.17.09s.17,0,.17-.09Zm-36.25.09c.65.24-.46-.25,0,0Zm-.34-.09c0,.06,0,0,0,0ZM42.38,30c.37,0,.43.24.76.25,0-.16.24-.15.17-.42-.4,0-.88-.39-.93.17Zm-16.06-.25c-.2.28.28-.21,0,0Zm-16.14,0Zm30.59-.09Zm.93.76c-.31-.5-1.14-.49-1.61-.84a2.14,2.14,0,0,0,1.61.84Zm-8.62-.25c.07-.24.73-.5.34-.68-.13.14-.54.77-.34.68ZM26.15,31c.2-.64.73-1,1-1.52a2.07,2.07,0,0,0-1,1.52Zm-7.44-1.43c.06.05,0,0,0,0Zm22.74,0c.23.07.34.27.67.25,0-.16.1-.19.09-.34-.41,0-.52-.25-.76.09Zm-1.19-.17c.21.33.13-.28,0,0ZM40,29.24c.26.23-.23-.26,0,0Zm-.34-.08c.06.05,0,0,0,0Zm-8-.09Zm8.88.17c.47.05.72.44.93-.08-.4,0-.45-.29-.85-.26a.49.49,0,0,1-.08.34Zm7-.34Zm-8.37-.08c.06.05,0,0,0,0Zm-20.45,0c.06.05,0,0,0,0Zm-8.36.84c.41,0,.65-.7.59-.93-.13.38-.48.54-.59.93Zm33.8,5.41c-1.55-.76-2.38-2.24-3.55-3.38-.37-1-1.2-1.44-1.69-2.28a15.89,15.89,0,0,1-2.45-.17c.72-.44,1.57.07,2.11-.17a11.68,11.68,0,0,0-5.07-.25c2.18,1.34,3.62,5.67,7,5.41-.17.5-1.22.4-1.52.33-1.32-.27-2.68-2.13-3.55-2.87-.83,1.2-2.69,2.08-2.79,3.47a18.86,18.86,0,0,1,3-2.71c-.75,1.31-2,1.78-3,3,.36.11-.08.27,0,.59,1.3-.87,2.2-2.14,3.46-3-.75,1.36-2.19,2-3.12,3.21,1-.07,1.54-1.32,2.53-1.69-.38.86-1.28,1.2-1.86,1.86a5.76,5.76,0,0,0,1.1-.85c.14.67-1,.9-.68,1.19.65,0,.84-1,1.44-.76-.22.37-.67.5-.84.93.65.24.76-.3,1.26-.43.1.28-.59.45-.16.51,3.14,0,5.62-1.48,8.36-1.86Zm-19.69-6c.05-.41-.58-.15-.67-.42,0,.35.47.25.67.42Zm15.07-.16h0v0Zm8.26-.18c0-.12.13-.14.16-.25-.17-.07-.38.22-.16.25Zm-8.12.09c.28,0,.33.24.68.17a.4.4,0,0,1,.08-.26c-.25-.14-.71-.44-.76.09Zm-16.39-.26c0,.06,0,0,0,0Zm2.36,3.72c-.12.7.48,2-.25,2.71a14.49,14.49,0,0,0-.51-5.07c-.9-.33-1.42-1.13-2.19-1.36a2.76,2.76,0,0,0-1.78.34c-.25.1-.59.08-.76.17a3.62,3.62,0,0,0-1.44,4.31s.24,0,.26.09-.16.14-.09.25.34.16.42.25.27.59.43.76A22.57,22.57,0,0,0,22,36.59a16.52,16.52,0,0,1,3.46,3.21c2.08-1.63,5.33-2.89,6.6-5.49,1-2.12,0-4.29-1.27-5.83-2-.29-2.56,1.38-3.47,1.94.24-.46.92-.94.93-1.35a7.21,7.21,0,0,0-2.62,3.21Zm22.48-3.89c0-.14.4-.26.17-.33,0,.16-.46.19-.17.33Zm-8.7.26c0-.16.18-.21.17-.42-.31.05-.33-.19-.59-.17-.11.44.32.35.42.59ZM33,28.73c0-.25.31-.57.17-.67-.19.26-.52.48-.17.67Zm7-.42c.26,0,.38.18.59.25,0-.23.35-.21.34-.5a.6.6,0,0,0-.93.25Zm-5-.42c-.5,0-1.28.12-1.43.59,1.06-.07,2.92.06,4.31,0A4.55,4.55,0,0,0,35,27.89ZM33.33,28Zm5.16.17c.24,0,.21-.24.34-.34-.29-.05-.31.15-.34.34ZM28.6,27.8c-.87-.07-.25.35,0,0Zm-.67,0c-.08,0-.72.05-.34.09-.24,0,.54,0,.34-.09Zm5.57,0Zm-9.63.26c.38.06.95-.12.76-.34-.13.24-.58.16-.76.34Zm15.38-.17c.42.11.61.41.76-.17-.25-.16-.72-.27-.76.17Zm-13.61-.17a3.79,3.79,0,0,0,1.61.08c-.42-.13-1.16-.39-1.61-.08Zm12.51,0h.17c.09-.12.09-.21-.08-.25,0,.11-.11.11-.09.25Zm-1.77-.18c-.16,0-.56-.22-.68,0,.16,0,.56.22.68,0Zm-.85,0c.1.33.1-.33,0,0Zm-26,2.37a7.35,7.35,0,0,0,1.86-2.45c-.56.87-1.27,1.6-1.86,2.45Zm15.64-2.45Zm13.69.17c.24,0,.46-.29.17-.34,0,.16-.23.1-.17.34Zm-15.55,0c.11.1,1.33,0,1.27-.34a5.94,5.94,0,0,1-1.27.34Zm16.39-.26c.32-.09.24.21.51.17a.47.47,0,0,0,.34-.34c-.41,0-.73-.23-.85.17ZM25.9,27.13c-.1,0-.24,0-.26.08s.24,0,.26-.08Zm-3.72,0c-.07,0-.17,0-.17.08s.17,0,.17-.08Zm-.25,0c-.07,0-.17,0-.17.08s.16,0,.17-.08Zm16.64.25c0-.12.14-.14.17-.25a.4.4,0,0,1-.25-.09c0,.21-.16.27.08.34Zm-16.9-.25c-.11,0-.16-.12-.34-.09-.13.24.37.24.34.09Zm-.42,0c-.15,0-.49-.23-.59,0,.07.08.54.18.59,0Zm17.91,0c.15.21.51-.21.17-.26,0,.12-.14.15-.17.26Zm-14.11-.34c-.07.5.05-.34,0,0Zm-7.18,1.69c-.34.86-1.45,1.92-1.78,2.79a.43.43,0,0,1-.25-.26c.26-.44.82-1,.85-1.43-1.2,1.47-2,3.85-4.14,4.06a8.42,8.42,0,0,0,2.87-2.88,13.52,13.52,0,0,0,2.28-4.05c-.58.27-.34,1.36-1.1,1.94-.12-.4.33-.89.42-1.35a24.91,24.91,0,0,0-4.39.42c-1.84,2.05-1.7,6.08-3.8,7.86a4.5,4.5,0,0,0,3.38.84c.19-.15.3-.71.59-.5.06.2-.36.53,0,.5.41-.23.56-1.17,1.1-1-.08.39-.72.6-.51,1A12.51,12.51,0,0,0,15.84,33,18,18,0,0,0,18,29.41c.35-.26.44-.8.76-1.1-1.46,1.25-2.3,3.57-3.55,4.73.75-1.58,2.09-3,2.62-4.56Zm20.79-1.61a.4.4,0,0,1,.25.09c0-.12.14-.14.17-.25-.13-.14-.36,0-.42.16ZM8.57,30.09c1.16-.55,2-2.1,2.79-3.3,0-.1-.09-.13-.17-.17-.73,1.25-2,2.42-2.62,3.47ZM42.8,26.54a8.35,8.35,0,0,0-1.35,1.6c0,.12.32,0,.33.17-.34,0-.72-.11-.84.42.24.08.35.28.68.26.76-.65,1.26-1.56,2-2.2-.29,1.09-1.2,1.55-1.69,2.45.27,0,.33.12.51.17.68-.9,1.5-1.66,2.11-2.62a14.42,14.42,0,0,1-1.77-.25Zm-17.75.08c.06.06,0,0,0,0Zm15,.34c.31-.05.41.1.6.17.09-.22.3-.32.33-.59-.51-.16-.83,0-.93.42ZM15,26.79c0-.1,0-.24-.08-.25-.65.39-1.42.15-1.86.76,1.43-.43,2.66-.06,4.06-.34v-.34a5.29,5.29,0,0,1-1.1.09c0-.24.23.2.17-.17-.15,0-.22-.13-.26,0,.17.23-.66.17-.93.25Zm7.32.42c.65.38,1.59-.13,2.28-.25-.05-.18.1-.56-.08-.59-.67.53-1.65.29-2.2.84Zm18.25.51.51.25c.4-.58,1-1,1.35-1.6-1.2-.4-1.22.92-1.86,1.35Zm-1-1c.36,0,.39-.23.5-.43a.46.46,0,0,0-.5.43Zm-29.07-.43c-1,1.37-2.28,2.41-3.3,3.72a5.63,5.63,0,0,1,.93.09c1-1.24,2-2.43,2.87-3.72-.2,0-.25-.15-.5-.09Zm-1.19,0c-.94,1.26-2.09,2.31-3.12,3.47a7.34,7.34,0,0,1,.84.17c1-1.33,2.13-2.44,3.13-3.72-.29,0-.69-.07-.85.08Zm-4,3.13c.21.12.59.08.76.25,1-1.15,2.05-2.23,3-3.46-2,.29-2.55,2.07-3.72,3.21ZM40.6,26.28a.56.56,0,0,1,.59.26c-.06-.26.24-.17.17-.43-.43.06-.65-.2-.76.17Zm-6.17-.08a.38.38,0,0,0,.34-.17c-.13-.13-.38-.09-.34.17Zm9.47,0c.16,0,.21.18.42.17,0-.25.19-.26.17-.51-.3,0-.54.08-.59.34ZM7.64,25.86c-.07-.07-.24.06-.25.08s.31,0,.25-.08Zm-2.7.42c.51.07.86,0,.93-.42-.47,0-1-.06-.93.42Zm1.18-.42C6,26,6,26.17,6,26.28c.54.08,1.14-.21,1-.51-.23.26-.42,0-.85.09Zm-1.43.34c-.07-.26.23-.16.16-.43a2.63,2.63,0,0,1-.93,0c0,.38.51.29.77.43Zm34.9-.51c-.07,0-.17,0-.17.08s.17,0,.17-.08Zm3.29,0c-.44.37.27-.15,0,0Zm-3.21,0c.06.06,0,0,0,0ZM38.24,26c.15-.05.55-.28.33-.42,0,.19-.28.22-.33.42Zm-3.05-.09a.38.38,0,0,0-.33-.33c0,.26.21.24.33.33Zm13.36,2c.37-.8,1.36-1.51,1.09-2.45A13.28,13.28,0,0,1,48.55,28Zm-9.81-2.36c.06.05,0,0,0,0Zm-14.87,0Zm24.93-.09c.05.06,0,0,0,0Zm-10.23,0Zm-14.28-.08c-.06,0-.17,0-.17.08s.17,0,.17-.08Zm20.28.93c.8.31,1.32-.74,1.53-1a2.21,2.21,0,0,0-1.53,1Zm-1.52-.43c.63.22.83-.23,1.1-.59a1.42,1.42,0,0,0-1.1.59Zm-2.7-.25c-.06-.23.17-.17.17-.34-.25,0-.47.29-.17.34Zm-30.17-.25Zm35.41,1c.06-.19.52-.08.42.17-1.68.14-2.18,1.85-3.21,2.87.3,0,.38.25.68.26A36.33,36.33,0,0,1,46.1,27c-.57,1.2-1.68,1.88-2.37,3,.22,0,.36,0,.34.25-.21-.19-.68-.26-.68.17a1.35,1.35,0,0,0,.85.08A23.85,23.85,0,0,1,47.11,27a18.81,18.81,0,0,1-2.45,3.13c2.05-.88,4.15-2.16,4.39-4.56a8,8,0,0,1-2.87.84c.76-.45,2-.47,2.53-1.1a4.14,4.14,0,0,0-3.12,1.1ZM8.83,25.52c.29,0,.8.13.84-.17-.28,0-.68-.11-.84.17Zm-1.1.09c.47,0,.59.1.76-.26-.31-.07-.71-.17-.76.26Zm-1.18-.24h.76c0-.11.28-.31.08-.33-.26.17-.79-.18-.84.33Zm-1.1.24c.46,0,.83,0,.93-.34-.3.06-.83-.1-.93.34Zm-1.27,0c.29,0,.68-.07.84.08.08-.15.21-.25.26-.42-.49,0-1-.08-1.1.34Zm-1,.08c.36-.08.74,0,.85-.42-.52-.1-.64.21-.85.42Zm38.29-.08c.52.12,1-.2.93-.43-.22.23-.8.11-.93.43Zm-16.23-.09c.24-.49-.21-.22,0,0Zm10.57.34c.2-.31-.21-.6-.43-.76-.32.25,0,.77.43.76Zm3.54-.25c.26-.12.81-.37.68-.6-.28.1-.78.4-.68.6ZM5.19,24.93c-.15.05-.49-.1-.5.08.14,0,.49.11.5-.08Zm-1.52.84c-.79-.25-.82.7-1.18.6.15-.44.49-.7.67-1.1-.4-.07-1,.1-1.18,0,0-.26.81-.09.59-.26a10.58,10.58,0,0,1-1.52-.08c1.11,1.71,1.88,3.76,4.06,4.39.72-1,1.48-1.9,2.28-2.78-1.5.13-1.65,1.9-3,2.45.58-.8,1.3-1.47,1.86-2.28a3.36,3.36,0,0,1-.93.08,3.92,3.92,0,0,1-1.27,1.52c.3-.59,1-1.14,1.1-1.69-.32.07-.4-.1-.67-.08-.15.19-.41.71-.6.59.05-.33.43-.31.43-.68a2.7,2.7,0,0,0-.68-.34c-.3.27-.37.76-.76.93.14-.53.54-.8.76-1.27Zm42.76-.08c.39-.32,1.1-.31,1.44-.68-.5-.34-1.49.25-1.44.68Zm-1.94-.17c.58.05.64-.43.93-.67a1.75,1.75,0,0,0-.93.67Zm-3.64,0c.31-.15,1-.32.85-.67-.3.2-.68.32-.85.67ZM5.53,24.93c-.4-.23-.2.28,0,0Zm36.85.68c.26.16,1.23-.4,1.43-.85-.71,0-.93.59-1.43.85ZM6,25c.44.09.7.12.85-.25-.2.17-.79-.05-.85.25Zm3.3,0c.38,0,.87.09.93-.25-.35-.17-.85-.09-.93.25Zm-1.1.11c.26.11.35-.08.51.17.06-.22.3-.26.34-.5H8.32c0,.12-.13.21-.17.33ZM7.05,25c.35,0,.84.11.85-.25-.38,0-.72-.13-.85.25Zm33.55.09a1.26,1.26,0,0,0,.68-.51c-.33,0-.82.31-.68.51ZM10.52,25c0-.18.44-.06.5,0,0-.21-.15-.29-.25-.42,0,.18-.46.32-.25.42Zm25.1-.25a2.07,2.07,0,0,0,.67.93c.11,0,.12-.11.26-.08-.11-.52-.52-.72-.76-1.1a.79.79,0,0,1-.17.25Zm-32.54.17c-.64.12.73.08,1,.08.07-.18.7-.25.43-.5-.41.21-1,.25-1.44.42ZM42.29,25c.27-.23.84-.17.93-.59-.48,0-1,.38-.93.59Zm-7-.5Zm10.31.67c.56-.14,1.18-.22,1.43-.67-.49-.31-1.1.3-1.43.67Zm-5.41-.5c.21-.05.43-.08.42-.34-.27.16-.29,0-.42.34Zm4.06.33a2.21,2.21,0,0,0,1-.76c-.51,0-1,.48-1,.76Zm-2.37-.5a.78.78,0,0,0,.59-.26c-.25,0-.51.05-.59.26Zm-6.42-.26c-.23.26.25-.23,0,0ZM10,24.2h.17c.13-.21-.29-.25-.25-.09s.09,0,.08.09Zm-5.07.56c.6,0,1.07-.16,1.27-.59-.55,0-1.11,0-1.27.59Zm3.63-.56h.85c0-.43-.86-.3-.85,0Zm-1.1.22c.28,0,.52,0,.6.17,0-.25.22-.29.25-.5-.44-.05-.72.06-.85.33Zm-1.26.17c.58-.05.94.12,1-.5a1,1,0,0,0-1,.5Zm39.38-.08c.14-.22.64-.09.76-.34a2.22,2.22,0,0,0-.42-.25c0,.21-.54.41-.34.59ZM36,24.34c.35.33.59.76.93,1.1a1.7,1.7,0,0,1,.34-.26,5.76,5.76,0,0,0-1.1-1.26c0,.16-.18.21-.17.42ZM17.62,24c.05.06,0,0,0,0Zm26.11.51c.29-.25.87-.2.93-.68-.35.14-1,.36-.93.68Zm-2.45-.17c.34-.14.69-.26.84-.59-.33.09-.94.35-.84.59Zm-23.75-.51Zm25.69.26c.21-.13.53-.16.59-.43-.24.05-.74.27-.59.43Zm-2.37-.17c.27,0,.35-.11.43-.26-.2,0-.37.09-.43.26ZM5.78,24c.11-.18,1,0,.68-.34-.12,0-.83.1-.68.34Zm39.3-.08a.83.83,0,0,0,.51-.26c-.27-.13-.42,0-.51.26Zm-27.63-.26c.05.06,0,0,0,0Zm-8.37.09c.45-.11.92.31,1-.17-.33.06-.93-.15-1,.17ZM13.64,25c-.83-.39-1.88-1.37-2.28-1.43.55.61,1.54,1.57,2.28,1.43ZM8.15,23.83c.34,0,.59,0,.59-.34-.37,0-.47.16-.59.34Zm-1.27.09c.58.06.79,0,.93-.43-.35.09-.78,0-.93.43Zm-.5-.34Zm19.18-.17c-.26.28.31.26,0,0Zm-8.11.08c.05.06,0,0,0,0ZM6.8,23.41Zm35.83.42c.2-.14.82-.3.59-.59-.22.12-.7.42-.59.59ZM42,23.41a.56.56,0,0,0,.25-.17c-.11,0-.46.13-.25.17Zm-5.66.34a11.64,11.64,0,0,0,1.18,1.35c0-.22.33-.12.34-.34-.54-.42-.81-1.1-1.35-1.52,0,.18-.21.24-.17.51ZM35,24.09c.32-.24,0-.69-.25-.85,0,.41.19.55.25.85Zm-17.91.25c-.06.27-.39.05-.42.17.24.06.16.45.5.42.3-.37-.12-.69-.17-1.18-.53.05-.83-.58-1.18-.43.17.6.73.8,1.27,1ZM7,23.32c0,.06,0,0,0,0Zm37.44.34c0-.23.35-.15.42-.34-.12,0-.15-.13-.26-.16,0,.14-.39.38-.16.5Zm-1.95-.42a.56.56,0,0,0,.25-.17c-.11,0-.46.13-.25.17ZM8.74,23.16Zm-1.27.08c.21,0,.62.11.68-.08-.16-.15-.6-.11-.68.08Zm36.34,0c.15-.08.46,0,.43-.25a.36.36,0,0,0-.43.25Zm-2-.17ZM25.64,23c.1.33.1-.34,0,0ZM7.73,22.9c-.07,0-.17,0-.17.09s.17,0,.17-.09Zm.08,0Zm28.9-.08a4.8,4.8,0,0,0,1.53,1.86c.21-.74-1-1.42-1.36-2.12a.23.23,0,0,1-.17.26Zm-20.87,2.7a27.39,27.39,0,0,0-5.24-2.87,34,34,0,0,0,4.06,2.53c0,.1-.15.2,0,.26.3-.4.71-.13,1.18.08Zm-6.42-3c.05.06,0,0,0,0Zm25.94,1.1c.1-.21.34-.28.34-.59-.34-.17-.27-.74-.68-.84.06.37-.14.47-.08.84a1.14,1.14,0,0,1,.42.59Zm-18.42-.25c-.05-.9-1-.91-1.61-1.27.13.83.94,1,1.61,1.27Zm21.72.93c.16-.73-1.11-1.4-1.35-2.28-.11,0-.12-.11-.26-.09.13.89,1,1.67,1.61,2.37Zm-3-1.44c.27.08.18-.22.34-.25a2.79,2.79,0,0,0-.85-1.18c-.11.76.45.84.51,1.43Zm.51-.67c.34-.81-.55-1.51-1-2a3,3,0,0,0,1,2Zm6.93-6.43c.09.34.09-.33,0,0ZM8.57,13.44c.06.05,0,0,0,0Zm11.66-.26Zm.17-.67c.06.05,0,0,0,0Zm-.59,0c.11,0,.2,0,.17.17.24,0,.51-.45.42-.51-.14.17-.55.06-.59.34Zm11.83.08A.76.76,0,0,0,32,13c.39-.34.91-.55,1.1-1.09-.52.18-.92.49-1.44.67ZM19,12c.18-.1-.18-.61-.34-.34.13.1.21.25.34.34Zm3-.84Zm-3.3.25c.06-.55-.69-.29-.85-.25.41.09.32.22.85.25Zm12.68.25c-.16,0-.19.1-.34.09a.64.64,0,0,0,.5.59c.63-.44,2-.56,2-1.35-.59.35-2.13.4-2,.93-.31-.13-.35.25-.16-.26Zm-14.45-1.1c.05,0,.4.2.42,0-.07,0-.1-.07-.09-.17-.15,0-.28.06-.33.17Zm1,.26c-.23-.09-.11-.52-.42-.51,0,.26.24.71.42.51Zm.51-.17a1.19,1.19,0,0,0-.26-.59h-.25c-.07.15.05.7.51.59Zm1.69,0c-.33.07-1,.16-1.1.59.83-.1,1.82-.75,2.53-.42-.57.41-2.16.25-2.2.93.15.16.91-.47,1-.09s-.94.19-.68.51c1.28-.08,2.09-1.28,2.62-2a11.56,11.56,0,0,1-2.19.51Zm14.19.42c0-.17.23-.11.17-.34-.42,0-.64.65-.59.85a15.45,15.45,0,0,1,1.69-1.1c.28-.14.86-.15.85-.51-.79.44-1.48.48-2.12,1.1Zm0-.59c.29,0,.71-.31.51-.51-.22.12-.45.23-.51.51Zm2.62-.59c.06,0,0,0,0,0ZM35,10.23c.17-.12.81-.2.6-.43-.18.07-.53,0-.6.43ZM15.38,9.47h-.59v.59h.59V9.47Zm21.84.25c.06,0,0,0,0,0Zm-20.28.43c.18-.21-.15-.42-.17-.68h-.34c.22.29,0,.64.51.68ZM15.5,9.89a7.53,7.53,0,0,0,.93.5A1.39,1.39,0,0,0,16,9.63c-.05.21-.55,0-.51.26Zm22.23-.26c.05.06,0,0,0,0ZM30,10.9c.08.39.49.47.67.76,1.05-.53,2.68-.47,3.3-1.43-1.24.14-2.73.92-3.63.84.58-.15,1.26-.45,2-.68s1.67-.18,2-.84c-1.52.37-2.82,1-4.31,1.35Zm-12.26-.76c0-.1.14-.09.26-.08,0-.26-.22-.29-.26-.51-.12,0-.31,0-.33.08.19.1.14.42.33.51Zm-.33.09c-.05-.32-.11-.64-.43-.68-.1.19.2.55.43.68Zm5.07-.76a35.55,35.55,0,0,1-4,.67c-.05.31.19.33.17.59a33,33,0,0,0,3.89-1c-.1,0-.09-.14-.08-.25Zm13.69.33c.17-.22.71-.08.76-.42-.24.11-.9.22-.76.42Zm-1.61,0a.67.67,0,0,0,.68-.5c-.34,0-.65.14-.68.5ZM14.49,9.22a.24.24,0,0,1,.17.25h.5c-.05-.3-.45-.6-.67-.25Zm22.68.33V9.38c.22.21.41-.09.51-.25-.23,0-.75.2-.51.42Zm0,12.08A10.6,10.6,0,0,0,39.08,24c.34-.6-1.17-1.1-.84-1.94.41.51.67,1.18,1.26,1.52.71-.57-1.14-1.2-.5-1.95.32.5.62,1.62,1.26,1.27-.26-1-.83-1-.93-1.94.54.37.64,1.16,1.19,1.52a1.66,1.66,0,0,1,.25-.34c-.22-.43-.8-.94-.68-1.44.37.28.47,1.21,1,1,.13-.41-.65-1-.51-1.44.32.27.41.77.76,1,.6-.66-.35-1.14-.17-1.78.19.26.32.59.51.85.9-2.6,1-5.74,1.44-8.45a13.51,13.51,0,0,1,1-2.45C39.35,8.18,34.49,10.73,33,14.2c2,2,1.52,5.56,3.55,7.27.83-1.87,1.16-4.7,2.28-6-.55,1.52-1.1,4.08-1.61,6.16ZM15.16,9.3c.29-.06.31.14.34.33.2,0,.25-.14.51-.08,0-.25-.19-.26-.17-.51a1.3,1.3,0,0,0-.68.26Zm23,.08c.22,0,.6-.24.34-.42-.06.19-.28.22-.34.42Zm-2.7.17c.42-.08.8-.21.93-.59-.41.1-.91.11-.93.59ZM16.6,9.47c-.12-.22-.08-.6-.51-.51.13.21.09.59.51.51Zm.51-.09c0-.33-.11-.57-.51-.51.1.24.14.54.51.51Zm-2.28,1.27C13.36,9.38,11.18,8.83,8.4,8.87c0,.4-.23.09-.33.43.11,1.27,1,1.91,1.26,3.21.44,2.12-.19,4.63-.08,6.42.2.22.72.12.76.51-.17.17-.4,0-.59-.09,0,.58.75.38.76.93-.35.12-.49-.41-.68-.17.27,1.09,1.58,1.13,2.2,1.86-.62.17-1.23-.77-1.86-.76a4.58,4.58,0,0,0,.93,1.27,1.13,1.13,0,0,1,.85.42,9,9,0,0,1,2.61,1.27,5.05,5.05,0,0,0,2.54,1.18,9.66,9.66,0,0,0-2.37-1.6c-.84-.45-1.93-.69-2.45-1.52,1.19.57,2.72,1.57,4,2-.66-.89-2.48-1.06-2.71-2.11a10.85,10.85,0,0,0,2.11,1.27c-.08-1-1.62-.92-1.6-1.69.51.13.72.57,1.27.68-1.23-2.35-1.15-6-2.62-8.29,2,1.59,1.61,5.49,2.87,7.78.65,0,.89.46,1.44.59,0-.27-.15-.36-.09-.68-.53.24-1.47-.18-1.35-.59.37,0,.87.49,1.35.42,0-.19-.16-.35,0-.5-.44.09-1.07,0-1.1-.59.36-.05.59.48.93.16-.21.06-.36-.36-.17-.42s.14.31.34.34a12.69,12.69,0,0,1,1-3.89A12.29,12.29,0,0,0,18.88,14c-1.24-1.24-1.9-3.06-4-3.38Zm14.7-.26c.11.69.69.27,1,.17A39.77,39.77,0,0,1,34.43,9.3c0-.19.43-.47.26-.6a40,40,0,0,0-5.16,1.69ZM18.21,9.47c0,.2.15.18.08.42a23.42,23.42,0,0,0,4.06-.68c0-.2-.15-.25-.09-.51-1.43.17-2.46.75-4.05.77Zm-1.1-.6c.22,0,.13.32.25.43s.31,0,.34-.09c-.17-.11-.09-.47-.34-.51,0,.14-.23.05-.25.17Zm19.6.34c.22-.15.87-.31.68-.59-.24.13-1,.23-.68.59ZM15.16,9c-.07-.14,0-.45-.25-.42,0,.2.09.36.25.42ZM34.94,9a.72.72,0,0,0,.76-.5c-.5-.08-.72.12-.76.5Zm-8.87-.42c.09.33.09-.33,0,0Zm11.74.17c.21-.14.62-.06.68-.34-.28-.27-.59.14-.68.34ZM16.26,8.7c-.15-.09-.05-.44-.42-.33,0,.22.24.6.42.33Zm.43.1c.18-.18-.05-.24,0-.51h-.26a.31.31,0,0,0,.26.51Zm19.18,0c.42-.14.91-.22,1-.68-.55.12-.92.29-1,.68Zm-7.69-.17c0,.3-.07-1.09,0,0ZM16.86,8c.09,0,.09.13.08.25h.42c.18-.44-.43-.57-.5-.25Zm2.87.24a9.18,9.18,0,0,0-1.95.51A.83.83,0,0,1,18,9.3a16.16,16.16,0,0,0,4.05-1c-.55-.41-1.54-.14-2.36,0ZM38.32,8ZM26.07,9.21a2,2,0,0,1-.26-.93,1.56,1.56,0,0,1-.5-.25c-.93.52-1.9,2.43-2.88,3.55-1.55,1.78-4,3.85-4.65,5.83a9.37,9.37,0,0,0,.76,7.35,7.58,7.58,0,0,0,1.44.76c-.25.21-.45,0-.68.17.17.42,1,.16,1.1.68-.14.05-.49-.11-.5.08a3.11,3.11,0,0,0,2.36.42s-.41-.12-.17-.16a3,3,0,0,0,2.62-1,4.73,4.73,0,0,1-2.28.34,5.89,5.89,0,0,1,1.27-.34c.21-.2-.13-.16-.08-.42a2,2,0,0,0,1.26-.42c-.27-.21-.65.26-.93-.09.19-.27.76-.14.93-.42-.18,0-.18-.21-.17-.42.2,0,.32,0,.34-.17a2,2,0,0,0-.25-.68,6.27,6.27,0,0,1,.59-.42c0-.21-.13-.26-.17-.42,1-1.32.29-3.2,1-4.91a21,21,0,0,1-.17,5.58c.11.09.31.08.33.26s-.44.12-.33.5c.32,0,.52,0,.59.26a.83.83,0,0,1-.76.08c-.14.4.27.48.08.68.26.11.78,0,.76.33-.24,0-.58-.07-.59.17.37.14.75-.08.93.34a4,4,0,0,1-1.44-.08c.06.77,1,.13,1.36.5-.41.24-.89,0-1.36.26.66.16,1.48.15,2.12.34a7.22,7.22,0,0,1-2.12.08c.29.4,1.54.16,1.78.34a2.4,2.4,0,0,1-1.44.17c1.73.45,3.89.86,5.16-.17-1.05.12-2.74.57-3.38.08,1.33,0,3.8,0,4.14-.84a8.24,8.24,0,0,1-2.45.42c.93-.45,2.78-.43,3-1.27a3.78,3.78,0,0,1-1.61.51c.57-.56,2.13-.58,2.2-1.35a1.89,1.89,0,0,1-1.61.59c.73-.43,1.76-.55,2.12-1.35-.26,0-.42.48-.68.17.34-.08.45-.4.76-.51.9-5.22-1.77-9.46-4.56-12.09-.34-.05-.34.23-.68.17,0-.25.45-.11.51-.33-1.09-.88-1.61-2.33-2.7-3.22,0,.41.22.72.08,1.1-.27-.4.06.13-.25.17ZM24,8.62c0-.36-.17-.51-.25-.76-.15.21.07.62.25.76Zm-9-.08c-.05-.32-.1-.64-.42-.68.07.29.11.62.42.68Zm-.42.76c0-.1.13-.1.25-.09,0-.6-.51-.67-.42-1.35-.62.64-.07,1,.17,1.44ZM28.43,8c.42-.11.13-.4,0,0Zm8.71.34c.43,0,1-.3.84-.68-.33.18-.76.26-.84.68Zm-1.86-.09a1,1,0,0,0,.93-.59c-.5,0-.82.2-.93.59ZM21.67,7.77Zm-5.74.51c0-.31,0-.58-.34-.59.05.26,0,.6.34.59Zm-1-.51c.07.62.48.6.42,1.19.16,0,.19-.1.34-.09-.24-.46-.22-.78-.59-1.18,0,.07-.07.1-.17.08Zm1.44.34c0-.1.09,0,.17,0,.06-.26-.09-.31-.09-.5-.12,0-.43-.1-.42.08.19.07.11.4.34.42Zm.25-.42a.48.48,0,0,0,.59.25c0-.37-.41-.57-.59-.25Zm12.33-.57h0V7.7h0V7.12Zm-1.43.74c0-.2.16-.18.09-.42-.13,0-.31,0-.34.08.17,0,.08.32.25.34Zm9,.08c.29-.18.82-.13.85-.59-.41,0-1,.28-.85.59ZM14.4,7.69c0-.15.09-.42-.17-.34a.4.4,0,0,0,.17.34Zm14.88,2A41.08,41.08,0,0,1,33.84,8c.48-.15,1.18-.18,1.44-.68-2,.56-5.39,1.2-6.51,2.37.18.18.31.42.51.59a22.06,22.06,0,0,1,4.48-1.52c.41-.12,1.18-.24,1.26-.76a38.61,38.61,0,0,0-5.83,1.86c0-.09.07-.1.09-.17Zm-9.89-2a4.77,4.77,0,0,0-1.77.51c.45.48,1.28,0,1.94-.17s1.64,0,2.11-.51c-.39-.42-1.34,0-2.28.17Zm8.2.42c.16,0,.17.12.25.17-.06-.49.55-.74.34-1.1-.11.4-.45.57-.59.93ZM15.08,7.52c-.13-.15-.11-.45-.51-.34a.31.31,0,0,0,.51.34Zm22.56,0a2.63,2.63,0,0,0,.6-.17c0-.49-.63-.14-.6.17ZM27,7.18c.05.06,0,0,0,0Zm-11.41.34A.49.49,0,0,0,15.33,7a.32.32,0,0,0,.26.51ZM29.45,7c.05.06,0,0,0,0ZM27.76,7c0,.06,0,0,0,0Zm-.34.26s.21-.33,0-.34c.08.16-.25.28,0,.34ZM27.08,7c.06.06,0,0,0,0Zm-10.9.61c.16-.15-.07-.21,0-.5h-.42c.08.22,0,.58.42.5ZM38,6.93c.06.06,0,0,0,0Zm-2.28.59c.37-.08,1-.34.85-.68-.28.24-1,.06-.85.68Zm-6.93-.25c.26.08.36-.42.25-.43-.09.14-.27.18-.25.43Zm-4.56.84c.35-.32-.07-.88-.17-1.27a1.39,1.39,0,0,0,.17,1.27Zm-.59-.76c-.08-.15,0-.42-.17-.51.05.18-.14.59.17.51Zm-7.27-.74a1.91,1.91,0,0,0,.17.51h.34c.19-.2-.16-.28-.09-.6-.2,0-.18.16-.42.09Zm10.39.23c.06.23-.11-.44,0,0Zm-3.38-.08Zm-8.79.34c0-.07.07-.1.17-.09-.05-.2-.07-.43-.34-.42,0,.23,0,.5.17.51ZM29.36,9a63.91,63.91,0,0,1,6.09-2c0-.24.15-.35.17-.59-2.14.93-5,.7-6.26,2.62ZM14.83,6.51c.18.06.11.39.33.42,0,0,0-.1.09-.09s.1,0,.08-.08c-.17,0,0-.37-.17-.42s-.31,0-.33.17Zm14.53-.17c.06,0,0,0,0,0Zm-1.27,0c.06,0,0,0,0,0Zm-2.28,0c.1.33.1-.34,0,0Zm-.59.25c.24.14.24-.36.09-.34,0,.16-.1.19-.09.34Zm-9.8-.34c.08.26.09.59.51.51.09-.12,0-.58-.26-.59,0,.1-.13.09-.25.08Zm22.73-.08c.06,0,0,0,0,0ZM23,6.93c0-.34.05-.78-.25-.85a.85.85,0,0,0,.25.85Zm-6-.25c0,.26.26.19.17.5,1.17.1,2.58-.84,3.13-.42-.75.52-2.19.35-3,.85.44.32,1.28,0,1.94-.09a8.35,8.35,0,0,1,1.95-.42c-.86-1.75-2.33-.48-4.23-.42Zm-.84-.15h.42c-.05-.26-.13-.49-.42-.51-.19.18,0,.24,0,.51Zm9.72-.45c.1.34.1-.33,0,0Zm11.41.26c.22,0,.36,0,.33.25-.24.18-.75.09-.76.51.81,0,1.17-.72.6-1.18,0,.16-.19.21-.17.42Zm-13.44.25c.06-.2.12-.68-.17-.76,0,.31-.05.67.17.76Zm12.25-.51c-.13.21-.12.56-.33.68.69,0,1.58-.65,1.35-1a6.41,6.41,0,0,1-1,.33ZM28,6c0-.1.15-.19,0-.25,0,.1-.15.19,0,.25ZM24.55,7.44c.4-.38.26-1.36,0-1.78a1.93,1.93,0,0,0,0,1.78Zm6.33-1.78c.1.34.1-.33,0,0ZM14.4,5.75a.48.48,0,0,0,.6.42c0-.25-.05-.52-.26-.59a.37.37,0,0,1-.34.17ZM16.69,6a.77.77,0,0,0,.33.51,12.1,12.1,0,0,1,2.88-.59c-.65-.87-2.14.08-3.21.08Zm-1.27.08c0-.09.13-.09.25-.08.06-.26-.14-.25-.08-.51-.15,0-.5-.1-.51.09.15.13.07.49.34.5Zm11.66.68c.18-.58.57-1,.34-1.35-.17.34-.61.85-.34,1.35Zm-1-.25c.24-.07.22.12.42.08,0-.33.35-.83.08-1.18a2.12,2.12,0,0,1-.5,1.1Zm-9.89-.59c-.08-.21-.08-.49-.34-.51,0,.27.06.5.34.51ZM30.8,7.1c0,.26-.51.44-.34.59,1.67-1,4.6-.81,5.75-2.37A45.11,45.11,0,0,0,30.8,7.1ZM28.26,5.41c.06,0,0,0,0,0Zm-6.17-.09c.1.34.1-.33,0,0Zm8.54-.08Zm-5,.93c.05-.39.4-.73.09-1-.06.27-.39.91-.09,1Zm11-1c0,.25-.22.28-.25.5.37-.1.8-.15.84-.59-.27,0-.3.15-.59.09Zm-13.94.5a.42.42,0,0,0-.09-.59c0,.18-.1.56.09.59ZM14.4,5.49c.27.13.41-.48.09-.42-.1.27,0,.22-.09.42Zm11.33-.42ZM30.46,5c.06,0,0,0,0,0ZM27.59,4.9s0,.08,0,.09c-.4.45.4-.16,0-.09ZM19.64,5c.06,0,0,0,0,0Zm-3.38.42c.12,0,.16.18.17.34a7.6,7.6,0,0,0,2.45-.59,3.07,3.07,0,0,0-2.62.25Zm-1.35-.59c-.06.26.09.3.09.5a.4.4,0,0,0,.42-.16c-.11,0-.11-.24,0-.26s.28.43.42.17c-.1,0-.09-.13-.08-.25-.36,0-.55-.17-.85,0Zm15,.25c-.07-.19.39-.27.08-.42-.09,0-.32.34-.08.42Zm-.59-.25ZM26.24,6c0-.49.49-.91.25-1.35,0,.58-.66,1-.25,1.35Zm-1.19.17A1.64,1.64,0,0,0,25,4.65c-.25.4-.06,1,.08,1.52Zm-1.52-.76a.77.77,0,0,0-.08-.85.88.88,0,0,0,.08.85Zm-8.87-.76c-.41-.24-.21.28,0,0ZM34,4.82c-.23.4-.71.5-.84.59-.46.3.2-.08.42-.17a15.22,15.22,0,0,0,2-.85c-.68.05-1.1.45-1.61.43ZM15.84,4.73c.26.64,1.22.08,1.86-.08a1.87,1.87,0,0,0-1.86.08Zm8.37,1c.16-.4.41-1,.08-1.44-.13.43-.43,1-.08,1.44Zm-9.47-1h.34c0-.1,0-.24-.08-.25,0,.2-.39,0-.26.25ZM31.81,6.51c1.57-1,4.2-.92,5.16-2.28-1.87.86-4.12,1.23-5.16,2.28Zm4-2.12c.15,0,.35,0,.42-.16-.16,0-.62.1-.42.16ZM28.6,4.9c0-.2.37-.56,0-.67,0,.23-.1.5,0,.67Zm-1.86-.59c.1.33.1-.33,0,0Zm-8.62,0c.1.33.1-.33,0,0ZM28,4.82c-.26-.22.34-.28.17-.68-.39,0-.49.88-.17.68Zm2.7-.76c-.06,0-.16,0-.17.08s.17,0,.17-.08Zm-15.12.33a1.89,1.89,0,0,0,.84-.25c-.14-.06-.76,0-.84.25Zm11.24-.33c-.23.25.25-.23,0,0Zm-3.55.25c-.11-.21.24-.35,0-.42-.05,0-.2.4,0,.42Zm6.42-.08c0-.17.23-.11.17-.34-.12,0-.14-.14-.25-.17,0,.3,0,.43.08.51ZM26.83,5.32a1.87,1.87,0,0,0,.42-1.6,4.64,4.64,0,0,0-.42,1.6ZM23.36,3.8ZM18,4.14a6.22,6.22,0,0,0-1-.42.92.92,0,0,0,1,.42Zm-1.18-.42Zm-2.29.59c-.08-.25.19-.15.34-.17-.1-.26-.39-.34-.59-.51,0,.34,0,.62.25.68Zm2.2-.68c-.22-.14-.74,0-1.1-.16,0,.33.86.31,1.1.16Zm8,.68a1.15,1.15,0,0,0-.09-.93.71.71,0,0,0,.09.93Zm-9.38-1c-.07,0-.17,0-.17.08s.17,0,.17-.08Zm-.68.17c.22,0,.3.11.42-.09a.27.27,0,0,0-.42.09Zm15.3,0a.25.25,0,0,0-.17-.26.24.24,0,0,0,.17.26Zm-1.1.5c.3-.1.58-.75.17-.84,0,.35-.36.59-.17.84Zm-.76-.76c-.21.29.28-.2,0,0Zm-.34,0c.2-.2-.28-.22-.25-.08s.28.05.25.08ZM23.62,4.39c.05-.25.18.09.33,0A4.29,4.29,0,0,0,24.29,3c-.53.12-.53,1.21-.67,1.43Zm3.21-.5c.34-.16.59-1,.42-.93-.22.38-.24.66-.42.93Zm1.35-.09c.5.05.56-.78.51-1-.22.29-.2.82-.51,1ZM28.43,3c0-.17.23-.11.17-.34-.21-.09-.37.28-.17.34Zm-.76-.26ZM24.55,3c-.07-.21.33-.39.08-.5-.06.09-.33.38-.08.5ZM27.5,3c.1-.09,0-.39-.08-.51,0,.15-.1.5.08.51ZM28,2.37c.12.28.21-.33,0,0ZM26.07,5.28c.28-1.17,1.32-2.42,1.18-3.47H27c-.3,1.12-1,2.26-.93,3.47ZM25.9,1.94c-.58-.16-.81.63-1,1.1.15.06.14.26.26.34.28-.39.07-1.28.67-1.35-.11,1.14-.95,2.25-.34,3,.48-.56-.08-1.08.26-1.69a.76.76,0,0,0,.17.59c.25-.9.52-1.79.84-2.62a1.42,1.42,0,0,0-.84.67Zm-11.11.43c.11,0,.11.25,0,.25,1.93.66,4,1.16,5.49,2.28a7.51,7.51,0,0,0,2.37-1.77c.36-.3.85-.44,1.18-.76s.44-.85.76-1.19C25.16.59,26,.61,26.45,0c.52.18,1.13.28,1.44.68.11.34-.15.3-.25.42,1.43,1.21,2.74,2.55,4.22,3.72A10.83,10.83,0,0,1,37.27,3.3c.13.26.47.32.59.59,0,2.07,1.21,3.26,1.86,4.9,1.18-.19,5.12-.46,5.24,1,0,.52-1.15,2-1.35,2.71A9.6,9.6,0,0,0,43.27,15c-.11,2.89-.34,5.78-1.35,7.44,3.76-.46,4.63,2.79,8.45,2.78-.8,3-3.59,5.14-6.51,6.26a4.62,4.62,0,0,1-2.62.34A7.62,7.62,0,0,0,44.71,35c-.26,1-1,1-2.12,1.1A18.93,18.93,0,0,0,39,37.27c-2.8.87-5.8.87-8-.68A13.59,13.59,0,0,1,29,38.2c-.75.5-1.68.91-2.2,1.35-.36.3-.77,1.22-1.35,1.18s-1.73-1.94-2.12-2.28c-1.29-1.14-2.79-2.13-4-3.21a12.82,12.82,0,0,1-7.1,2.11c-2.18,0-4.5-.44-5.66-1.94,1.88-.54,2.52-2.33,3.3-4-3.66.84-6.27-1.53-8-3.72C1.45,26.5,0,25.84,0,24.42A3,3,0,0,0,.93,24c3.35.67,5-2.24,8-1.94.06-.52-.31-.81-.42-1.27-.35-1.36,0-2.78-.09-4.23a15.31,15.31,0,0,0-2.36-7c1-1.83,4.1-1.12,6.08-.59.16-1.46,1.41-2.32,1.18-3.8a11.85,11.85,0,0,1-.59-2.29c.43-.78,1.5-.23,2-.33V2.37Z"/></g></g></svg>