<svg xmlns="http://www.w3.org/2000/svg" viewBox="0 0 37.96 42.2"><defs><style>.cls-1{fill:#44341f;}</style></defs><title>stoneldpi</title><g id="Layer_2" data-name="Layer 2"><g id="img"><path class="cls-1" d="M36.85,34.64a6,6,0,0,1-2,.55,4.11,4.11,0,0,1,2-1.11c.05.25-.13.29-.06.56Zm-2.23,1.43c.1-.29.49-.31.61-.58-.28-.16-.94.73-1.09.44-.14,0,0,.27-.14.32-.08-.21,0-.29-.4-.14.78-.82,2.12-.77,3.19-1.07.05,1.06-1.45.68-2.17,1Zm1.21.58c-.25-.07.08-.21.06-.32-.32.16-.44.51-.92.51a6,6,0,0,1,1.61-1c.24.44-.37.7-.75.82Zm-2.69,2c.65-.85,1.93-.74,2.79-1.29-.33-.23-.66.19-1.1.12a2.27,2.27,0,0,1,1.55-.77c-.3,1.52-1.63,1.62-3.24,1.94Zm-2,1.26c1-.95,2.57-1.17,4-1.5-.87,1-2.39,1.29-4,1.5Zm-.65,1.45a20,20,0,0,1,2.34-.64,8.25,8.25,0,0,1-2.34.64Zm-2.19.4a2.54,2.54,0,0,1-.71,0s2.05-.39,2.82-.43a7.91,7.91,0,0,1-2.11.4Zm-1.23-1c0-.08.1-.07.16-.09s-.1.07-.16.09Zm1-.52c.08.12-1.09.36-1.56.46.26-.39,1-.3,1.56-.46Zm-1.5.14c0,.08-.09.07-.15.09s.09-.07.15-.09Zm-.86.19a1.09,1.09,0,0,1,.55-.18c0,.23-.32.16-.55.18Zm-.11-.78a7.72,7.72,0,0,1-2.35.41c.06-.23.36-.23.38-.49A5.88,5.88,0,0,0,25,39.53c.24-.07.74,0,.24.07s-1,.21-1.56.29a9.36,9.36,0,0,0,2.82-.42c.2.15-1,.69-.86.27Zm-.19,1c0-.1.15-.08.16,0s-.07,0-.16,0Zm-.39.1c-.2,0,.06-.23.23-.17,0,.11-.24,0-.23.17Zm-3.23.2c.46-.25,1.26-.06,2.05-.16-.39-.27-1.16-.09-1.66,0,.42-.72,1.88,0,2.82-.59.13.47-.56.37-1.09.44a.77.77,0,0,0,.63.13,17,17,0,0,1-2.75.19Zm-.25-.22c0-.08.1-.07.16-.09s-.1.07-.16.09Zm-1.28-.66c.21-.36.89-.29,1.32-.45-.27.42-.82.41-1.32.45Zm.57.45c0-.08.09-.07.15-.09s-.09.07-.15.09Zm-.07.39c0-.11.62-.2.71-.1-.13.27-.35,0-.71.1Zm-1-.35c.06-.29.67-.16.87-.11-.28.19-.51.13-.87.11Zm.56.21c0-.07.1-.06.16-.08s-.1.06-.16.08ZM20.1,40c.25.07-.17.13-.15.24-1.56,0-.48,0,.15-.24Zm-1.93,1c.07-.21.3-.28.37-.49.28,0,.27.26.49.3-.4.22-.54.07-.86.19ZM18,41a3.42,3.42,0,0,1-.79-.05c.13-.39.59-.46,1.16-.44,0,.23-.41.17-.37.49Zm-1.82-.09a.36.36,0,0,0,.07-.24,2.1,2.1,0,0,1,1-.12c-.22.48-.55.41-1.09.36Zm.14-.4c-.2.46-.59.32-1.08.44.07-.41.71-.3,1.08-.44Zm-1.5,0c-.07-.25.66-.4,1.09-.44-.22.18-.32.47-.69.5.18-.26-.3-.07-.4-.06Zm-.22.25c0-.21.25-.17.46-.18,0,.08-.09.06-.15.08s.15.07.24.07c-.09.35-.35,0-.55,0Zm-.33-.31c0-.24.36-.07.38-.25.22.06,0,.32-.22.25,0,.06,0,.07.08.07,0,.23-.13-.11-.24-.07Zm1.53-1.24a2.06,2.06,0,0,1-1.62,1c.51-.37.7-1,1.62-1Zm-2.19.4c.46-.09.64-.15,1-.2A2,2,0,0,1,14,40c-.27,0-.33-.25-.41-.46Zm-.09-.15c-.21-.1-.19-.46-.34-.62.29-.32,1-.2,1.4-.45.05.43-.8.67-1.06,1.07Zm-.31-1.73c1.43-.38,2.52-.61,4-.94.23.89-.82,1.26-1.76,1.33a7.24,7.24,0,0,1,.91-.83c-.73.26-1.4,1.23-2.71,1.21.14-.3.54-.35.68-.65-.3,0-.78.49-1.07.75-.22-.18,0-.63,0-.87Zm-1,2.41c.1-.33.56-.34.92-.43a1.3,1.3,0,0,1-.92.43Zm.48.37c-.25-.16.31-.22.47-.25,0,.21-.4.09-.47.25ZM12,39.65c-.11,0-.07-.2-.09-.32.22.06.2-.11.39-.09,0,.19-.25.22-.3.41ZM10.59,41c.21-.39.87-.6.95,0a2.44,2.44,0,0,1-.95,0Zm-1,0c0-.29.51-.15.7-.27a1.14,1.14,0,0,0,.21-.72c.3.05.38-.1.38-.33.6.53-.08,1.11-.49,1.36a2.57,2.57,0,0,0-.8,0Zm.26.46c-.26-.08.07-.23.23-.17,0,.12-.23,0-.23.17ZM9.38,40.3c0-.08.1-.06.16-.08s-.1.06-.16.08Zm-1.32.45c.2-.44.63-.26,1.16-.44a5.48,5.48,0,0,1-1.16.44Zm.64.13c0-.32.39-.12.38-.25.28.16-.28.19-.38.25Zm-.38.41c0-.08.09-.07.15-.09s-.09.07-.15.09Zm-.89-.52a.34.34,0,0,0,.07-.24h.39a.44.44,0,0,1-.46.25Zm-.17-.15c-.07.23-.33,0-.47,0a4.75,4.75,0,0,1,.85-.59c-.11.17-.59.37-.38.57ZM4.85,39.53c.67-.39,1.51-.63,2.17-1a3.07,3.07,0,0,1-2.17,1Zm-.3.17c0-.09.14-.07.23-.09s-.14.08-.23.09Zm2.35-.41c-.4-.07.4-.18.38-.41.26.2-.35.24-.38.41ZM4,39.41c0,.09.15.06.24.07-.59.57-1.75.1-2.07-.39,1.08-.53,2.19-1,3.18-1.63a11.09,11.09,0,0,0-3,1.22c0-.16-.21-.14-.24-.3.35-.58,1.39-.69,1.77-1-1-.08-1.78.68-2.48,1.13,0-.19-.28-.14-.25-.39.52-.43,1.31-.61,1.69-1.17A5.15,5.15,0,0,0,1,38c0-.23-.19-.24-.18-.47.47-.41.86-.45,1.31-.84-.21-.45-.46.37-.71.11a.45.45,0,0,1,.13-.64c-.38-.2-.65.36-1,.44,0-.78.65-.38.6-1-.22-.23-.48.42-.62.26,0-.37.44-.4.6-.66-.22-.32-.27.08-.55.1-.14-.49.38-.36.37-.72-.18-.09-.2-.07-.23.17-.29-.28.22-.77.45-.57,0-.2-.16-.24,0-.4-.29,0-.25.22-.38.33a10,10,0,0,1,1.59-3.77,1.75,1.75,0,0,1,.43.93c1.22,1.32,3.52.26,5.05-.12a.36.36,0,0,0-.07.24c.31-.09.83,0,.93-.27,2.61-.43,5.51-2.87,8.14-3.8a26.7,26.7,0,0,1,9.54-2c-.77.45-2.15.33-3,.75A21.76,21.76,0,0,0,27,25.4c.17.12.44.12.49.38a14.4,14.4,0,0,0-3.75.93c.16.11,1.14-.43,1.17-.2-7.22,2.15-11.38,7.15-16.44,11.3a31.75,31.75,0,0,0-4,1.66c-.24.07-.24-.13-.48-.06ZM2.1,39.8c0-.08.1-.07.16-.09s-.1.07-.16.09ZM2,38.31c.14.09.11.37.33.38a1.89,1.89,0,0,1-.31.25c-.53-.08-.35-.45,0-.63ZM.65,36.86a4.25,4.25,0,0,0,.53-.42c.42.33-.14.69-.44.81.06-.23-.12-.2-.09-.39ZM.8,38.75c0-.34-.38-.64-.2-.94.27.65,1,1.15,1.1,1.69-.27,0-.54-.86-.9-.75ZM.32,36.63a2.33,2.33,0,0,1,.2,1.1,2.7,2.7,0,0,1-.2-1.1ZM14.88,27.7c-1,.74-2.13,1.29-3.24,1.94a11.83,11.83,0,0,1-3.72,1.49,73.63,73.63,0,0,0,6.88-3.51c.14,0,.16.07.08.08Zm1.32-.53c0,.14-.13.19-.31.17,0-.11.16-.15.31-.17Zm3.42-1.24a26.19,26.19,0,0,1-3.26,1.23,9.76,9.76,0,0,1,3.26-1.23Zm.79-.19a1.2,1.2,0,0,1-.71.19,1.2,1.2,0,0,1,.71-.19Zm.31-.09c0,.09-.14.07-.24.09s.15-.07.24-.09ZM3.5,29.09c3.22-2.39,8.76-4.16,13.7-4.72a30,30,0,0,1,4.66.13,55.35,55.35,0,0,0-7.61,3.14c-2.46,1.29-5,2.91-7.28,3.45-.16,0-.32-.09-.48-.06-.65.1-2,.76-2.83.19a3.77,3.77,0,0,1-.42-.54,2.46,2.46,0,0,1-.11-.86c0-.52.64-.28.37-.73ZM7.87,24a19.72,19.72,0,0,0,2.85.12c.4.11-.88.24-1.42.22A5.36,5.36,0,0,1,7.87,24Zm-.79,0c0-.09.14-.07.24-.09s-.14.07-.24.09ZM5,23.35c-.27,0,.18.26-.07.24a3.5,3.5,0,0,1-1.2-.5c2.44.11,5.32.78,9.09.43-.22.29-.51.6-.93.51s0-.24-.24-.31c-.24.1-.49,0-.54.34-2-.27-4.3-.06-6.11-.71Zm12.23-.17c.37-.19,0,.13-.07.17-.46.14-1.67.12-2.12.32.25-.38,1.3-.47,2.19-.49Zm-4.7.9c.2-.22.51-.34.69-.58.18.3.39.16.71.05a1.41,1.41,0,0,1-1.4.53Zm2.57-.73a1.75,1.75,0,0,1-1.31.6,1.81,1.81,0,0,1,1.31-.6ZM2.83,22.18c1,.7,3.71.47,5,.59-.13-.37-.72-.17-1.11-.2-1-.05-2.3-.26-3.25-.34a1.22,1.22,0,0,0-.88-.36c0-.15-.06-.26-.17-.31a37.32,37.32,0,0,0,4.11.31c-1-.5-2.8-.15-3.81-.56-.21-.09-.48-.2-.41-.53A5.79,5.79,0,0,0,4,20.87c-.41-.34-1.7-.14-1.76-.57a4.8,4.8,0,0,1,1.58-.06c-.23-.43-1.18-.1-1.52-.41,0-.76.8.11.85-.35s-.46-.1-.56-.29c-.09-.37.59,0,.62-.27s-.21-.19-.4-.14c.33-.63.83-1.1,1.2-1.7,2.44-.86,4,1.59,7.23,1.29a21.27,21.27,0,0,0,8.17-2.77c1.7-.88,3.33-2,5.83-2.28.55-.11-1.08.56-1.23.84.8-.14,1.45-.93,2.26-.8,0,.14.1.16.09.31a3.15,3.15,0,0,0,.86-.11,29.72,29.72,0,0,1-3.55,1.87c1.32,0,2.29-1.6,3.74-1-1.54,1-3.16,1.47-4.55,2.54,1.2-.48,1.67-1.26,3.35-1a2,2,0,0,1-1.79.63c.09.3.4.05.64.05-.89.6-1.94,1.05-2.86,1.61,1.67-.3,2.59-2,4.83-1.61-.52.5-1.27.3-2,.32.09.34.77,0,1.11.11a1.69,1.69,0,0,1-1.72.46c-.05.3.38.09.56.14-.37.65-1.3.64-2.1.71.05.09.51.06.86.05a2.75,2.75,0,0,1-2.42.64c.31.31.69,0,1.19.12-.26.29-.68.43-.91.74a3,3,0,0,1,2.65-.66c-.2.37-.76.41-1,.75.69-.21,1.35-.95,2.5-.49a2.91,2.91,0,0,1-2.42.73c-.31,0,0-.12-.16-.23-.15.11-.5.27-.71.1.34.51-1.08.46-1.22,1,.6-.29,2-1,2.73-.74-.3.75-2,1.07-3,.83.1-.18.38-.2.45-.41-.48,0-.89.66-1.72.38.4-.44,1.07-.64,1.46-1.08-1.15.23-2.05,1.74-3.4,1.79.51-.66.87-.57,1.37-1.16a18.88,18.88,0,0,0-2.69,1.84c.51,0,.78-.85,1.64-.54l-.77.51c.16.13.49.06.71.13-.33.5-1.5.23-2.11.48-.2-.23.48-.27.54-.5-.51-.07-.76.71-1.64.54a3.7,3.7,0,0,1,.77-.58c-.64,0-1,.83-1.94.78.06-.19.43-.1.37-.41-.33,0-.5.22-.85.43-1.3-.12-3,.23-4.11-.15a34.37,34.37,0,0,1-5.22-.5c-.39-.07-1-.15-1-.59Zm-.9-.84a.63.63,0,0,1,.16.23c0,.2-.17-.12-.16-.23ZM8,14.87c.31,1.61,3,2.63,5.22,2.16,3.82-.82,7.93-3.4,11.19-4.15h.16c-4.31,1.5-7.72,4.45-12.82,5.09a10.54,10.54,0,0,1-2,.08C7.83,17.86,7,16.31,4.89,16.49A33.42,33.42,0,0,1,8,14.87Zm-1.33.29c0,.08-.09.06-.15.08s.09-.06.15-.08Zm3-.75c.05.21-.26,1.3.22,1.49-.51-.1-.63-1-.22-1.49Zm1.15-.84A12.13,12.13,0,0,1,13.2,13c2.54-.37,4.79-1.64,7.35-1.63A10.28,10.28,0,0,1,24.6,12c-.37.65-.94.54-1.48.68-1.69.48-3.86,1.48-5.75,2.2-1.69.66-5.72,2.06-7.31.61-.2-1.07.41-1.39.79-1.93Zm1.92-1.33c0,.07-.09.06-.15.08s.09-.06.15-.08Zm1.48-.38c-.09.24-.49.2-.77.27a1,1,0,0,1,.77-.27Zm.17.07c.27-.35.9-.37,1.23-.68.27.27-.71.65-1.23.68Zm1.71-.54c-.23-.08.09-.26.23-.24.13.27-.27.06-.23.24Zm.22-.32a2.83,2.83,0,0,1,.89-.57s0,0,0,0l0,0c-.1.13-.41.68-.89.57Zm1.18-.28c-.06-.39.68-.69,1.06-.91.11.42-.82.54-1.06.91Zm.87.2c-.11.18-.51.08-.62.26-.17-.14.35-.29.62-.26Zm.23-.09c0,.08-.09.06-.15.08s.09-.06.15-.08Zm-.55-.06c.1-.21.49-.15.62-.34.07.24-.25.33-.62.34ZM9.85,12.19c.3-.61,1.05-.79,1.36-1.39-.7,0-1.18,1.27-1.92,1.26.24-.59.91-.78,1.21-1.31-.57,0-.9.93-1.61,1.09.09-.1,0-.2,0-.08-.32,0,.17-.3.06-.48-.35,0-.31.52-.63.26-.15-.36.56-.53.6-1-.32-.09-.45.65-.76.82l-.48-.22c.18-.31.53-.46.76-.74-.5-.12-.45.45-1,.52-.15-.28.36-.51.53-.73-.36-.27-.55.7-.94.19,0-.21.24-.18.22-.4s-.31,0-.23.17C5.14,7,8.79,4.16,12.52,4a28.05,28.05,0,0,1,5.3.34c.15,0-.11.3.1.39s.18-.33.46-.33.18.35.33.46.28-.48.54-.26c-.12.12-.26.21-.3.41s.23.08.25.23c.21-.19.18-.6.61-.58.22.23-.2.32-.22.56,0,.06.08.08.09.15.28-.09.38-.35.53-.57a1.22,1.22,0,0,1,.56.14c-.2.42-.74.54-.75,1.13.6-.2.6-1.21,1.46-.92-.11.51-.95.72-.73,1.29.2-.45.74-.58.9-1.06.16,0,.11.21.32.14a13.71,13.71,0,0,1-.9,1.22.32.32,0,0,1,.09.23c.46-.34.74-1.45,1.38-1.16-.26.69-1.24,1.08-1.12,1.86.67-.48.84-1.71,1.83-1.65a19.1,19.1,0,0,0-1.94,2.6,1.25,1.25,0,0,0-.55.11c.07-.34.44-.41.52-.74-.56,0-.76,1.07-1.53,1.17-.22-.14.48-.35.21-.56-.54.09-.77,1.1-1.69,1.09.08-.3.57-.23.44-.73-.57.26-.62,1-1.29,1.16-.15-.14.29-.39.37-.57-.3-.54-1.26,1.42-2.23,1.43.1-.52,1.08-.85.74-1.29-.75.62-1,1.68-2.22,1.9a12.3,12.3,0,0,0,1.21-1.39c-.23-.58-.59.38-.91.75a2.22,2.22,0,0,1-1.55.93A8.44,8.44,0,0,0,14,10.45C13,11,12.69,12.24,11.12,12.3a11.06,11.06,0,0,1,1.68-1.41C12,10.74,11.36,12,10.57,12.4c0-.34.66-.8,1.06-1.07-.43-.08.54-.25.53-.65-.87.07-1.33,1.55-2.31,1.51ZM10.63,4c-1.92.54-3.76,1.5-4.36,3.48.3-1.92,2-3.21,4.36-3.48ZM6.09,8.79c.16.12,0,.55.18.7-.29-.13-.22-.56-.18-.7Zm10-7A14.93,14.93,0,0,1,23.68.84c.06.25-.14.25,0,.39s.67-.31.71.05l-.79,0c-.11.29,0,.37-.13.64.34.24,1.05-.05,1.42-.06-.4.42-1.45.24-1.95.55.65.25,1.32-.28,2.12-.08-.74.67-2.15.43-3,.59,1,.39,2.19-.07,3-.12-.07.5-.9.55-1.32.61-.74.09-1.53-.13-2,.16a13.69,13.69,0,0,0,3.39-.14c-.57.63-2.2.24-3.14.44,1,.37,1.58.08,2.92.05-2.69,1.2-6.2-.65-9.09-.51-.22-.18-.19-.62-.58-.61a2.56,2.56,0,0,1,.83-1.06ZM23.74.44c0,.09-.14.07-.23.09s.14-.07.23-.09Zm.64.13c-.06.24-.25,0-.39,0-.19-.18.24,0,.39,0Zm.35.94c-.12.29-.59.25-1,.27.12-.27.77-.36,1-.27ZM25,.86c0,.14-.12.19-.3.17,0-.24.18-.29.3-.17Zm.25.31c-.08.08,0,.29-.22.25,0-.18.05-.26.22-.25ZM24.72,7c0,.22-.37.2-.47.1.07-.08.23,0,.47-.1Zm.21-.64c0,.09-.14.07-.24.09s.14-.07.24-.09Zm-.27,1.27c-.16-.17.4-.33.62-.42,0,.33-.46.24-.62.42ZM25.58,7c0,.07-.09.06-.15.08s.09-.06.15-.08Zm.63-.19c.11,0,.2.11.32.15-.22.25-.25.68-.85.58.09-.32.52-.33.53-.73Zm.81.52c-.06.43-.54.47-.6.89a.7.7,0,0,0-.47.1c.07-.18.6-.33.69-.5s-.15-.09-.16-.07.59-.27.14-.32c0-.2.29-.2.4-.1Zm.74.84c-.42,0-.56.84-1.48.61.27-.18.41-.12.38-.49h.39c0-.17-.12-.15-.24-.15a4.22,4.22,0,0,1,.45-.49c.3,0,.43.25.5.53Zm.09.39c.14.77-.8,1.19-1.44,1.48.38-.44.93-.71,1.3-1.16,0-.11-.14,0-.16.09-.21-.13.3-.23.3-.41Zm-1.08.6c.22.2.24-.11.47-.1-.3.27-.59.57-.91.83-.13-.2.51-.34.44-.73Zm-.16,0c-.11.27-.4.16-.54.26-.23-.17.34-.24.54-.26Zm-.83.83c-.09,0-.06-.16-.16-.16,0-.2.25-.16.46-.17,0,.2-.3.12-.3.33Zm-1-.44c0,.1-.14.08-.24.09s.14-.07.24-.09Zm-.79,0c.24.15-.33.19-.55.17.13-.19.52-.08.55-.17Zm-1.11,0a.3.3,0,0,1,.3-.33c.09.43.24-.11.48,0a.69.69,0,0,1-.78.35Zm.5.69c.22.06-.12.23-.31.17,0-.29.31,0,.31-.17ZM23,9.7c.22.19-.46.24-.47.26-.19-.28.32-.1.47-.26Zm-.53.57c.2.17-.32.32-.62.27.08-.31.42,0,.62-.27Zm-1.26.13a.44.44,0,0,0,.32.07c0,.14-.44.16-.32-.07Zm1.53-1.08a1.35,1.35,0,0,0-.52.65c-.35,0-.4-.09-.63,0,.29-.31.44-.75,1.15-.67Zm-.58-.77h.32c-.12.32-.28.61-.77.58,0-.51.52-.19.45-.57Zm1.48-.61c-.3-.3.33-.39.37-.65.15,0,.1.22.32.15-.09.29-.41.39-.69.5Zm-1.07,1c.09-.43.5-.55.92-.67.21.11-.32.8-.92.67Zm1.55-.69a.22.22,0,0,0,.17.23c-.23.29-.47.16-.86.35A1.85,1.85,0,0,1,24.67,8c.2.13-.25.32-.54.26Zm1.11.19c-.17.14-.19.43-.53.41,0-.07.09-.06.15-.08a.65.65,0,0,0-.24-.15c.1-.23.43-.24.62-.18Zm.64.21a.43.43,0,0,0-.07.24H25.5c.11-.09.18-.23.38-.25ZM25,8.2c0-.41.54-.36.93-.43A1.28,1.28,0,0,1,25,8.2ZM23.68,6.76c0,.06.07.13.16.15s.12-.4.38-.41c-.45.62-.75,1.38-1.59,1.64.2-.35.55-.55.59-1.05-.54.34-.7,1-1.37,1.24.31-1,1.2-1.42,1.73-2.2.15,0,.1.21.32.14.05.28-.28.21-.22.49ZM21,9.31c0-.34.44-.31.53-.58.08.13-.24.54-.53.58Zm-.35,1.19c.35.21-.32.1-.3.25-.35-.2.32-.09.3-.25ZM20.85,9c-.14.33-.49.46-.77.66-.12-.27.4-.59.77-.66Zm-.75,1c.3.23.35-.29.7-.26-.24.34-.57.74-.92.75-.15-.07.31-.21.22-.49Zm-1.18.13c-.12-.31.51-.59.92-.67-.15.37-.54.52-.92.67Zm.42.53a.34.34,0,0,1,.37-.41,1,1,0,0,1-.37.41Zm.47.07c0,.07-.09.06-.15.08s.09-.07.15-.08Zm.78-.35a1.35,1.35,0,0,1,1-.83c.18.15-.14.48-.46.41.2.32-.13.45-.53.42Zm1.18,0c0,.08-.09.07-.15.09s.09-.07.15-.09Zm-.32-.07c-.2-.11.46-.32.55-.18s-.55,0-.55.18Zm3-.27c0,.09-.14.07-.23.09s.14-.08.23-.09Zm-.66-.84c.28.1.36,0,.7,0-.05.24-.66.44-.7,0Zm1.53,3c0,.19-.48,0-.54.18-.12-.09.35-.33.54-.18Zm-.7-1.86c.35-.23.55-.14,1-.28-.09.32-.6.25-1,.28Zm2.41,3c0,.17-.34.05-.47.1,0-.18.33,0,.47-.1Zm.54-.1c0,.17-.27,0-.39.09,0-.17.28,0,.39-.09Zm.65.37c.11.35-.53,0-.54.26-.23-.17.3-.28.54-.26Zm-.59,1.13c0-.36.46-.24.7-.35-.11.39-.41.22-.7.35Zm1.57-.38c.06.38-.57.13-.7.34-.16-.17.35-.38.7-.34Zm-.33-.3c0,.07-.09.06-.16.08s.1-.06.16-.08Zm1,.82c-.19,0-.17.16-.39.1-.11-.34.43-.46.39-.1Zm.74.69-.87,0c.28-.2.73-.71.87,0Zm.73.68c-.18.19-.7.05-1,.12.36-.3.71-.65,1-.12Zm.58.61c0,.17-.39,0-.55.1.15-.2.36-.33.55-.1Zm-2.09.95a2.79,2.79,0,0,1,2.42-.49,16.22,16.22,0,0,0-2.42.49Zm2.88,1.14c-.12.2-.48.57-.77.35-.12,0,0,.1,0,.24-.15-.14-.2.07-.48,0a.53.53,0,0,0,.06-.64c.46-.19.76.1,1.18,0Zm.18.39c0,.08-.1.07-.16.09s.1-.07.16-.09Zm-.2,1.11c-.15,0-.07-.3-.32-.22.08.32-.77.26-1.25.29a1.56,1.56,0,0,1,1.71-.7c0,.28-.14.38-.14.63Zm-.2.8a11.14,11.14,0,0,0-1.73.23,4.23,4.23,0,0,1,1.78-.78c.25.14-.11.34,0,.55Zm-.94.35c0-.07.1-.06.16-.08s-.1.06-.16.08Zm-1.22.84c.47-.37,1.2-.5,1.7-.86.2.41-.82,1-1.7.86Zm-1,.91c-.18-.11.32,0,.06-.32-.24.23-.4.07-.7.19a2.84,2.84,0,0,1,2.11-.56,5.11,5.11,0,0,1-1.47.69Zm-1.65.3a2.35,2.35,0,0,1,1.41-.29,4,4,0,0,1-1.41.29Zm-1.5,0a4.55,4.55,0,0,1,1.41-.21,3,3,0,0,1-1.8.31c-.51,0,.43-.11.39-.1Zm-.41-.3c-.07.22-.31.11-.47.1,0-.18.34-.05.47-.1Zm-.11-.86c-.44.11-1.11.68-1.87.47a4.59,4.59,0,0,1,1.87-.47Zm-1.5-.1a.68.68,0,0,1-.7.26c.2-.35.29-.31.7-.26Zm2.65-2.71a2,2,0,0,1-1.94.71c.57-.27,1.09-.95,1.94-.71Zm.52-1a2.37,2.37,0,0,1-2.43.57c.59-.66,1.29-.64,2.43-.57Zm-1.74-.09a2.59,2.59,0,0,1-2.43.5,2.43,2.43,0,0,1,2.43-.5Zm1.31-.76a2.71,2.71,0,0,1-2.43.57,2.42,2.42,0,0,1,2.43-.57Zm.68-.73a1.89,1.89,0,0,1-1.79.54,2.46,2.46,0,0,1,1.79-.54Zm.85-.43a1.33,1.33,0,0,1-1.33.29c.2-.35.7-.22,1.33-.29ZM27.87,15c0-.19.48-.22.63-.18-.09.13-.43.4-.63.18Zm.19.78c.1-.14.53-.36.38-.49.29,0,.51-.06,1.1,0,.05.13-1,.59-1.48.53Zm-.21.72c.6-.2.95-.64,1.79-.62a2.08,2.08,0,0,1-1.79.62Zm1.58-.06a1.27,1.27,0,0,1,1.16-.68,3.7,3.7,0,0,1-1.16.68Zm.26.62c.32-.36,1.15-.25,1.39-.69.07.05.15.09.16,0-.09.41-.74.61-1.55.69Zm-.09-.39a.85.85,0,0,1-.54.34c-.16.13.29-.35.54-.34Zm-1.3,1.08a2.87,2.87,0,0,1,1.63-.54,1.73,1.73,0,0,1-1.63.54Zm-.13.79a4.82,4.82,0,0,1,1.4-.61c-.47.2-.71.61-1.4.61Zm1.13.75c-.18-.3.54-.42.85-.51-.23.21-.62.29-.85.51Zm0,.23a8.23,8.23,0,0,1,1.63-.69,6.35,6.35,0,0,1-1.63.69Zm1.42-.06c0-.07.1-.06.16-.08s-.1.07-.16.08Zm-.54.26c0,.17-.37.07-.39.26-.24-.14.22-.26.39-.26Zm-.78.35c0-.08.1-.07.16-.09s-.1.07-.16.09Zm.66.68c0-.07.1-.06.16-.08s-.1.06-.16.08Zm-.46.26c0-.08.09-.07.15-.09s-.09.07-.15.09Zm-.38.49c.63-.22,1.6-1,2-.71-.77.15-1.12.68-2,.71Zm2.06.23c-.41,0-.43.3-.85.27.19-.26.69-.57.85-.27Zm-2.46-.38c-.09-.08.36-.32.62-.34.09.1-.5.19-.62.34Zm-2.09,1c.81-.24,1.31-.73,2.19-.56a4.78,4.78,0,0,1-2.19.56Zm1.11.11c0-.08.09-.07.15-.09s-.09.07-.15.09Zm-.39.17a1.83,1.83,0,0,1-1.09.28,1.79,1.79,0,0,1,1.09-.28Zm-1.7-1.19a3.06,3.06,0,0,1,1-.52,2.32,2.32,0,0,1-1,.52Zm.09.39c-.16-.06.24-.23.39-.25,0,.2-.29.13-.39.25Zm.25.38c0,.23-.32.16-.54.18a.72.72,0,0,1,.54-.18Zm-.47-.06c-.18-.14.47-.17.54-.33.26.22-.43.2-.54.33Zm-.58-.76a3.35,3.35,0,0,1,1.7-.78,3.36,3.36,0,0,1-1.7.78Zm1.61,1c0,.08-.09.06-.15.08s.09-.06.15-.08Zm-.33-.46c.15-.18.26-.23.7-.27-.13.19-.44.21-.7.27Zm2.16-1.27a6.61,6.61,0,0,1-1.94.86,7.18,7.18,0,0,1,1.94-.86Zm-1.5,0c0,.08-.1.06-.16.09s.1-.07.16-.09Zm.06-.48c-.36.12.44-.37.69-.42-.12.24-.5.25-.69.42Zm1.88-.39a3.39,3.39,0,0,1-1.24.68c.17-.45.81-.46,1.24-.68Zm0-.31a.22.22,0,0,1,.23-.17.21.21,0,0,1-.23.17Zm.53,1.24a5.62,5.62,0,0,1-2.1.87,4.11,4.11,0,0,1,2.1-.87ZM28.1,18.73a1.44,1.44,0,0,1-1.55.69c.56-.2,1-.69,1.55-.69Zm.6-.81a2,2,0,0,1-1.95.63,2.54,2.54,0,0,1,1.95-.63Zm-1.27,0c-.39.18-.84.67-1.24.6a3.87,3.87,0,0,1,1.24-.6Zm-.16-.23c0-.29.41-.27.61-.42-.09.24-.37.32-.61.42Zm1.08-.6c0-.23.39-.09.38-.33.23.15-.23.3-.38.33Zm.4.15a1.85,1.85,0,0,1-1.17.52,4,4,0,0,1,1.17-.52ZM23.5,22.15c.45-.24.91-.7,1.47-.61-.49.2-.73.63-1.47.61Zm2.19-.56a5.29,5.29,0,0,1-1.16.6c.12-.15.65-.78,1.16-.6Zm2,1.57c0,.08-.09.07-.15.09s.09-.07.15-.09Zm.86-.27c0,.29-.54.17-.7.35-.12-.31.47-.15.7-.35Zm-2,.32a6.92,6.92,0,0,1,2-.55,6,6,0,0,1-2,.55Zm3.35-.92c0,.08-.09.06-.15.08s.09-.06.15-.08Zm-.57.07s-.07,0-.13,0a.18.18,0,0,0,.13,0c.05,0,.08-.1.18-.13s-.15-.06-.24-.07c.32-.38.91-.33,1.24-.53a1.71,1.71,0,0,1-1.18.73Zm1.72-3c0-.17.19-.17.39-.17a.37.37,0,0,1-.39.17Zm.26.47c-.59.22-1.15.85-1.95.63.5-.06,1.33-.68,1.95-.63Zm-3.18-4.37c-.13.2-.48.21-.61.42-.13-.16.36-.38.61-.42ZM27,15.3c0,.15-.25.07-.22.25.26,0,.3-.36.86-.19a3.26,3.26,0,0,1-2.51.49c.66-.29,1.08-.74,1.87-.55Zm.71-.18c0,.07-.1.06-.16.08s.1-.06.16-.08ZM26.89,14a4.2,4.2,0,0,1,1.34,0,1,1,0,0,1-1.34,0Zm.74.84c-.21.35-.44.28-.94.28,0-.26.47-.27.94-.28Zm-1.75,1.65c.73-.58,1.4-.43,2.42-.57a1.92,1.92,0,0,1-1.48.53c.1-.23.37,0,.38-.41-.6.15-.4.58-1.32.45Zm-2.73,4.76a3,3,0,0,1,2.33-.8,3.4,3.4,0,0,1-2.33.8Zm-1.1,2.26a.22.22,0,0,1-.16-.23.21.21,0,0,1,.16.23Zm-.17-.47c0,.17-.33.05-.47.1,0-.18.33-.05.47-.1Zm-.12-.94c-.1.16-.34.19-.54.26,0-.39.26-.13.54-.26Zm-1-.2a2,2,0,0,1,1.63-.54,1.91,1.91,0,0,1-1.63.54ZM19,22.8a1.74,1.74,0,0,1-1.33.45A1.46,1.46,0,0,1,19,22.8Zm.21-.72a1.42,1.42,0,0,1-1.41.45,1.28,1.28,0,0,1,1.41-.45Zm2.18-.72c-.45.17-.81.76-1.4.53a1.62,1.62,0,0,1,1.4-.53ZM18.6,22a1.74,1.74,0,0,1,1.71-.62A2,2,0,0,1,18.6,22Zm1,.91c-.07.14-.24.18-.47.17.07-.14.24-.18.47-.17Zm-.88-.21a1.84,1.84,0,0,1,1.4-.6c-.38.28-.77.77-1.4.6Zm2.47.38a.22.22,0,0,1-.23.17.21.21,0,0,1,.23-.17Zm-1.51-.26a1.52,1.52,0,0,1,1.47-.69,2.32,2.32,0,0,1-1.47.69Zm2.25-.8a1.69,1.69,0,0,1,1.4-.52,1.5,1.5,0,0,1-1.4.52Zm.61,1.48c0,.17-.27,0-.39.09,0-.17.28,0,.39-.09Zm.64.05c0,.17-.28.05-.39.1,0-.17.27-.05.39-.1Zm.05-.71a2.23,2.23,0,0,1-1.1.2c-.06-.32.48.13.22-.32.37,0,.52-.18.87-.19-.12.07-.44.37,0,.31Zm5.67,3.72c-.36.17-1.06.21-1.33.37-.08-.47.83-.3,1.33-.37Zm1,.52c-.23.6-1.41.6-2.17.87.4-.36,1.5-.43,2.17-.87Zm.47-.18c0,.09-.14.07-.23.09s.14-.07.23-.09Zm1.92.55a16.51,16.51,0,0,0-1.81.08c.3-.11,1.51-.64,1.81-.08ZM31,26.9a.23.23,0,0,1-.24.17c0-.17.11-.15.24-.17Zm2.43,1.8a1.43,1.43,0,0,1-.54.26c0-.11,0-.23-.09-.23-.22.4-.85.43-1.23.68a1.64,1.64,0,0,1,1.86-.71Zm.56.14a1.46,1.46,0,0,1-.7.26.5.5,0,0,1,.7-.26Zm.82.75c-.69.18-1.14.49-2.1.72.39-.61,1.17-.8,1.53-1.25.2.17.52.2.57.53Zm.5.69a13.2,13.2,0,0,1-2,.71c.32-.61,1.15-.75,1.69-1.17a.76.76,0,0,1,.33.46Zm-.9,1.06c0-.45.58-.47,1-.59a4.12,4.12,0,0,1-1,.59Zm1.24-.52c.21.1.24.4.34.62-.5.25-1.26,0-1.49.37-.06-.44,1-.53,1.15-1Zm-1.28,1.55c0-.48.7-.41,1-.67,0,.26-.53.63-1,.67Zm2-.15c-.14,0-.16.1-.31.09.12-.36-.76,0-.94.11a1.73,1.73,0,0,1,1.07-.75c.08.17.22.26.18.55Zm.26.38c-.19.31-.81.22-1.09.44,0-.24.58-.58,1-.67,0,.11,0,.22.09.23Zm-3.44,3c.17-.73,1.94-.64,2.48-1.29-.38.7-1.51,1-2.48,1.29Zm.1.47c-.16,0,.09-.31.31-.25,0,.16-.29.08-.31.25Zm.24,2c.11.24-.81.82-1.39.92A4.55,4.55,0,0,1,33.44,38Zm-1,.28c0,.17-.28,0-.39.09,0-.17.28-.05.39-.09ZM32.09,38c-.08-.31,1-.2,1.25-.44.14.36-1,.22-1.25.44ZM33,36.92a6.92,6.92,0,0,1-1.08.75c0-.28.58-.68,1.08-.75Zm-1.86.79c.33-.19.5-.42.69-.51.51-.24-.14.41-.69.51Zm.09.39c0-.1.14-.08.23-.09s-.14.07-.23.09Zm-.35,1.11c.28-.27.75-.36,1-.67.25.18-.53.66-1,.67Zm.87,0a5.6,5.6,0,0,1-1.08.67,2.83,2.83,0,0,1,1.08-.67Zm-2.56,1.2c-.05.14-.64.16-.71,0,.32.06.58-.14.71,0Zm-1.8-1.58c-.74.48-1.73.3-2.82.5a14.62,14.62,0,0,1,2.82-.5ZM25,39.05c0,.18-.33.05-.47.1,0-.18.34,0,.47-.1Zm-2-.16a3.69,3.69,0,0,1-2.18.8c.5-.62,1.24-.69,2.18-.8Zm-2,.32c-.32.49-1,.62-1.71.77,0-.47.95-.73,1.71-.77Zm-1.65.3c-.33.27-.6.77-1,.35a1.26,1.26,0,0,1,1-.35Zm.35-1.2a2.51,2.51,0,0,1-1.61,1.17c-.4-.73.93-.95,1.61-1.17ZM17.85,39c-.08-.33.18-.34.46-.33a.71.71,0,0,1-.46.33Zm.11.78c-.09.61-.66.39-1.16.52A1,1,0,0,1,18,39.8Zm-1.1.05c0,.34-.46.65-1.08.59a1.76,1.76,0,0,1,1.08-.59Zm-3.28-3c1.78-.22,2.87-.61,4.08-.79-.06.2-.21.32-.22.56a38.07,38.07,0,0,0-4.14.95c-.07-.39.2-.47.28-.72Zm-.69,2.32c0,.22-.19.23-.39.25.05-.16.2-.22.39-.25Zm-.11-.79h-.32c.12-.19.08-.54.37-.56,0,.18-.11.3-.05.55Zm-.25-.3c-.4.24-.61.65-1.16.75-.14-.74.69-.58,1.16-.75Zm-.31-1.89a2.41,2.41,0,0,1-1.47.93c.18-.6.78-.8,1.47-.93Zm1.14-1a2.78,2.78,0,0,1-1.85,1c.36-.71.89-.83,1.85-1Zm2.52-2.07c-.2.7-1.64.91-2.55,1.21.39.16,1-.17,1.41-.22a4.84,4.84,0,0,1-2.56,1.21,5.7,5.7,0,0,1,3.7-2.2Zm1.77-1.17a5.79,5.79,0,0,1-3.34,1.39,4.18,4.18,0,0,1,3.34-1.39ZM19,31a5.34,5.34,0,0,1-3,1c.6-.8,1.81-.69,3-1Zm1.3-.84c.07,0,.08-.08.16-.08-.59.62-2.3.86-3.51,1.16.31-.35.84-.49,1.07-.91a14.24,14.24,0,0,1,2.28-.17ZM22.58,29c-1,.84-2.76,1-4.21,1.19.89-.95,2.55-.87,4.21-1.19Zm1.78-.86c-1.06.79-3,.76-4.44,1.2a7.82,7.82,0,0,1,4.44-1.2Zm-3.29.37c-.65.25-.21,0,.15-.17a10,10,0,0,1,1.86-.86,7.83,7.83,0,0,1-2,1Zm5.31-1.32A8.42,8.42,0,0,1,23,28a7.38,7.38,0,0,1,3.36-.85Zm.14-.56c-1.32.13-2.2.81-3.36.85a29.83,29.83,0,0,1,3.27-1c.2,0,.1.06.09.15Zm-.23.41c-.11-.11.48-.22.7-.27-.16.3-.48.16-.7.27ZM26,29.07c.32-.63,1.84-1.08,2.72-1.21A29.4,29.4,0,0,0,26,29.07Zm2,.48a3,3,0,0,1,1.24-.68c.29.28-.67.68-1.24.68Zm1.81-.08c-.5.86-1.69,1.07-2.7,1.45a6,6,0,0,1,2.7-1.45Zm.21-.79c-.09.11-.54.55-.54.26.29,0,.19-.33.54-.26Zm-.28-1c-.18-.09.48-.3.55-.18s-.49,0-.55.18ZM31.18,29c0,.48-1,.82-1.38,1,0-.64,1-.79,1.38-1Zm-.47-.06c-.14-.11.25-.38.37-.49.25.15.41-.12.64.05-.29.19-.76.22-1,.44Zm.74.75c0-.09.14-.07.23-.08s-.14.07-.23.08Zm0,1.11c0-.26.66-.89,1.08-.75a10.36,10.36,0,0,1-1.08.75Zm.19.63c0-.28.43-.21.37-.57.63-.15,1-.31,1.48-.45a3.09,3.09,0,0,1-1.85,1Zm.5.84c.25-.33.43-.71,1.08-.67a3.75,3.75,0,0,1-1.08.67Zm.87-.11c-.06-.28.72-.44.91-.75.16.37-.61.55-.91.75Zm.1.63c.16-.39.57-.54,1-.67.28.2-.54.65-1,.67Zm.57.53c.36-.51,1.27-.55,1.71-.78.2.51-1.14.63-1.71.78Zm.59.92a1.47,1.47,0,0,1-1.16.52,1.38,1.38,0,0,1,1.16-.52Zm-1.89.15c.15-.52.94-.44,1.4-.68,0,.33-.79.64-1.4.68ZM33,35.9c-.22.37-.74.48-1.24.6,0-.28.73-.53,1.24-.6Zm-.18-.63c-.26.4-.87.47-1.32.69,0-.33.76-.62,1.32-.69Zm-3.79,0c.26.35.83-.13,1.25-.12-.5.49-1.65.39-2.42.64a7.37,7.37,0,0,1,3-1.38c.11,0,0,.07,0,.16s.44-.3.7-.34c-.27.58-1.72.73-2.56,1Zm1.73,0c-.22-.27.46-.34.62-.5.19.23-.4.39-.62.5Zm.25.22c0-.14.13-.18.31-.17a.33.33,0,0,1-.31.17Zm-.14.56c-.21-.2.39-.3.54-.42a2.24,2.24,0,0,1-.54.42Zm-.52.73a1.22,1.22,0,0,1,.93-.51,1.55,1.55,0,0,1-.93.51Zm-3.48,1.87c.07,0,.08,0,.08-.08l.63,0c-.23.21-.52,0-.7.18-.86.09-.87-.1,0-.08ZM27,38c-.61.32-1,.83-1.94.86.56-.38,1-1,1.94-.86Zm-3.88-.16a5.17,5.17,0,0,1-2.79,1.29,3.45,3.45,0,0,1,2.79-1.29Zm-1.88.23c-.62.46-1.05,1.11-2,1.26a2.41,2.41,0,0,1,2-1.26Zm1.29-1.32c.17.14-.35.28-.46.42.33.19.46-.44.93-.36A4.09,4.09,0,0,1,20.73,38a2.68,2.68,0,0,1,1.77-1.26Zm-1.09.28a2.77,2.77,0,0,1-2.25,1.2c.64-.5,1.1-1.17,2.25-1.2Zm-1.49.3A2.92,2.92,0,0,1,18,38.54a2.46,2.46,0,0,1,1.93-1.18Zm-1.77-.8a10.12,10.12,0,0,0,2-.39A3,3,0,0,1,17.8,37.6c.27-.4.76-.61,1.06-1-.43,0-.72.7-1.23.84,0-.53.6-.47.52-.89Zm6.43-4.91a11.2,11.2,0,0,1,3.09-1.78c.46-.08-.5.18-.54.42.15.15.51-.14.71-.19a7.56,7.56,0,0,1-3.26,1.55ZM22.9,33.06c.15.13.59-.11.87-.11-.25.4-1,.35-1.48.53a.94.94,0,0,0,.78-.11c.23.12-.28.18-.3.33a9.89,9.89,0,0,1,2.5-.73c-.63.94-2.48,1.53-3.88,1.81,0,.09.15.06.24.07-.7.58-2.1.53-3.12.83.16-.26.35-.48.52-.73a9.44,9.44,0,0,0,3-1.07,1.21,1.21,0,0,0-.25-.3c.14.35-1.79,1-2.64,1.21,1.08-1.57,3.27-1.42,4.88-2.41-.26.12-.66.1-.86.27-.06-.24.69-.38.76-.74a10.25,10.25,0,0,1-3.56,1.64c.78-1.17,2.6-1.38,3.78-2.2-.56,0-1.19.57-1.87.71a8,8,0,0,1,4.11-2c-.43.62-1.67,1.14-2.38,1.75a9.16,9.16,0,0,0,1.8-.39,6.38,6.38,0,0,1-2.94,1.62ZM28,31.12c-.59,1-2.22,1-3.33,1.47a7.37,7.37,0,0,1,4.34-2,2.6,2.6,0,0,1-1,.51Zm-.21.56a4.19,4.19,0,0,1,1.7-.85c.08.58-1.12.63-1.7.85Zm2.67-.34c-.32.46-1,.57-1.71.7a4.73,4.73,0,0,1,1.71-.7Zm-1-.75c.14-.11.2-.28.47-.26a.47.47,0,0,1-.47.26Zm1.11,0a6.46,6.46,0,0,1-1,.67c0-.22.5-.65,1-.67Zm.09.31c.05-.28.45-.24.53-.5.1.13-.26.47-.53.5Zm-.13.79c.21-.33.74-.38.92-.74.25.17-.46.72-.92.74Zm1,0c0-.07.09-.06.15-.08s-.09.06-.15.08Zm-.77.43c.14,0,.16-.1.31-.09-.08,0-.33.42-.31.09Zm-.14.56A7,7,0,0,1,32,31.75c.06.49-.7.87-1.38.93Zm.65.52c-.05-.4.87-.56,1.31-.76-.08.28-.8.62-1.31.76Zm.73.45A1.57,1.57,0,0,1,33.32,33a1.52,1.52,0,0,1-1.32.61Zm.36,1a1.9,1.9,0,0,1-.85.43.76.76,0,0,1,.85-.43ZM32,33.33a1.59,1.59,0,0,1-1.16.6,2.62,2.62,0,0,1,1.16-.6Zm-1.18.21c-.18.41-1.11.79-1.77,1a5.68,5.68,0,0,1,1.77-1Zm-4.27,1.74c.68-.31,1.44-1.34,2.17-1.11.12-.17.47-.11.62-.26s.1.06.08.15a6.43,6.43,0,0,1-2.87,1.22Zm2-.23A4.65,4.65,0,0,1,27,36a2.07,2.07,0,0,1,1.47-.92Zm-1.62,1a12.11,12.11,0,0,1-2.55,1.52,9.47,9.47,0,0,1,2.55-1.52Zm-.94.19c-.89.54-1.6,1.55-2.87,1.3A4.54,4.54,0,0,1,26,36.25Zm1.38-1c.2,0-.58.64-.84.74-.46.2-1,.15-1.49.3a4.65,4.65,0,0,1,2.33-1Zm-1.76-.64c.16.34-1,.73-1.3,1.16-.3,0-.38.15-.7.1,0,.33.16,0,.32.07a2.39,2.39,0,0,1-1.79.78,5.78,5.78,0,0,1,3.47-2.11Zm-2.72,1A2.5,2.5,0,0,1,20.69,37a4.3,4.3,0,0,1,2.16-1.42ZM21.6,36a3.41,3.41,0,0,1-2.24,1.35c.62-.57,1-1.35,2.24-1.35Zm2.17-.87a3,3,0,0,1-.61.42c-.16-.3-.45.12-.79,0,.3-.31.9-.34,1.4-.45ZM25.15,34c.2,0,.1,0,.08.15a5.86,5.86,0,0,1-2.4,1c.1-.71,1.38-1,2.32-1.19Zm2.31-1.44a6.55,6.55,0,0,1-3.33,1.56,5.44,5.44,0,0,1,3.33-1.56Zm-3.68.62c.52-.65,1.82-.59,2.64-1-.22.63-1.77.69-2.64,1Zm4.38-1c-.65.09-1.2.26-1.8.39.53-.7,1.82-.69,2.64-1.13.31.2-.81.35-.84.74Zm-.05.71c0,.41-1.11.5-1.71.62a6.22,6.22,0,0,1,3.09-1.46c-.27.36-1.41.7-1.38.84Zm.4.22c.13-.48,1.22-.74,1.93-.94-.17.74-1.24.67-1.93.94ZM31,32.9a3.18,3.18,0,0,1-2,.87c.41-.53,1.26-.66,2-.87Zm-6.39,1.83a3.92,3.92,0,0,1,2.63-1.13,4.79,4.79,0,0,1-2.63,1.13Zm2.37.06a4.43,4.43,0,0,1-2.34.88,5.57,5.57,0,0,1,2.94-1.45c.12.18-.35.4-.6.57Zm-.18-.54a3.87,3.87,0,0,1,2.56-1.13,4.5,4.5,0,0,1-2.56,1.13Zm-8.75,2.16c.33-1,2.25-.75,3-1.07-.43.91-1.78.79-3,1.07Zm3.8-1.65c.51,0,.83-.25,1.33-.29-.23.28-.75.39-.68.74-.34.14-.84.14-1.1.35.09.13.48-.11.71-.1-.24.33-.81.36-1.32.44.3-.61,1.07-.51,1.06-1.14Zm1.45,1.87c-.11.08-.1-.05,0,0l0,0a3.22,3.22,0,0,1,2.25-1,19.92,19.92,0,0,1-3.47,2.11,5.56,5.56,0,0,1,1.3-1,.32.32,0,0,0-.12-.12Zm6.08-.83a7.61,7.61,0,0,1-4.19,1.59,8,8,0,0,1,4.11-1.74c.2,0,.1.05.08.15Zm-2.68,2c.13-.16.4-.18.7-.18.13.09-.49.14-.7.18Zm.54-.26c.14-.41,1.14-.66,1.87-.78-.38.48-1.22.55-1.87.78Zm2-.31c0,.07-.09.06-.15.08s.09-.07.15-.08Zm-.24-.15a2.3,2.3,0,0,1,1.32-.61c-.15.47-.83.45-1.32.61Zm1.67-1.65c-.11.33-.74.18-.93.43-.12-.24.56-.39.93-.43Zm-.54.42c.45,0,.1.28-.14.4a6.93,6.93,0,0,1-1.48.37,3.16,3.16,0,0,1,1.62-.77Zm.95-6.11c0-.08.09-.07.15-.09s-.09.07-.15.09Zm.48.13c-.26.33-.9.29-1.25.53-.05-.31.8-.43,1.25-.53Zm-3.81-.55c-.66.66-1.92.76-3,1.06a6,6,0,0,1,2.17-1c0,.18-.23.09-.23.24.27.15.65-.26,1-.27Zm-1.46-.89c-1,1.15-2.58,1.32-4.1,2,.7.05,1.41-.56,2.26-.64a12.55,12.55,0,0,1-4.63,2.63,3.85,3.85,0,0,0,1.64-.46c-.41.89-2.33,1-3.09,1.86.44-.13,1.19-.63,1.87-.79-.63.66-1.29,1.29-1.9,2a23.19,23.19,0,0,0-4.21,1.2c1-.15,2.67-.69,4-1,.09.14-.25.53-.36.72a37.91,37.91,0,0,0-4.15.88,7,7,0,0,1,2.19-2.53c2.45-2.19,5.39-4.53,8.77-5.56,0,.26-.6.06-.61.34.38-.06,1.55-.4,2.34-.56Zm-8.78,9.42c.26-.17.8-.08,1-.28,0,.23-.52.68-.91.82,0-.27-.13-.29-.1-.54Zm5.71.8c0,.17-.33,0-.47.09,0-.17.34,0,.47-.09Zm-1,0a8.54,8.54,0,0,1,1.38-.93.21.21,0,0,1-.23.17c.28.18.49-.35.94-.27-.31.3-.84.39-1.08.75a9.39,9.39,0,0,1,4-1.26c-1.12,1.18-3.18,1-5,1.54Zm4.26-.09c.23-.68,2-.72,2.72-1-.41.79-1.84.63-2.72,1Zm1.27.42c.11-.35.9-.31,1.49-.37-.49.29-.94.15-1.49.37Zm1.11.11c0-.09.14-.07.24-.08s-.14.07-.24.08Zm.41.3c-.17.15-.29.34-.62.34.18-.14.29-.33.62-.34Zm.38-.25c-.14,0,0-.08.16-.08.1-.24.07.18-.16.08Zm1.56-.53c0,.27-.75.56-1.23.68a2.55,2.55,0,0,1,1.23-.68Zm-2-.63c.08-.29.47-.29.62-.5.28.12-.2.16-.15.32a2.64,2.64,0,0,1,1.4-.53c-.42.59-1,.62-1.87.71Zm5.37-3.92c0,.15-.26.06-.22.24-.22-.06,0-.32.22-.24ZM34.14,34c.14-.62,1.54-.68,2.1-1-.06.35-.91.62-1.31.92a.36.36,0,0,0,.07-.24c-.26.11-.66.09-.86.27Zm-7-7.54c0-.07.09-.06.15-.08s-.09.06-.15.08Zm.51,1.09c-.43.63-1.89.95-2.87,1.14a6.34,6.34,0,0,1,2.87-1.14ZM10.15,37.82c.17-.49.78-.59,1.23-.83.21.25-.55.89-1.23.83ZM8.56,39.47c.19-.56.9-.64,1.55-.78a2.48,2.48,0,0,1-1.55.78Zm.56.05c-.47.28-.63.84-1.39.85a1.47,1.47,0,0,1,1.39-.85Zm.82.92c0,.07-.09.06-.15.08s.09-.06.15-.08Zm1-1.07a4.31,4.31,0,0,1-2.33.88c.43-.66,1.32-.9,2.08-1.26,0-.14-.37.1-.55.1.13-.3.68-.4.61-.66-.37-.14-1,.19-1.33.29,0-.56.84-.73,1.62-.93a2.77,2.77,0,0,0-.1,1.58Zm1.83-1.65a6.68,6.68,0,0,0-1.17.28c.17-.38.38-1,1-.75,0-.09,0-.14.07-.16s-.08-.3-.33-.22c.59-.77,1.51-1.24,2.13-2a14,14,0,0,1-1.57,2c.29.12-.08.53-.13.79Zm4.79,1.47c.06.53-.52.48-.92.59.17-.29.64-.9.92-.59Zm-.32-.3c-.52.48-.9,1.09-1.93,1.1a2.37,2.37,0,0,1,1.93-1.1Zm-.11-.71a1.05,1.05,0,0,1,.18.55c-.35,0-.47.12-.79.11.11-.31.48-.38.61-.66ZM14,39.41a3,3,0,0,1,2.16-1.35A3.09,3.09,0,0,1,14,39.41Zm3.18-1.47c-.51.42-.79,1-1.69,1.09.59-.33.79-1,1.69-1.09Zm5.53,2.23c0,.08-.09.06-.15.08s.09-.06.15-.08Zm.23-.09c0,.08-.09.07-.15.09s.09-.07.15-.09Zm-1.41.06c.36-.62,1.11-.42,2-.48-.55.51-1.15.35-2,.48Zm2.89-.75c0,.08-.1.07-.16.09s.1-.07.16-.09ZM24.16,39c-.11,0,0,.1,0,.23a6.07,6.07,0,0,0-1.49.22c.3-.29.52-.63,1.08-.67.06-.53,1.33-.46,2-.64-.53.29-1,.89-1.63.86Zm2.42,1.16c0,.08-.1.07-.16.09s.1-.07.16-.09Zm1.32-.44a.74.74,0,0,1-.46.25c.06-.17.22-.25.46-.25Zm-1.5.06a4,4,0,0,1,2-.64,3.85,3.85,0,0,1-2,.64Zm3.11.58c0,.1-.15.08-.24.09s.14-.07.24-.09Zm.61-.42c0,.18-.19.18-.39.18.06-.12.25-.13.39-.18Zm-1.56.38a9.94,9.94,0,0,1,2.17-.87c-.23.48-1.39.53-2.17.87Zm5.1-2.57a2.11,2.11,0,0,1,.61-.49c.88-.35.22.47-.61.49Zm-.8-.36A5.39,5.39,0,0,1,35.49,36c.1,0,.08.16,0,.16a5.19,5.19,0,0,1-2.63,1.21Zm2-3.08c.42-.57,1.42-.61,1.68-1.33a.91.91,0,0,1,.26.62,6.2,6.2,0,0,1-1.94.71Zm2-.31c-.25,0-.29-.19-.17-.31.1,0,.15.16.17.31Zm.91-.75c-.89-4.27-4.93-6.58-8.44-8-.24-.51-1.3-.13-1.45-.73,2.94-.34,5.5-1.7,5.41-4.79,0-1.41-.86-2.26-1-3.43A13.49,13.49,0,0,0,25.58,11c1.33-.53,3.57-1.19,3.12-2.89-.35-1.33-3.52-1.83-4.52-2.58,3-.3,2.7-5.22-.37-5.51a14.32,14.32,0,0,0-3.54.22c-2.55.37-5.85,1-5.55,3.38a17.35,17.35,0,0,0-4.89.11c-3.2.81-5.36,3.81-3.51,7.08,0,1,.89,1.18,1.26,1.85a6.31,6.31,0,0,0,2.56.76C6.76,14.7,1,16.5,1.61,21.28c.26,2.1,2.3,2.65,3.69,3.48.77-.17,1.71.41,2.7.6C3.65,27.3.7,29.89.18,35c0,.26-.09.33-.15.38s0,.23,0,.34l0-.08c.11,0,0,.18,0,.33a7.61,7.61,0,0,0,.47,3h0a4.08,4.08,0,0,1,.43.93c.07-.25.09.22.24.14s-.24-.25,0-.31c1,1.92,4.48,1.51,6.48,2.11,5.18.21,11.17,0,15.87.32s10.41-.3,12.66-3.1a6.76,6.76,0,0,0,1.66-5.75Z"/></g></g></svg>